<svg width="120" height="138" viewBox="0 0 120 138" fill="none" xmlns="http://www.w3.org/2000/svg">
<g id="Group 1495">
<path id="Vector" d="M51.5541 124.829H43.7369C42.4341 124.829 41.5655 125.692 41.5655 126.986C41.5655 128.28 42.4341 129.143 43.7369 129.143H51.5541C52.8569 129.143 53.7255 128.28 53.7255 126.986C53.7255 125.692 52.8569 124.829 51.5541 124.829ZM39.1769 11.1706H56.1141C57.4169 11.1706 58.2855 10.3079 58.2855 9.01386C58.2855 7.71983 57.4169 6.85715 56.1141 6.85715H39.1769C37.8741 6.85715 37.0055 7.71983 37.0055 9.01386C37.0055 10.3079 38.0912 11.1706 39.1769 11.1706ZM17.0284 11.1706H17.6798C18.9826 11.1706 19.8512 10.3079 19.8512 9.01386C19.8512 7.71983 18.9826 6.85715 17.6798 6.85715H17.0284C15.7255 6.85715 14.8569 7.71983 14.8569 9.01386C14.8569 10.3079 15.7255 11.1706 17.0284 11.1706Z" fill="#31708A"/>
<path id="Vector_2" d="M109.124 76.2857L94.6306 65.1429C94.6306 58.2857 94.6306 26.3571 94.6306 12.8571C94.6306 5.78571 88.876 0 81.8427 0H13.0011C5.96769 0 0 5.78571 0 12.8571V124.071C0 131.143 5.75456 137.143 13.0011 137.143H81.8427C88.876 137.143 94.6306 131.357 94.6306 124.071C94.6306 115.929 94.6306 99.6429 94.6306 91.5L97.1882 91.7143C98.6801 96.4286 103.156 99.8571 108.271 99.8571C114.665 99.8571 119.993 94.5 119.993 88.0714C120.206 81.6429 115.304 76.7143 109.124 76.2857ZM96.7619 87.4286L68.4154 85.9286C68.2022 79.0714 63.9396 73.2857 57.9719 70.7143L60.1032 57C60.3164 57 60.5295 57 60.5295 57C64.579 57 67.9891 55.0714 70.1204 51.8571L103.156 77.1429C99.7458 79.0714 96.9751 82.9286 96.7619 87.4286ZM17.2637 63L19.395 50.7857C20.4607 51.2143 21.7395 51.4286 23.0183 51.4286C24.5102 51.4286 25.789 51.2143 27.0678 50.7857L40.7082 72.8571C38.3638 74.5714 36.4456 76.9286 35.3799 79.7143L26.2152 76.7143C26.4284 76.0714 26.4284 75.2143 26.4284 74.5714C26.4284 69 22.592 64.2857 17.2637 63ZM14.7061 67.0714C18.7556 67.0714 22.1657 70.5 22.1657 74.5714C22.1657 78.6429 18.7556 82.0714 14.7061 82.0714C10.6566 82.0714 7.24649 78.6429 7.24649 74.5714C7.24649 70.5 10.6566 67.0714 14.7061 67.0714ZM34.5274 40.9286L49.2335 43.7143C49.2335 44.1429 49.0204 44.7857 49.0204 45.2143C49.0204 50.1429 52.0042 54.2143 56.0537 55.9286L53.9224 69.4286C53.0699 69.2143 52.2173 69.2143 51.1517 69.2143C48.8072 69.2143 46.4628 69.6429 44.3315 70.7143L30.4779 48.4286C32.6092 46.5 34.1011 43.9286 34.5274 40.9286ZM53.283 45.2143C53.283 41.1429 56.6931 37.7143 60.7426 37.7143C64.7921 37.7143 68.2022 41.1429 68.2022 45.2143C68.2022 49.2857 64.7921 52.7143 60.7426 52.7143C56.6931 52.7143 53.283 49.5 53.283 45.2143ZM22.8051 47.1429C18.7556 47.1429 15.3455 43.7143 15.3455 39.6429C15.3455 35.5714 18.7556 32.1429 22.8051 32.1429C26.8546 32.1429 30.2647 35.5714 30.2647 39.6429C30.2647 43.7143 26.8546 47.1429 22.8051 47.1429ZM51.1517 73.5C58.3982 73.5 64.1527 79.2857 64.1527 86.5714C64.1527 93.8571 58.3982 99.6429 51.1517 99.6429C43.9052 99.6429 38.1506 93.8571 38.1506 86.5714C38.1506 79.2857 44.1183 73.5 51.1517 73.5ZM72.2518 48C72.4649 47.1429 72.4649 46.2857 72.4649 45.4286C72.4649 39 67.1366 33.6429 60.7426 33.6429C56.2668 33.6429 52.4305 36.2143 50.5123 39.8571L34.1011 36.4286C32.8223 31.5 28.1334 27.8571 22.8051 27.8571C16.4112 27.8571 11.0829 33.2143 11.0829 39.6429C11.0829 43.2857 12.7879 46.5 15.3455 48.6429L13.0011 63C9.16467 63.6429 6.18083 66 4.47577 69.2143V19.9286H90.5811V61.9286L72.2518 48ZM13.0011 4.28571H81.8427C86.5316 4.28571 90.368 8.14286 90.368 12.8571V15.6429H4.26264V12.8571C4.26264 8.14286 8.31215 4.28571 13.0011 4.28571ZM81.8427 132.857H13.0011C8.31215 132.857 4.26264 129 4.26264 124.071V121.286H90.368V124.071C90.368 129 86.5316 132.857 81.8427 132.857ZM90.368 117.214H4.26264V79.9286C6.18083 83.7857 10.2303 86.3571 14.7061 86.3571C18.9687 86.3571 22.592 84 24.7233 80.7857L34.1011 84C33.888 84.8571 33.888 85.7143 33.888 86.5714C33.888 96.2143 41.5607 103.929 51.1517 103.929C59.4638 103.929 66.2841 97.9286 67.9891 90.2143L90.368 91.2857V117.214ZM108.484 95.5714C104.435 95.5714 101.025 92.1429 101.025 88.0714C101.025 84 104.435 80.5714 108.484 80.5714C112.534 80.5714 115.944 84 115.944 88.0714C115.944 92.1429 112.534 95.5714 108.484 95.5714Z" fill="#80ABA5"/>
</g>
</svg>
