<svg width="128" height="120" viewBox="0 0 128 120" fill="none" xmlns="http://www.w3.org/2000/svg">
<g id="Group 1493">
<path id="Vector" d="M24 57.9999V57.8729L39.902 62.7899C41.4182 63.2602 42.9965 63.4996 44.584 63.4999C44.746 63.4999 67.096 62.9449 67.096 62.9449C68.9033 62.9066 70.6256 62.1696 71.9011 60.8887C73.1767 59.6077 73.9064 57.8824 73.937 56.0749C74.0083 55.2081 73.9004 54.3359 73.6199 53.5127C73.3394 52.6895 72.8924 51.9328 72.3067 51.2899C71.721 50.647 71.0092 50.1316 70.2156 49.7758C69.422 49.42 68.5636 49.2314 67.694 49.2219L54.585 49.4959C51.826 49.5529 49.035 47.5879 49.179 44.6099C49.347 41.1249 53.227 39.8549 56.222 40.4529C56.682 40.5449 57.942 40.9699 59.747 41.6259C60.1859 40.3655 60.736 39.1467 61.391 37.9839C58.554 36.9689 55.986 36.0879 52.945 36.5039C49.105 37.0289 45.688 39.6169 45.285 43.6499C45.0253 45.7753 45.5644 47.9213 46.7976 49.6717C48.0308 51.4221 49.8702 52.652 51.959 53.1229C52.8267 53.3768 53.7269 53.5021 54.631 53.4949L67.679 53.2209C68.225 53.2369 70.004 53.4809 69.939 55.9709C69.9309 56.761 69.6121 57.5162 69.0517 58.0733C68.4913 58.6303 67.7342 58.9445 66.944 58.9479L44.957 59.4939C43.6458 59.5355 42.3368 59.3581 41.084 58.9689L24 53.6859V34.0059L49.219 26.8219C50.4547 26.4247 51.7814 26.4094 53.026 26.7779C54.111 27.2179 59.487 29.7519 65.566 32.6509C66.6538 31.6226 67.841 30.7048 69.11 29.9109C62.288 26.6489 55.845 23.6039 54.53 23.0709C52.4305 22.3502 50.1547 22.3253 48.04 22.9999L24 29.8479V25.9999C23.9981 24.4091 23.3654 22.8841 22.2406 21.7593C21.1158 20.6345 19.5907 20.0017 18 19.9999H6C4.40927 20.0017 2.88422 20.6345 1.75941 21.7593C0.634589 22.8841 0.00185261 24.4091 0 25.9999L0 57.9999C0.00185261 59.5906 0.634589 61.1157 1.75941 62.2405C2.88422 63.3653 4.40927 63.998 6 63.9999H18C19.5907 63.998 21.1158 63.3653 22.2406 62.2405C23.3654 61.1157 23.9981 59.5906 24 57.9999ZM4 57.9999V25.9999C4.00053 25.4696 4.21141 24.9612 4.58637 24.5862C4.96133 24.2113 5.46973 24.0004 6 23.9999H18C18.5303 24.0004 19.0387 24.2113 19.4136 24.5862C19.7886 24.9612 19.9995 25.4696 20 25.9999V57.9999C19.9995 58.5301 19.7886 59.0385 19.4136 59.4135C19.0387 59.7885 18.5303 59.9993 18 59.9999H6C5.46973 59.9993 4.96133 59.7885 4.58637 59.4135C4.21141 59.0385 4.00053 58.5301 4 57.9999Z" fill="#31708A"/>
<path id="Vector_2" d="M7.6709 15.9999C10.3177 12.293 13.8102 9.27073 17.8587 7.18377C21.9073 5.0968 26.3951 4.00532 30.9499 3.99988C31.3192 3.99988 31.6899 4.00722 32.0619 4.02188C42.4719 4.41988 51.9839 10.1989 58.8649 20.3009L59.2349 21.1509C59.3903 21.5081 59.6466 21.8122 59.9724 22.0258C60.2982 22.2393 60.6793 22.3531 61.0689 22.3531C61.4585 22.3531 61.8396 22.2393 62.1654 22.0258C62.4912 21.8122 62.7475 21.5081 62.9029 21.1509L63.2729 20.3009C70.1539 10.1989 79.6659 4.41988 90.0759 4.01988C95.0284 3.83364 99.9447 4.93316 104.346 7.21136C108.747 9.48956 112.484 12.8688 115.191 17.0199C123.659 29.7699 122.017 43.6899 116.787 55.9989H119.559C120.061 56.0027 120.563 56.0445 121.059 56.1239C126.254 43.1469 127.599 28.4739 118.523 14.8069C115.438 10.0826 111.183 6.23789 106.171 3.64719C101.159 1.05649 95.5608 -0.191811 89.9229 0.0238828C78.7669 0.449883 68.5899 6.27788 61.0689 16.4919C53.5499 6.27988 43.3709 0.450883 32.2159 0.0248828C26.5779 -0.19091 20.9802 1.05735 15.9681 3.64806C10.956 6.23877 6.70038 10.0836 3.6159 14.8079C3.3499 15.2079 3.0959 15.6089 2.8479 16.0109L7.6709 15.9999ZM74.7689 107.412C71.1708 110.312 67.544 113.176 63.8889 116.004C51.2228 107.266 39.4949 97.2398 28.8929 86.0869C23.5739 80.5209 18.7923 74.465 14.6119 67.9999H9.9179C14.5213 75.4989 19.9108 82.486 25.9949 88.8429C36.7879 100.196 48.7269 110.402 61.6209 119.298C62.3137 119.776 63.1406 120.021 63.982 119.999C64.8233 119.976 65.6358 119.686 66.3019 119.172C68.5269 117.462 75.6139 111.972 83.2719 105.622L79.0259 106.749C77.6437 107.163 76.2115 107.386 74.7689 107.412Z" fill="#80ABA5"/>
<path id="Vector_3" d="M80.9471 37.4999C80.4167 37.4999 79.908 37.7106 79.5329 38.0857C79.1578 38.4607 78.9471 38.9694 78.9471 39.4999V40.2149C77.8748 40.572 76.9371 41.2478 76.2589 42.1519C75.5808 43.056 75.1947 44.1455 75.1521 45.2749C75.2247 46.6178 75.765 47.8929 76.6794 48.879C77.5938 49.8652 78.8245 50.5002 80.1581 50.6739C81.0451 50.8339 83.2921 51.0139 82.9071 52.4789C82.8266 52.7057 82.6985 52.9126 82.5313 53.0858C82.3642 53.259 82.1619 53.3944 81.9381 53.4829C81.3845 53.7557 80.7574 53.8418 80.1507 53.7282C79.544 53.6146 78.9905 53.3075 78.5731 52.8529C78.4186 52.6336 78.2215 52.4477 77.9935 52.3065C77.7654 52.1652 77.5112 52.0715 77.2461 52.0309C77.7072 53.3642 77.9201 54.7708 77.8741 56.1809C77.8641 56.5159 77.8341 56.8379 77.8001 57.1579C78.1707 57.3189 78.5544 57.4477 78.9471 57.5429V58.4999C78.9471 59.0303 79.1578 59.539 79.5329 59.9141C79.908 60.2892 80.4167 60.4999 80.9471 60.4999C81.4775 60.4999 81.9862 60.2892 82.3613 59.9141C82.7364 59.539 82.9471 59.0303 82.9471 58.4999V57.3819C83.1862 57.3003 83.4206 57.2055 83.6491 57.0979C84.4011 56.762 85.0706 56.2658 85.6106 55.6439C86.1506 55.022 86.548 54.2896 86.7751 53.4979C86.9618 52.7904 86.989 52.0502 86.8546 51.3309C86.7202 50.6117 86.4277 49.9312 85.9981 49.3389C85.1266 48.1445 83.8581 47.2997 82.4201 46.9559C81.9111 46.8259 81.3831 46.8299 80.8681 46.7369C79.8901 46.5609 79.1521 45.9319 79.1521 45.2749C79.1521 44.5589 80.0921 43.7609 81.4391 43.7609C82.1324 43.7428 82.8067 43.9883 83.3261 44.4479C83.5131 44.6354 83.7355 44.7838 83.9804 44.8847C84.2252 44.9855 84.4877 45.0367 84.7525 45.0354C85.0173 45.034 85.2792 44.98 85.523 44.8766C85.7668 44.7732 85.9876 44.6224 86.1726 44.433C86.3577 44.2436 86.5033 44.0193 86.601 43.7732C86.6987 43.527 86.7465 43.2639 86.7417 42.9992C86.7369 42.7344 86.6796 42.4732 86.573 42.2308C86.4665 41.9883 86.3129 41.7695 86.1211 41.5869C85.2396 40.7473 84.1397 40.1724 82.9471 39.9279V39.4999C82.9471 38.9694 82.7364 38.4607 82.3613 38.0857C81.9862 37.7106 81.4775 37.4999 80.9471 37.4999Z" fill="#31708A"/>
<path id="Vector_4" d="M9.93799 31.9999C11.0426 31.9999 11.938 31.1044 11.938 29.9999C11.938 28.8953 11.0426 27.9999 9.93799 27.9999C8.83342 27.9999 7.93799 28.8953 7.93799 29.9999C7.93799 31.1044 8.83342 31.9999 9.93799 31.9999Z" fill="#80ABA5"/>
<path id="Vector_5" d="M122 59.9999H110C108.409 60.0017 106.884 60.6345 105.759 61.7593C104.635 62.8841 104.002 64.4091 104 65.9999V66.1279C96.3414 65.4274 88.7017 67.6534 82.618 72.3579C81.463 73.2339 79.843 73.6789 77.366 73.8029L67.278 74.3089C67.1532 74.3148 67.0293 74.3325 66.908 74.3619C65.4878 74.6875 64.216 75.4753 63.2919 76.6017C62.3678 77.7282 61.8437 79.1295 61.802 80.5859C61.802 80.7679 61.8066 80.9445 61.816 81.1159L41.848 73.6699C40.2739 73.18 38.5746 73.2862 37.0738 73.9682C35.573 74.6502 34.3754 75.8604 33.7091 77.3683C33.0429 78.8762 32.9545 80.5765 33.4609 82.1453C33.9672 83.7142 35.0329 85.042 36.455 85.8759C41.383 88.4489 68.893 102.264 71.557 103.386C72.5895 103.805 73.6955 104.015 74.81 104.001C75.9829 103.996 77.1483 103.813 78.266 103.457L104 96.3769V97.9989C104.002 99.5896 104.635 101.115 105.759 102.239C106.884 103.364 108.409 103.997 110 103.999H122C123.591 103.997 125.116 103.364 126.241 102.239C127.365 101.115 127.998 99.5896 128 97.9989V65.9999C127.998 64.4091 127.365 62.8841 126.241 61.7593C125.116 60.6345 123.591 60.0017 122 59.9999ZM77.017 99.6559C75.7499 100.068 74.3872 100.084 73.111 99.7009C70.715 98.6909 43.575 85.0809 38.305 82.3289C38.0129 82.1777 37.7554 81.9676 37.5487 81.7118C37.3419 81.456 37.1905 81.1602 37.104 80.8429C37.0174 80.5256 36.9976 80.1938 37.0458 79.8685C37.094 79.5432 37.2091 79.2314 37.384 78.9529C37.947 77.8729 39.154 76.9149 40.422 77.4079L63.242 85.9179C64.9657 86.5756 66.7931 86.9201 68.638 86.9349L82.911 86.9329C83.5118 87.0231 84.0662 87.3088 84.4884 87.7457C84.9107 88.1825 85.1772 88.7463 85.247 89.3499C85.3708 89.8606 85.6906 90.3021 86.1374 90.5788C86.5841 90.8556 87.1218 90.9454 87.6342 90.8289C88.1466 90.7123 88.5926 90.3988 88.8757 89.956C89.1588 89.5133 89.2562 88.9769 89.147 88.4629C88.8283 86.7325 87.8592 85.1898 86.4389 84.1514C85.0185 83.1129 83.2545 82.6576 81.509 82.8789L67.589 82.8809H67.553C66.243 82.8239 65.8 81.7869 65.802 80.5909C65.8381 80.0558 66.0419 79.5457 66.3844 79.133C66.7269 78.7203 67.1907 78.426 67.71 78.2919L77.565 77.7969C80.2223 77.8035 82.8216 77.0203 85.033 75.5469C90.4214 71.3663 97.2176 69.4314 104 70.1469V92.2269C104 92.2269 77.06 99.6409 77.017 99.6559ZM124 97.9999C123.999 98.5301 123.789 99.0385 123.414 99.4135C123.039 99.7885 122.53 99.9993 122 99.9999H110C109.47 99.9993 108.961 99.7885 108.586 99.4135C108.211 99.0385 108 98.5301 108 97.9999V65.9999C108 65.4696 108.211 64.9612 108.586 64.5863C108.961 64.2113 109.47 64.0004 110 63.9999H122C122.53 64.0004 123.039 64.2113 123.414 64.5863C123.789 64.9612 123.999 65.4696 124 65.9999V97.9999Z" fill="#31708A"/>
<path id="Vector_6" d="M117.938 95.9989C119.043 95.9989 119.938 95.1035 119.938 93.9989C119.938 92.8943 119.043 91.9989 117.938 91.9989C116.833 91.9989 115.938 92.8943 115.938 93.9989C115.938 95.1035 116.833 95.9989 117.938 95.9989Z" fill="#80ABA5"/>
<path id="Vector_7" d="M72.4299 65.4099C75.8722 67.1917 79.7874 67.8467 83.6223 67.2822C87.4571 66.7177 91.0175 64.9623 93.8004 62.2641C96.5832 59.566 98.4478 56.0615 99.1305 52.2459C99.8132 48.4304 99.2795 44.4968 97.6049 41.0011C95.9303 37.5053 93.1995 34.6243 89.7983 32.7651C86.3972 30.9059 82.4977 30.1626 78.6512 30.6402C74.8046 31.1178 71.2053 32.7922 68.3622 35.4268C65.519 38.0613 63.5757 41.5228 62.8069 45.3219L66.9509 45.2359C67.708 42.3954 69.3092 39.8516 71.5429 37.9406C73.7766 36.0296 76.5377 34.8415 79.4611 34.5333C82.3845 34.225 85.3326 34.8111 87.9158 36.2142C90.4989 37.6173 92.5955 39.7712 93.9284 42.3913C95.2612 45.0114 95.7676 47.9742 95.3806 50.8883C94.9935 53.8023 93.7313 56.5303 91.7608 58.7116C89.7902 60.8929 87.2041 62.4249 84.3442 63.1051C81.4844 63.7853 78.4855 63.5815 75.7439 62.5209C74.8491 63.7009 73.7214 64.6845 72.4309 65.4109L72.4299 65.4099Z" fill="#80ABA5"/>
</g>
</svg>
