<svg width="120" height="120" viewBox="0 0 120 120" fill="none" xmlns="http://www.w3.org/2000/svg">
<g id="Group 1494">
<path id="Vector" d="M110 10H107.354L103.858 1.258C103.552 0.498 102.818 0 102 0H66C65.182 0 64.448 0.498 64.142 1.258L60.646 10H10C4.486 10 0 14.486 0 20V96C0 101.514 4.486 106 10 106H48V120H52V106H82C83.106 106 84 105.106 84 104V94C84 90.28 86.552 87.142 90 86.254V104V120H94V106H110C115.514 106 120 101.514 120 96V20C120 14.486 115.514 10 110 10ZM10 14H62C62.818 14 63.552 13.502 63.858 12.742L67.354 4H100.646L104.142 12.742C104.448 13.502 105.182 14 106 14H110C113.308 14 116 16.692 116 20H64C63.182 20 62.448 20.498 62.142 21.258L58.646 30H4V20C4 16.692 6.692 14 10 14ZM116 24V34H72C71.182 34 70.448 34.498 70.142 35.258L66.646 44H4V34H60C60.818 34 61.552 33.502 61.858 32.742L65.354 24H116ZM110 102H94V84C94 82.894 93.106 82 92 82C85.382 82 80 87.382 80 94V102H10C6.692 102 4 99.308 4 96V48H68C68.818 48 69.552 47.502 69.858 46.742L73.354 38H116V96C116 99.308 113.308 102 110 102Z" fill="#80ABA5"/>
<path id="Vector_2" d="M60 54C48.972 54 40 62.972 40 74C40 85.028 48.972 94 60 94C71.028 94 80 85.028 80 74C80 62.972 71.028 54 60 54ZM60 90C51.178 90 44 82.822 44 74C44 65.178 51.178 58 60 58C68.822 58 76 65.178 76 74C76 82.822 68.822 90 60 90Z" fill="#31708A"/>
<path id="Vector_3" d="M57.9999 77.172L53.4139 72.586L50.5859 75.414L56.5859 81.414C56.9759 81.804 57.4879 82 57.9999 82C58.5119 82 59.0239 81.804 59.4139 81.414L71.4139 69.414L68.5859 66.586L57.9999 77.172Z" fill="#80ABA5"/>
<path id="Vector_4" d="M54 20H50V24H54V20Z" fill="#31708A"/>
<path id="Vector_5" d="M46 20H42V24H46V20Z" fill="#31708A"/>
<path id="Vector_6" d="M38 20H34V24H38V20Z" fill="#31708A"/>
<path id="Vector_7" d="M30 20H26V24H30V20Z" fill="#31708A"/>
<path id="Vector_8" d="M22 20H18V24H22V20Z" fill="#31708A"/>
<path id="Vector_9" d="M14 20H10V24H14V20Z" fill="#31708A"/>
</g>
</svg>
