<svg width="176" height="92" viewBox="0 0 176 92" fill="none" xmlns="http://www.w3.org/2000/svg">
<g id="Group">
<path id="Vector" d="M64.5487 25.9394C66.9155 20.2394 69.2964 14.5534 71.6632 8.85338C72.6015 6.59858 73.5399 4.35779 74.4782 2.117C62.7701 6.57057 55.4455 16.7382 53.877 18.9649C54.8573 20.3514 58.0784 24.847 63.2182 29.1045C63.6524 28.0541 64.1006 26.9898 64.5347 25.9394" fill="#676767"/>
<path id="Vector_2" d="M86.1162 0.0162231C84.8697 -0.0257917 83.6513 0.0162231 82.4749 0.114258C80.6822 4.42778 78.8616 8.7413 77.069 13.0548C76.7889 13.713 76.5228 14.3713 76.2427 15.0295C80.2761 12.4806 85.5279 11.4723 90.1356 12.9568C95.1213 14.5673 98.5805 18.5307 101.031 22.9283C102.516 25.5892 103.706 28.4182 104.785 31.2752C111.409 26.5976 115.597 20.8416 116.899 18.9509C114.616 15.6737 103.594 0.590425 86.1162 0.0162231Z" fill="#676767"/>
<path id="Vector_3" d="M96.0601 29.8608C95.0517 27.5639 93.9173 25.3092 92.4748 23.2644C92.2928 22.9983 92.0967 22.7603 91.9146 22.4942C92.6289 23.5025 91.9846 22.6062 91.7886 22.3541C91.4104 21.92 91.0183 21.4998 90.5982 21.1077C90.3881 20.9116 90.164 20.7155 89.9399 20.5195C89.8419 20.4354 89.7299 20.3654 89.6318 20.2674C89.7018 20.3234 89.7579 20.3794 89.7999 20.4214C89.996 20.5755 90.178 20.7575 89.7999 20.4214C89.7579 20.3794 89.7018 20.3514 89.6598 20.3234C89.5758 20.2674 89.4778 20.2114 89.3937 20.1553C89.5758 20.7435 89.6878 21.3738 89.6878 22.032C89.6878 25.4492 86.9429 28.2222 83.5537 28.2222C80.1645 28.2222 77.4195 25.4492 77.4195 22.032C76.9574 22.4661 76.5092 22.9143 76.0891 23.3905C75.865 23.6426 75.6549 23.8947 75.4448 24.1467C75.3748 24.2448 75.3048 24.3428 75.2348 24.4408C74.8286 25.001 74.4365 25.5892 74.0863 26.1915C73.4981 27.1578 72.994 28.1662 72.5318 29.2025C71.8596 30.8271 71.3274 32.5077 70.9072 34.2163C75.1507 36.205 80.0524 37.4934 85.5284 37.3114C90.094 37.1573 94.2114 36.0229 97.8527 34.3563C97.3065 32.8438 96.7183 31.3453 96.1021 29.8608" fill="#676767"/>
<path id="Vector_4" d="M5.02777 63.2486V73.01H0V52.5208H5.02777V61.498H13.2627V52.5208H18.2484V73.01H13.2627V63.2486H5.02777Z" fill="#676767"/>
<path id="Vector_5" d="M39.3682 52.1006L48.9756 73.01H43.8358L41.2729 67.422H33.3181L30.6291 73.01H27.2119L37.1974 52.1006H39.3682ZM34.2704 65.5173H40.4326L37.3935 58.907L34.2704 65.5173Z" fill="#676767"/>
<path id="Vector_6" d="M58.0361 52.5208H65.7388C67.0693 52.5208 68.2317 52.6609 69.2261 52.941C70.2204 53.2211 71.0467 53.5992 71.705 54.1034C72.3632 54.6075 72.8534 55.1958 73.1895 55.882C73.5256 56.5682 73.6937 57.3105 73.6937 58.1228C73.6937 58.711 73.5816 59.2572 73.3575 59.7754C73.1335 60.2936 72.8113 60.7697 72.4052 61.2039C71.9991 61.638 71.5089 62.0302 70.9207 62.3663C70.3465 62.7024 69.7022 62.9825 69.016 63.2066L76.3126 73.01H70.8507L63.9742 63.7528H63.0779V73.01H58.0501V52.5208H58.0361ZM63.0639 61.9461H64.1563C64.7725 61.9461 65.3467 61.8621 65.8649 61.694C66.3831 61.526 66.8452 61.2739 67.2234 60.9658C67.6015 60.6437 67.9096 60.2515 68.1197 59.7894C68.3298 59.3272 68.4418 58.795 68.4418 58.2208C68.4418 57.6746 68.3578 57.1845 68.1897 56.7223C68.0217 56.2741 67.7976 55.882 67.5035 55.5459C67.2094 55.2238 66.8592 54.9577 66.4391 54.7896C66.033 54.6075 65.5848 54.5235 65.0946 54.5235H63.0499V61.9601L63.0639 61.9461Z" fill="#676767"/>
<path id="Vector_7" d="M84.394 52.5208H92.0968C93.4272 52.5208 94.5896 52.6609 95.584 52.941C96.5783 53.2211 97.4046 53.5992 98.0629 54.1034C98.7211 54.6075 99.2113 55.1958 99.5474 55.882C99.8835 56.5682 100.052 57.3105 100.052 58.1228C100.052 58.711 99.9395 59.2572 99.7154 59.7754C99.4914 60.2936 99.1692 60.7697 98.7631 61.2039C98.357 61.638 97.8668 62.0302 97.2786 62.3663C96.7044 62.7024 96.0602 62.9825 95.3739 63.2066L102.67 73.01H97.2086L90.3321 63.7528H89.4358V73.01H84.4081V52.5208H84.394ZM89.4218 61.9461H90.5142C91.1304 61.9461 91.7046 61.8621 92.2228 61.694C92.741 61.526 93.2031 61.2739 93.5813 60.9658C93.9594 60.6437 94.2675 60.2515 94.4776 59.7894C94.6877 59.3272 94.7997 58.795 94.7997 58.2208C94.7997 57.6746 94.7157 57.1845 94.5476 56.7223C94.3796 56.2741 94.1555 55.882 93.8614 55.5459C93.5673 55.2238 93.2172 54.9577 92.797 54.7896C92.3909 54.6075 91.9427 54.5235 91.4525 54.5235H89.4078V61.9601L89.4218 61.9461Z" fill="#676767"/>
<path id="Vector_8" d="M121.031 73.4581C119.378 73.4581 117.837 73.192 116.409 72.6598C114.98 72.1276 113.748 71.3714 112.698 70.419C111.647 69.4527 110.835 68.3183 110.233 66.9878C109.631 65.6574 109.336 64.2149 109.336 62.6323C109.336 61.0497 109.631 59.6632 110.233 58.3608C110.835 57.0583 111.661 55.9519 112.698 55.0276C113.748 54.1033 114.98 53.375 116.409 52.8709C117.837 52.3527 119.378 52.1006 121.031 52.1006C122.683 52.1006 124.224 52.3527 125.652 52.8709C127.081 53.389 128.313 54.1173 129.363 55.0416C130.414 55.9659 131.24 57.0723 131.842 58.3608C132.445 59.6492 132.753 61.0497 132.753 62.5763C132.753 63.6687 132.613 64.691 132.347 65.6574C132.08 66.6237 131.688 67.506 131.184 68.3043C130.68 69.1166 130.078 69.8308 129.377 70.4611C128.677 71.0913 127.879 71.6375 127.011 72.0716C126.142 72.5198 125.204 72.8559 124.196 73.094C123.187 73.3321 122.137 73.4441 121.045 73.4441M121.045 71.7215C122.039 71.7215 122.921 71.4974 123.691 71.0353C124.462 70.5731 125.092 69.9429 125.61 69.1446C126.128 68.3323 126.52 67.38 126.787 66.2736C127.053 65.1672 127.193 63.9488 127.193 62.6323C127.193 61.3158 127.053 60.1394 126.787 59.061C126.52 57.9827 126.128 57.0583 125.61 56.2881C125.092 55.5178 124.462 54.9156 123.691 54.4814C122.921 54.0473 122.053 53.8372 121.045 53.8372C120.036 53.8372 119.154 54.0473 118.384 54.4814C117.613 54.9156 116.983 55.5178 116.465 56.2881C115.947 57.0583 115.569 57.9967 115.303 59.061C115.036 60.1394 114.91 61.3298 114.91 62.6323C114.91 63.9348 115.036 65.1672 115.303 66.2736C115.569 67.38 115.947 68.3463 116.465 69.1446C116.983 69.9569 117.613 70.5871 118.384 71.0353C119.154 71.4974 120.036 71.7215 121.045 71.7215Z" fill="#676767"/>
<path id="Vector_9" d="M145.497 52.5206L150.693 65.7553L155.903 52.2966L161.155 65.6993L166.224 52.5206H169.586L161.533 73.304H159.25L155.048 62.6322L150.931 73.304H148.648L140.427 52.5206H145.497Z" fill="#676767"/>
<path id="Vector_10" d="M39.8581 83.0234C39.4519 82.2952 39.3959 82.1972 39.2139 81.9171C39.592 81.9451 39.7881 81.9591 40.0262 81.9591C40.2642 81.9591 40.4603 81.9591 40.8524 81.9171C41.0345 82.4072 41.9868 84.3539 42.519 85.2922C43.2613 83.9758 43.9335 82.6453 44.2416 81.9171C44.4377 81.9451 44.5497 81.9591 44.7178 81.9591C44.8859 81.9591 44.9979 81.9591 45.208 81.9171C44.6058 82.7854 43.3173 85.0262 42.8552 85.9645C42.8552 86.2306 42.8552 86.3566 42.8552 86.5387C42.8552 87.6591 42.8832 88.6114 42.9532 89.1016C42.5751 89.0736 42.393 89.0596 42.1829 89.0596C41.9728 89.0596 41.8048 89.0596 41.4547 89.1016C41.5247 88.5134 41.5667 87.421 41.5667 86.4547V86.0065C41.4266 85.7824 41.2306 85.4043 40.9365 84.9141C40.7824 84.62 40.6004 84.3119 40.4323 84.0318L39.8721 83.0234H39.8581Z" fill="#676767"/>
<path id="Vector_11" d="M50.2355 86.6507C50.2355 88.2613 49.2692 89.2276 47.6726 89.2276C46.076 89.2276 45.0957 88.2613 45.0957 86.6087C45.0957 84.9561 46.048 83.9898 47.6866 83.9898C49.3252 83.9898 50.2495 84.9421 50.2495 86.6507M46.4122 86.6087C46.4122 88.1073 46.8323 88.8495 47.6726 88.8495C48.5129 88.8495 48.9471 88.0933 48.9471 86.6367C48.9471 85.0962 48.5409 84.3679 47.6726 84.3679C46.8043 84.3679 46.4122 85.1102 46.4122 86.6087Z" fill="#676767"/>
<path id="Vector_12" d="M52.1403 84.1438C52.3504 84.1438 52.4765 84.1438 52.7426 84.1017C52.7005 84.928 52.6725 86.1044 52.6725 86.7067C52.6725 87.4769 52.7145 87.799 52.8406 88.0231C52.9946 88.3172 53.3168 88.4853 53.6949 88.4853C54.1711 88.4853 54.5492 88.1912 54.6892 87.687C54.7733 87.3509 54.7873 87.2529 54.7873 85.8384C54.7873 85.2782 54.7593 84.4799 54.7313 84.0877C55.0534 84.1157 55.1934 84.1298 55.4035 84.1298C55.5996 84.1298 55.7396 84.1298 56.0057 84.0877C55.9497 84.9981 55.9357 85.6423 55.9357 86.6786C55.9357 87.715 55.9637 88.4713 56.0057 89.1015C55.7536 89.0735 55.6276 89.0595 55.4315 89.0595C55.2634 89.0595 55.0954 89.0595 54.7873 89.1015C54.8013 88.8214 54.8153 88.7234 54.8293 88.2332C54.4512 88.8774 53.877 89.2275 53.1487 89.2275C52.6725 89.2275 52.2664 89.0735 51.9583 88.7934C51.6222 88.4713 51.4961 88.0931 51.4961 87.3929C51.4961 87.2388 51.4961 86.9587 51.4961 86.6786C51.4961 86.2165 51.4961 85.9504 51.4961 85.5863C51.4961 85.0121 51.4961 84.6899 51.4541 84.0737C51.7622 84.1017 51.9163 84.1157 52.1403 84.1157" fill="#676767"/>
<path id="Vector_13" d="M60.2354 85.2782C60.0393 85.1661 59.8853 85.1241 59.7032 85.1241C59.2831 85.1241 58.9329 85.3762 58.7509 85.7683C58.6669 86.0064 58.6388 86.3005 58.6388 87.0848C58.6388 87.757 58.6668 88.5833 58.7089 89.1155C58.3587 89.0875 58.2187 89.0735 58.0786 89.0735C57.9106 89.0735 57.7845 89.0735 57.4204 89.1155C57.4904 88.5133 57.5044 87.8131 57.5044 86.6086C57.5044 85.6283 57.4904 85.1101 57.4204 84.1018C57.7425 84.1298 57.8826 84.1438 58.0506 84.1438C58.2187 84.1438 58.3447 84.1438 58.6108 84.1018C58.6108 84.3538 58.5828 84.802 58.5828 85.3202C58.9329 84.4939 59.4791 84.0037 60.0673 84.0037C60.1514 84.0037 60.2214 84.0037 60.3474 84.0457C60.2914 84.2978 60.2774 84.4519 60.2774 84.704C60.2774 84.872 60.2774 84.9841 60.3054 85.2222L60.2074 85.2922L60.2354 85.2782Z" fill="#676767"/>
<path id="Vector_14" d="M65.2774 89.2696C65.2774 90.39 65.3194 91.1463 65.3474 91.8746C65.0393 91.8325 64.8712 91.8185 64.6891 91.8185C64.5071 91.8185 64.353 91.8185 64.0449 91.8746C64.1009 91.1323 64.143 89.3957 64.143 88.3453C64.143 86.3986 64.1149 84.8301 64.0449 84.0878C64.367 84.1018 64.5071 84.1158 64.6891 84.1158C64.8432 84.1158 64.9973 84.1158 65.2914 84.0878C65.2774 84.2979 65.2493 84.7741 65.2493 84.9281C65.5154 84.2979 66.0476 83.9758 66.7899 83.9758C68.1064 83.9758 68.9466 84.9841 68.9466 86.5947C68.9466 88.2053 68.1064 89.1996 66.8039 89.1996C66.0756 89.1996 65.5575 88.8775 65.2633 88.2613V89.2556L65.2774 89.2696ZM65.3194 86.6507C65.3194 87.9392 65.7395 88.6674 66.5098 88.6674C67.2801 88.6674 67.7002 87.9252 67.7002 86.5807C67.7002 85.2362 67.3081 84.578 66.5518 84.578C65.7255 84.578 65.3194 85.2642 65.3194 86.6507Z" fill="#676767"/>
<path id="Vector_15" d="M70.3749 85.3763C70.3749 85.3763 70.3749 85.2642 70.3749 85.2362C70.3749 85.0682 70.3469 84.9421 70.2629 84.648C70.8931 84.1718 71.4393 83.9758 72.1816 83.9758C72.8538 83.9758 73.4 84.1998 73.6941 84.592C73.9182 84.9001 73.9882 85.2082 73.9882 85.9085C73.9882 85.9085 73.9789 86.2026 73.9602 86.7908V87.1549C73.9602 87.9532 73.9602 88.2053 74.0022 88.3593C74.0582 88.5694 74.2123 88.7094 74.4364 88.7094C74.4924 88.7094 74.5344 88.7094 74.6324 88.6814V88.8775C74.3383 89.0596 74.0722 89.1296 73.7501 89.1296C73.26 89.1296 72.9939 88.9335 72.8258 88.4293C72.3776 88.9755 71.9295 89.2136 71.3413 89.2136C70.459 89.2136 69.8848 88.6954 69.8848 87.8831C69.8848 87.3089 70.1649 86.8748 70.669 86.6227C70.7811 86.576 71.2526 86.45 72.0835 86.2446C72.6017 86.1185 72.7838 85.9505 72.7838 85.5723C72.7838 84.9561 72.3496 84.522 71.7194 84.522C71.1872 84.522 70.7391 84.8161 70.487 85.3483H70.3609L70.3749 85.3763ZM71.7474 86.7628C71.3273 86.9308 71.1452 87.2389 71.1452 87.7431C71.1452 88.2893 71.4253 88.6114 71.8735 88.6114C72.3216 88.6114 72.6998 88.3173 72.7838 87.9112C72.8258 87.7011 72.8398 87.463 72.8398 86.7768C72.8398 86.6087 72.8398 86.5527 72.8398 86.4126C72.3356 86.5527 71.9715 86.6787 71.7474 86.7628Z" fill="#676767"/>
<path id="Vector_16" d="M76.9712 82.4913V82.6453C76.9432 82.8974 76.9292 83.1215 76.9011 83.3736C76.9011 83.3736 76.9011 83.7377 76.8731 84.1859L77.9655 84.1578C77.9375 84.3399 77.9375 84.3679 77.9375 84.4239C77.9375 84.48 77.9375 84.508 77.9655 84.676H77.8535H77.4613H77.0412H76.8871V84.8301C76.8871 85.0261 76.8871 85.0402 76.8591 86.4687V87.407C76.8591 88.0372 76.8871 88.2333 76.9712 88.4434C77.0692 88.6674 77.2653 88.7795 77.5594 88.7795C77.7414 88.7795 77.8815 88.7515 78.1196 88.6814L78.0636 89.0316C77.6294 89.1856 77.3213 89.2416 76.9852 89.2416C76.1309 89.2416 75.6687 88.7375 75.6687 87.7991C75.6687 87.6871 75.6687 87.463 75.6687 87.2389C75.6967 86.1886 75.7107 85.3623 75.7107 84.648H75.5847C75.2486 84.648 75.0198 84.6574 74.8984 84.676C74.9264 84.564 74.9264 84.494 74.9264 84.3959C74.9264 84.3119 74.9264 84.2699 74.8984 84.1578L75.7247 84.1859V84.0318C75.7247 83.8917 75.7247 83.7937 75.6967 83.5836C75.6827 83.2055 75.6827 83.1495 75.6687 82.9254C76.0048 82.8414 76.439 82.6593 76.9011 82.4072L76.9712 82.4773V82.4913Z" fill="#676767"/>
<path id="Vector_17" d="M80.3603 82.3372C80.3603 82.7154 80.0382 83.0375 79.646 83.0375C79.2539 83.0375 78.9458 82.7154 78.9458 82.3372C78.9458 81.9311 79.2679 81.623 79.6601 81.623C80.0522 81.623 80.3603 81.9451 80.3603 82.3372ZM79.6881 84.1439C79.8841 84.1439 80.0382 84.1439 80.2903 84.1019C80.2483 84.592 80.2062 85.9085 80.2062 86.6508C80.2062 87.5051 80.2343 88.5414 80.2903 89.1156C80.0242 89.0876 79.8841 89.0736 79.6601 89.0736C79.422 89.0736 79.2679 89.0736 78.9738 89.1156C79.0438 88.3454 79.0718 87.5331 79.0718 86.5107C79.0718 85.4884 79.0438 84.7881 78.9738 84.1019C79.3099 84.1299 79.478 84.1439 79.6881 84.1439Z" fill="#676767"/>
<path id="Vector_18" d="M85.8502 88.1493L85.8222 88.2333C85.7381 88.4434 85.7101 88.5274 85.6821 88.7095C85.0799 89.0876 84.6178 89.2276 83.9735 89.2276C82.433 89.2276 81.4526 88.2193 81.4526 86.6227C81.4526 85.0262 82.363 83.9898 83.8755 83.9898C85.262 83.9898 86.0463 84.8161 86.0463 86.2726C86.0463 86.3286 86.0463 86.4687 86.0323 86.6087C85.5561 86.5807 85.0939 86.5807 84.3657 86.5807C83.8615 86.5807 83.3293 86.5807 82.7551 86.5947C82.7551 86.6647 82.7551 86.7348 82.7551 86.7488C82.7551 87.9392 83.3573 88.6675 84.3377 88.6675C84.8698 88.6675 85.318 88.4714 85.7522 88.0792L85.8642 88.1493H85.8502ZM84.0856 86.1466C84.5057 86.1466 84.5897 86.1466 84.8418 86.1326C84.8138 85.6144 84.7998 85.3903 84.7298 85.1662C84.5897 84.662 84.2956 84.3959 83.8615 84.3959C83.2173 84.3959 82.8111 85.0402 82.7691 86.1466C83.0352 86.1466 83.0912 86.1466 83.8195 86.1466H84.0996H84.0856Z" fill="#676767"/>
<path id="Vector_19" d="M87.8392 84.1439C88.0633 84.1439 88.1893 84.1439 88.4274 84.1018C88.3994 84.3819 88.3994 84.424 88.3854 84.9421C88.8336 84.2979 89.3517 83.9898 90.066 83.9898C91.1024 83.9898 91.7326 84.634 91.7326 85.7124C91.7326 85.8945 91.7326 86.1886 91.7186 86.5247C91.7186 86.8748 91.6906 87.2109 91.6906 87.519C91.6906 88.1073 91.7186 88.6955 91.7466 89.1156C91.4525 89.0876 91.2844 89.0736 91.0743 89.0736C90.8643 89.0736 90.7382 89.0736 90.4721 89.1156C90.5001 88.6675 90.5422 87.393 90.5422 86.7908C90.5422 85.9925 90.5141 85.6284 90.4161 85.3903C90.2621 84.9702 89.9399 84.7461 89.5198 84.7461C89.0576 84.7461 88.6935 85.0262 88.5535 85.4603C88.4554 85.7964 88.4414 86.0625 88.4414 87.351C88.4414 88.0372 88.4414 88.4294 88.4834 89.1156C88.1893 89.0876 88.0633 89.0736 87.8532 89.0736C87.6571 89.0736 87.5171 89.0736 87.209 89.1156C87.279 88.5414 87.307 87.5891 87.307 86.5107C87.307 85.6704 87.279 85.0402 87.209 84.1018C87.5031 84.1299 87.6571 84.1439 87.8672 84.1439" fill="#676767"/>
<path id="Vector_20" d="M94.6733 82.4913V82.6453C94.6453 82.8974 94.6313 83.1215 94.6033 83.3736C94.6033 83.3736 94.6033 83.7377 94.5753 84.1859L95.6677 84.1578C95.6396 84.3399 95.6397 84.3679 95.6397 84.4239C95.6397 84.48 95.6396 84.508 95.6677 84.676H95.5556H95.1635H94.7433H94.5893V84.8301C94.5893 85.0261 94.5893 85.0402 94.5613 86.4687V87.407C94.5613 88.0372 94.5893 88.2333 94.6733 88.4434C94.7713 88.6674 94.9674 88.7795 95.2615 88.7795C95.4436 88.7795 95.5836 88.7515 95.8217 88.6814L95.7657 89.0316C95.3315 89.1856 95.0234 89.2416 94.6873 89.2416C93.833 89.2416 93.3709 88.7375 93.3709 87.7991C93.3709 87.6871 93.3709 87.463 93.3709 87.2389C93.3989 86.1886 93.4129 85.3623 93.4129 84.648H93.2868C92.9507 84.648 92.722 84.6574 92.6006 84.676C92.6286 84.564 92.6286 84.494 92.6286 84.3959C92.6286 84.3119 92.6286 84.2699 92.6006 84.1578L93.4269 84.1859V84.0318C93.4269 83.8917 93.4269 83.7937 93.3989 83.5836C93.3849 83.2055 93.3849 83.1495 93.3709 82.9254C93.707 82.8414 94.1411 82.6593 94.6033 82.4072L94.6733 82.4773V82.4913Z" fill="#676767"/>
<path id="Vector_21" d="M96.8859 87.8552C97.124 88.4574 97.6142 88.8075 98.1604 88.8075C98.7066 88.8075 99.1127 88.4714 99.1127 88.0232C99.1127 87.6311 98.9166 87.449 98.1604 87.1829C97.5161 86.9448 97.25 86.8048 97.026 86.6227C96.7459 86.3846 96.5778 85.9925 96.5778 85.5724C96.5778 84.606 97.3201 83.9898 98.4965 83.9898C99.0987 83.9898 99.5609 84.1018 99.981 84.3399L99.939 84.466C99.897 84.592 99.855 84.7181 99.8129 84.8301C99.7849 84.8861 99.7429 85.0262 99.6729 85.2923H99.5469C99.3928 84.7041 98.9867 84.3679 98.4125 84.3679C97.9223 84.3679 97.5722 84.662 97.5722 85.0962C97.5722 85.3623 97.6982 85.5724 97.9783 85.7264C98.2024 85.8525 98.3284 85.9085 98.9306 86.1045C99.841 86.3987 100.191 86.7768 100.191 87.463C100.191 88.4994 99.2808 89.2276 98.0063 89.2276C97.4881 89.2276 97.068 89.1436 96.5498 88.9195C96.6058 88.7655 96.7039 88.2753 96.7459 87.8552H96.8579H96.8859Z" fill="#676767"/>
<path id="Vector_22" d="M102.825 88.444C102.825 88.8645 102.489 89.2009 102.054 89.2009C101.62 89.2009 101.312 88.8645 101.312 88.444C101.312 88.0235 101.648 87.6871 102.068 87.6871C102.489 87.6871 102.825 88.0235 102.825 88.444Z" fill="#676767"/>
<path id="Vector_23" d="M113.524 82.8135C114.196 83.4297 114.532 84.326 114.532 85.5584C114.532 86.6508 114.196 87.4911 113.496 88.1634C112.768 88.8636 111.787 89.2137 110.597 89.2137C109.407 89.2137 108.384 88.8636 107.67 88.2054C106.984 87.5752 106.662 86.7489 106.662 85.6145C106.662 84.4801 106.998 83.5417 107.712 82.8835C108.454 82.1833 109.435 81.8331 110.597 81.8331C111.759 81.8331 112.838 82.1832 113.538 82.8415M108.566 85.5444C108.566 87.4491 109.295 88.5135 110.611 88.5135C111.927 88.5135 112.628 87.4631 112.628 85.5724C112.628 84.5081 112.474 83.8078 112.096 83.3036C111.759 82.8415 111.227 82.5754 110.597 82.5754C109.309 82.5754 108.566 83.6678 108.566 85.5444Z" fill="#676767"/>
<path id="Vector_24" d="M115.611 86.2586C115.611 85.6984 115.583 84.578 115.541 84.0458C115.919 84.0738 116.115 84.0879 116.367 84.0879C116.577 84.0879 116.717 84.0879 117.319 84.0458C117.235 85.1242 117.193 86.0766 117.193 86.7768C117.193 87.5891 117.207 87.8132 117.305 87.9672C117.417 88.1633 117.599 88.2613 117.851 88.2613C118.159 88.2613 118.384 88.1073 118.482 87.7852C118.538 87.6311 118.552 87.295 118.552 86.7488C118.552 86.6648 118.542 86.3286 118.524 85.7404C118.496 84.6901 118.496 84.6761 118.426 84.0458C118.762 84.0738 118.958 84.0879 119.308 84.0879C119.658 84.0879 119.854 84.0879 120.204 84.0458C120.176 84.508 120.134 85.6144 120.134 86.7208C120.134 87.463 120.162 88.5274 120.204 89.1156C119.896 89.0736 119.742 89.0596 119.42 89.0596C119.084 89.0596 118.874 89.0596 118.496 89.1156C118.51 88.9616 118.51 88.9196 118.524 88.5554C118.229 88.9896 117.795 89.1997 117.193 89.1997C116.703 89.1997 116.297 89.0596 116.017 88.7795C115.723 88.4994 115.583 88.0512 115.583 87.421C115.583 87.253 115.583 87.0849 115.583 86.8468V86.2446L115.611 86.2586Z" fill="#676767"/>
<path id="Vector_25" d="M124.63 85.6563C124.434 85.4882 124.238 85.4042 123.986 85.4042C123.65 85.4042 123.384 85.6143 123.244 85.9924C123.174 86.1885 123.146 86.4686 123.146 86.9587C123.146 87.4909 123.188 88.4713 123.258 89.1015C122.851 89.0595 122.641 89.0455 122.375 89.0455C122.137 89.0455 121.913 89.0455 121.479 89.1015C121.521 88.3592 121.563 87.1128 121.563 86.5666C121.563 85.9644 121.521 84.5219 121.479 84.0317C121.829 84.0597 122.039 84.0737 122.305 84.0737C122.571 84.0737 122.795 84.0737 123.174 84.0317C123.146 84.3398 123.146 84.5359 123.146 84.816V85.0541H123.216C123.51 84.3118 123.86 84.0177 124.434 84.0177C124.574 84.0177 124.672 84.0177 124.882 84.0737C124.798 84.3258 124.742 84.788 124.742 85.2221C124.742 85.3342 124.742 85.3902 124.77 85.5442L124.644 85.6423L124.63 85.6563Z" fill="#676767"/>
<path id="Vector_26" d="M130.009 91.3767C129.555 91.3099 129.296 91.2931 128.955 91.2931C128.615 91.2931 128.388 91.3099 127.951 91.3767C127.983 90.7751 128.064 88.1852 128.064 87.2327C128.064 86.9877 128.059 86.1578 128.048 84.743C127.999 82.4037 127.999 82.3703 127.967 81.9191C128.372 81.9692 128.599 81.9859 128.907 81.9859C129.215 81.9859 129.441 81.9859 129.944 81.9191C129.879 82.3703 129.879 82.4371 129.863 82.5875C130.203 82.0695 130.738 81.8188 131.435 81.8188C133.006 81.8188 134.044 83.1055 134.044 85.0438C134.044 86.8818 133.039 88.0849 131.516 88.0849C130.819 88.0849 130.349 87.8677 129.928 87.3497V88.3356C129.928 89.5052 129.928 89.689 130.009 91.1762V91.3934V91.3767ZM129.83 84.8934C129.83 86.1967 130.268 87.0489 130.965 87.0489C131.662 87.0489 132.083 86.2636 132.083 84.9435C132.083 83.5566 131.678 82.7546 130.981 82.7546C130.252 82.7546 129.814 83.5566 129.814 84.8934" fill="#676767"/>
<path id="Vector_27" d="M134.531 86.2586C134.531 85.6984 134.503 84.578 134.461 84.0458C134.84 84.0738 135.036 84.0879 135.288 84.0879C135.498 84.0879 135.638 84.0879 136.24 84.0458C136.156 85.1242 136.114 86.0766 136.114 86.7768C136.114 87.5891 136.128 87.8132 136.226 87.9672C136.338 88.1633 136.52 88.2613 136.772 88.2613C137.08 88.2613 137.304 88.1073 137.402 87.7852C137.458 87.6311 137.472 87.295 137.472 86.7488C137.472 86.6648 137.463 86.3286 137.444 85.7404C137.416 84.6901 137.416 84.6761 137.346 84.0458C137.683 84.0738 137.879 84.0879 138.229 84.0879C138.579 84.0879 138.775 84.0879 139.125 84.0458C139.097 84.508 139.055 85.6144 139.055 86.7208C139.055 87.463 139.083 88.5274 139.125 89.1156C138.817 89.0736 138.649 89.0596 138.341 89.0596C138.005 89.0596 137.795 89.0596 137.416 89.1156C137.444 88.9616 137.444 88.9196 137.444 88.5554C137.15 88.9896 136.716 89.1997 136.114 89.1997C135.624 89.1997 135.218 89.0596 134.924 88.7795C134.629 88.4994 134.489 88.0512 134.489 87.421C134.489 87.253 134.489 87.0849 134.489 86.8468V86.2446L134.531 86.2586Z" fill="#676767"/>
<path id="Vector_28" d="M143.551 85.6563C143.355 85.4882 143.159 85.4042 142.907 85.4042C142.571 85.4042 142.305 85.6143 142.165 85.9924C142.095 86.1885 142.066 86.4686 142.066 86.9587C142.066 87.4909 142.108 88.4713 142.179 89.1015C141.772 89.0595 141.562 89.0455 141.296 89.0455C141.058 89.0455 140.834 89.0455 140.4 89.1015C140.442 88.3592 140.484 87.1128 140.484 86.5666C140.484 85.9644 140.442 84.5219 140.4 84.0317C140.75 84.0597 140.96 84.0737 141.226 84.0737C141.492 84.0737 141.716 84.0737 142.094 84.0317C142.066 84.3398 142.066 84.5359 142.066 84.816V85.0541H142.137C142.431 84.3118 142.781 84.0177 143.355 84.0177C143.495 84.0177 143.593 84.0177 143.803 84.0737C143.719 84.3258 143.663 84.788 143.663 85.2221C143.663 85.3342 143.663 85.3902 143.691 85.5442L143.565 85.6423L143.551 85.6563Z" fill="#676767"/>
<path id="Vector_29" d="M146.24 91.9726C145.847 91.9166 145.623 91.9026 145.329 91.9026C145.035 91.9026 144.839 91.9166 144.461 91.9726C144.489 91.4684 144.559 89.2977 144.559 88.4994C144.559 88.294 144.554 87.5984 144.545 86.4127C144.503 84.452 144.503 84.424 144.475 84.0458C144.825 84.0878 145.021 84.1018 145.287 84.1018C145.553 84.1018 145.749 84.1018 146.184 84.0458C146.128 84.424 146.128 84.48 146.114 84.606C146.408 84.1719 146.87 83.9618 147.472 83.9618C148.83 83.9618 149.727 85.0402 149.727 86.6647C149.727 88.2053 148.858 89.2136 147.542 89.2136C146.94 89.2136 146.534 89.0316 146.17 88.5974V89.4237C146.17 90.4041 146.17 90.5581 146.24 91.8046V91.9866V91.9726ZM146.086 86.5387C146.086 87.6311 146.464 88.3453 147.066 88.3453C147.668 88.3453 148.032 87.6871 148.032 86.5807C148.032 85.4183 147.682 84.7461 147.08 84.7461C146.45 84.7461 146.072 85.4183 146.072 86.5387" fill="#676767"/>
<path id="Vector_30" d="M155.007 84.55C155.539 85.0261 155.833 85.7404 155.833 86.5807C155.833 87.421 155.581 88.0372 155.063 88.5134C154.573 88.9895 153.97 89.1996 153.116 89.1996C151.421 89.1996 150.413 88.2053 150.413 86.5527C150.413 85.7264 150.735 84.9841 151.281 84.522C151.772 84.1298 152.346 83.9478 153.13 83.9478C153.914 83.9478 154.517 84.1438 155.007 84.55ZM152.094 86.5527C152.094 87.9532 152.43 88.6254 153.13 88.6254C153.83 88.6254 154.152 87.9392 154.152 86.5947C154.152 85.2502 153.816 84.522 153.13 84.522C152.444 84.522 152.094 85.2082 152.094 86.5527Z" fill="#676767"/>
<path id="Vector_31" d="M156.926 87.491C157.122 88.0932 157.57 88.4433 158.172 88.4433C158.649 88.4433 159.013 88.2052 159.013 87.8831C159.013 87.617 158.859 87.505 158.172 87.2529C157.514 87.0008 157.346 86.9168 157.08 86.7347C156.716 86.4546 156.548 86.1045 156.548 85.6283C156.548 84.5779 157.332 83.9337 158.607 83.9337C159.251 83.9337 159.839 84.0598 160.259 84.3118C160.119 84.746 160.063 84.9981 159.979 85.4603L159.783 85.4883C159.629 84.9701 159.139 84.606 158.579 84.606C158.214 84.606 157.976 84.788 157.976 85.0681C157.976 85.3902 158.172 85.5303 158.971 85.8104C159.573 86.0205 159.895 86.1745 160.119 86.3706C160.399 86.6227 160.567 87.0428 160.567 87.449C160.567 88.4853 159.615 89.1996 158.242 89.1996C157.556 89.1996 157.038 89.0735 156.562 88.7934C156.66 88.4853 156.73 87.9811 156.73 87.631V87.491H156.926Z" fill="#676767"/>
<path id="Vector_32" d="M165.888 87.7711C165.734 88.2193 165.72 88.2753 165.608 88.7374C165.048 89.0596 164.516 89.1996 163.872 89.1996C162.261 89.1996 161.225 88.1492 161.225 86.5527C161.225 85.7544 161.463 85.0822 161.939 84.606C162.373 84.1578 162.961 83.9478 163.745 83.9478C165.146 83.9478 166 84.774 166 86.1045C166 86.3006 166 86.4126 165.972 86.7627C165.188 86.7487 164.754 86.7347 164.278 86.7347C163.802 86.7347 163.605 86.7347 162.919 86.7627C162.919 86.8048 162.919 86.8608 162.919 86.8748C162.919 87.7851 163.479 88.3733 164.348 88.3733C164.894 88.3733 165.286 88.1772 165.748 87.6871L165.916 87.7851L165.888 87.7711ZM163.507 86.1325C163.745 86.1325 163.9 86.1325 164.474 86.1185C164.46 85.6003 164.432 85.4323 164.376 85.2222C164.25 84.8161 163.998 84.592 163.675 84.592C163.143 84.592 162.891 85.0822 162.877 86.1185C163.129 86.1325 163.255 86.1325 163.507 86.1325Z" fill="#676767"/>
<path id="Vector_33" d="M168.648 88.2472C168.648 88.7514 168.256 89.1436 167.737 89.1436C167.275 89.1436 166.869 88.7374 166.869 88.2472C166.869 87.7571 167.275 87.3649 167.765 87.3649C168.256 87.3649 168.648 87.7571 168.648 88.2472Z" fill="#676767"/>
<path id="Vector_34" d="M176 54.0332C176 55.2517 175.005 56.26 173.787 56.26C172.569 56.26 171.574 55.2657 171.574 54.0332C171.574 52.8008 172.569 51.8065 173.815 51.8065C175.005 51.8065 175.986 52.8148 175.986 54.0332M171.924 54.0332C171.924 55.0836 172.765 55.9379 173.787 55.9379C174.809 55.9379 175.636 55.0836 175.636 54.0332C175.636 52.9829 174.809 52.1146 173.815 52.1146C172.751 52.1146 171.924 52.9549 171.924 54.0332ZM175.005 55.3217H174.921C174.809 55.3217 174.697 55.3077 174.613 55.3077C174.487 55.3077 174.375 55.3077 174.235 55.3217L174.207 55.2797V55.2517C173.941 54.7615 173.857 54.6074 173.563 54.2013C173.563 54.5094 173.563 54.5654 173.591 54.8875C173.591 55.0696 173.591 55.1676 173.591 55.3217C173.465 55.3077 173.367 55.2937 173.255 55.2937C173.185 55.2937 173.101 55.2937 172.905 55.3077H172.863V55.2657C172.863 55.0696 172.891 54.4114 172.891 54.1453C172.891 53.7111 172.891 53.6691 172.877 53.1929V52.8148V52.7308C173.073 52.7448 173.101 52.7448 173.227 52.7448C173.269 52.7448 173.381 52.7448 173.549 52.7448C173.675 52.7448 173.787 52.7448 173.885 52.7448C174.473 52.7448 174.767 52.9549 174.767 53.417C174.767 53.7531 174.571 53.9912 174.221 54.0893C174.417 54.4254 174.753 54.9156 175.047 55.2797L175.005 55.3357V55.3217ZM173.563 53.9212C173.563 53.9212 173.647 53.9212 173.689 53.9212C173.969 53.9212 174.095 53.7812 174.095 53.473C174.095 53.1789 173.983 53.0529 173.731 53.0529C173.675 53.0529 173.647 53.0529 173.577 53.0529V53.249V53.445V53.8932L173.563 53.9212Z" fill="#676767"/>
<g id="Group_2">
<path id="Vector_35" d="M64.5487 25.9394C66.9155 20.2394 69.2964 14.5534 71.6632 8.85338C72.6015 6.59858 73.5399 4.35779 74.4782 2.117C62.7701 6.57057 55.4455 16.7382 53.877 18.9649C54.8573 20.3514 58.0784 24.847 63.2182 29.1045C63.6524 28.0541 64.1006 26.9898 64.5347 25.9394" fill="#31708A"/>
<path id="Vector_36" d="M85.6704 0.0162231C84.4239 -0.0257917 83.2055 0.0162231 82.0291 0.114258C80.2364 4.42778 78.4158 8.7413 76.6232 13.0548C76.3431 13.713 76.077 14.3713 75.7969 15.0295C79.8303 12.4806 85.0821 11.4723 89.6898 12.9568C94.6755 14.5673 98.1347 18.5307 100.586 22.9283C102.07 25.5892 103.261 28.4182 104.339 31.2752C110.963 26.5976 115.151 20.8416 116.453 18.9509C114.17 15.6737 103.149 0.590425 85.6704 0.0162231Z" fill="#31708A"/>
<path id="Vector_37" d="M96.0601 29.8608C95.0517 27.564 93.9173 25.3092 92.4748 23.2645C92.2928 22.9984 92.0967 22.7603 91.9146 22.4942C92.6289 23.5026 91.9846 22.6063 91.7886 22.3542C91.4104 21.92 91.0183 21.4999 90.5982 21.1077C90.3881 20.9117 90.164 20.7156 89.9399 20.5195C89.8419 20.4355 89.7299 20.3655 89.6318 20.2674C89.7018 20.3235 89.7579 20.3795 89.7999 20.4215C89.996 20.5755 90.178 20.7576 89.7999 20.4215C89.7579 20.3795 89.7018 20.3515 89.6598 20.3235C89.5758 20.2674 89.4778 20.2114 89.3937 20.1554C89.5758 20.7436 89.6878 21.3738 89.6878 22.0321C89.6878 25.4493 86.9429 28.2222 83.5537 28.2222C80.1645 28.2222 77.4195 25.4493 77.4195 22.0321C76.9574 22.4662 76.5092 22.9144 76.0891 23.3905C75.865 23.6426 75.6549 23.8947 75.4448 24.1468C75.3748 24.2448 75.3048 24.3429 75.2348 24.4409C74.8286 25.0011 74.4365 25.5893 74.0863 26.1915C73.4981 27.1579 72.994 28.1662 72.5318 29.2026C71.8596 30.8272 71.3274 32.5078 70.9072 34.2164C75.1507 36.2051 80.0524 37.4935 85.5284 37.3114C90.094 37.1574 94.2114 36.023 97.8527 34.3564C97.3065 32.8439 96.7183 31.3453 96.1021 29.8608" fill="#7BA09B"/>
<path id="Vector_38" d="M5.02777 63.2486V73.01H0V52.5208H5.02777V61.498H13.2627V52.5208H18.2484V73.01H13.2627V63.2486H5.02777Z" fill="#1A2549"/>
<path id="Vector_39" d="M39.3682 52.1006L48.9756 73.01H43.8358L41.2729 67.422H33.3181L30.6291 73.01H27.2119L37.1974 52.1006H39.3682ZM34.2704 65.5173H40.4326L37.3935 58.907L34.2704 65.5173Z" fill="#1A2549"/>
<path id="Vector_40" d="M58.0361 52.5208H65.7388C67.0693 52.5208 68.2317 52.6609 69.2261 52.941C70.2204 53.2211 71.0467 53.5992 71.705 54.1034C72.3632 54.6075 72.8534 55.1958 73.1895 55.882C73.5256 56.5682 73.6937 57.3105 73.6937 58.1228C73.6937 58.711 73.5816 59.2572 73.3575 59.7754C73.1335 60.2936 72.8113 60.7697 72.4052 61.2039C71.9991 61.638 71.5089 62.0302 70.9207 62.3663C70.3465 62.7024 69.7022 62.9825 69.016 63.2066L76.3126 73.01H70.8507L63.9742 63.7528H63.0779V73.01H58.0501V52.5208H58.0361ZM63.0639 61.9461H64.1563C64.7725 61.9461 65.3467 61.8621 65.8649 61.694C66.3831 61.526 66.8452 61.2739 67.2234 60.9658C67.6015 60.6437 67.9096 60.2515 68.1197 59.7894C68.3298 59.3272 68.4418 58.795 68.4418 58.2208C68.4418 57.6746 68.3578 57.1845 68.1897 56.7223C68.0217 56.2741 67.7976 55.882 67.5035 55.5459C67.2094 55.2238 66.8592 54.9577 66.4391 54.7896C66.033 54.6075 65.5848 54.5235 65.0946 54.5235H63.0499V61.9601L63.0639 61.9461Z" fill="#1A2549"/>
<path id="Vector_41" d="M84.394 52.5208H92.0968C93.4272 52.5208 94.5896 52.6609 95.584 52.941C96.5783 53.2211 97.4046 53.5992 98.0629 54.1034C98.7211 54.6075 99.2113 55.1958 99.5474 55.882C99.8835 56.5682 100.052 57.3105 100.052 58.1228C100.052 58.711 99.9395 59.2572 99.7154 59.7754C99.4914 60.2936 99.1692 60.7697 98.7631 61.2039C98.357 61.638 97.8668 62.0302 97.2786 62.3663C96.7044 62.7024 96.0602 62.9825 95.3739 63.2066L102.67 73.01H97.2086L90.3321 63.7528H89.4358V73.01H84.4081V52.5208H84.394ZM89.4218 61.9461H90.5142C91.1304 61.9461 91.7046 61.8621 92.2228 61.694C92.741 61.526 93.2031 61.2739 93.5813 60.9658C93.9594 60.6437 94.2675 60.2515 94.4776 59.7894C94.6877 59.3272 94.7997 58.795 94.7997 58.2208C94.7997 57.6746 94.7157 57.1845 94.5476 56.7223C94.3796 56.2741 94.1555 55.882 93.8614 55.5459C93.5673 55.2238 93.2172 54.9577 92.797 54.7896C92.3909 54.6075 91.9427 54.5235 91.4525 54.5235H89.4078V61.9601L89.4218 61.9461Z" fill="#1A2549"/>
<path id="Vector_42" d="M121.031 73.4581C119.378 73.4581 117.837 73.192 116.409 72.6598C114.98 72.1276 113.748 71.3714 112.698 70.419C111.647 69.4527 110.835 68.3183 110.233 66.9878C109.631 65.6574 109.336 64.2149 109.336 62.6323C109.336 61.0497 109.631 59.6632 110.233 58.3608C110.835 57.0583 111.661 55.9519 112.698 55.0276C113.748 54.1033 114.98 53.375 116.409 52.8709C117.837 52.3527 119.378 52.1006 121.031 52.1006C122.683 52.1006 124.224 52.3527 125.652 52.8709C127.081 53.389 128.313 54.1173 129.363 55.0416C130.414 55.9659 131.24 57.0723 131.842 58.3608C132.445 59.6492 132.753 61.0497 132.753 62.5763C132.753 63.6687 132.613 64.691 132.347 65.6574C132.08 66.6237 131.688 67.506 131.184 68.3043C130.68 69.1166 130.078 69.8308 129.377 70.4611C128.677 71.0913 127.879 71.6375 127.011 72.0716C126.142 72.5198 125.204 72.8559 124.196 73.094C123.187 73.3321 122.137 73.4441 121.045 73.4441M121.045 71.7215C122.039 71.7215 122.921 71.4974 123.691 71.0353C124.462 70.5731 125.092 69.9429 125.61 69.1446C126.128 68.3323 126.52 67.38 126.787 66.2736C127.053 65.1672 127.193 63.9488 127.193 62.6323C127.193 61.3158 127.053 60.1394 126.787 59.061C126.52 57.9827 126.128 57.0583 125.61 56.2881C125.092 55.5178 124.462 54.9156 123.691 54.4814C122.921 54.0473 122.053 53.8372 121.045 53.8372C120.036 53.8372 119.154 54.0473 118.384 54.4814C117.613 54.9156 116.983 55.5178 116.465 56.2881C115.947 57.0583 115.569 57.9967 115.303 59.061C115.036 60.1394 114.91 61.3298 114.91 62.6323C114.91 63.9348 115.036 65.1672 115.303 66.2736C115.569 67.38 115.947 68.3463 116.465 69.1446C116.983 69.9569 117.613 70.5871 118.384 71.0353C119.154 71.4974 120.036 71.7215 121.045 71.7215Z" fill="#1A2549"/>
<path id="Vector_43" d="M145.497 52.5206L150.693 65.7553L155.903 52.2966L161.155 65.6993L166.224 52.5206H169.586L161.533 73.304H159.25L155.048 62.6322L150.931 73.304H148.648L140.427 52.5206H145.497Z" fill="#1A2549"/>
<path id="Vector_44" d="M39.8581 83.0235C39.4519 82.2952 39.3959 82.1972 39.2139 81.9171C39.592 81.9451 39.7881 81.9591 40.0262 81.9591C40.2642 81.9591 40.4603 81.9591 40.8524 81.9171C41.0345 82.4073 41.9868 84.354 42.519 85.2923C43.2613 83.9758 43.9335 82.6454 44.2416 81.9171C44.4377 81.9451 44.5497 81.9591 44.7178 81.9591C44.8859 81.9591 44.9979 81.9591 45.208 81.9171C44.6058 82.7854 43.3173 85.0262 42.8552 85.9645C42.8552 86.2306 42.8552 86.3567 42.8552 86.5387C42.8552 87.6591 42.8832 88.6115 42.9532 89.1016C42.5751 89.0736 42.393 89.0596 42.1829 89.0596C41.9728 89.0596 41.8048 89.0596 41.4547 89.1016C41.5247 88.5134 41.5667 87.4211 41.5667 86.4547V86.0066C41.4266 85.7825 41.2306 85.4043 40.9365 84.9142C40.7824 84.6201 40.6004 84.312 40.4323 84.0319L39.8721 83.0235H39.8581Z" fill="#31708A"/>
<path id="Vector_45" d="M50.2355 86.6507C50.2355 88.2613 49.2692 89.2276 47.6726 89.2276C46.076 89.2276 45.0957 88.2613 45.0957 86.6087C45.0957 84.9561 46.048 83.9898 47.6866 83.9898C49.3252 83.9898 50.2495 84.9421 50.2495 86.6507M46.4122 86.6087C46.4122 88.1073 46.8323 88.8495 47.6726 88.8495C48.5129 88.8495 48.9471 88.0933 48.9471 86.6367C48.9471 85.0962 48.5409 84.3679 47.6726 84.3679C46.8043 84.3679 46.4122 85.1102 46.4122 86.6087Z" fill="#31708A"/>
<path id="Vector_46" d="M52.1403 84.1438C52.3504 84.1438 52.4765 84.1438 52.7426 84.1018C52.7005 84.9281 52.6725 86.1045 52.6725 86.7067C52.6725 87.477 52.7145 87.7991 52.8406 88.0232C52.9946 88.3173 53.3168 88.4853 53.6949 88.4853C54.1711 88.4853 54.5492 88.1912 54.6892 87.6871C54.7733 87.3509 54.7873 87.2529 54.7873 85.8384C54.7873 85.2782 54.7593 84.4799 54.7313 84.0878C55.0534 84.1158 55.1934 84.1298 55.4035 84.1298C55.5996 84.1298 55.7396 84.1298 56.0057 84.0878C55.9497 84.9981 55.9357 85.6423 55.9357 86.6787C55.9357 87.7151 55.9637 88.4713 56.0057 89.1016C55.7536 89.0736 55.6276 89.0596 55.4315 89.0596C55.2634 89.0596 55.0954 89.0595 54.7873 89.1016C54.8013 88.8215 54.8153 88.7234 54.8293 88.2333C54.4512 88.8775 53.877 89.2276 53.1487 89.2276C52.6725 89.2276 52.2664 89.0736 51.9583 88.7935C51.6222 88.4713 51.4961 88.0932 51.4961 87.393C51.4961 87.2389 51.4961 86.9588 51.4961 86.6787C51.4961 86.2165 51.4961 85.9505 51.4961 85.5863C51.4961 85.0121 51.4961 84.69 51.4541 84.0738C51.7622 84.1018 51.9163 84.1158 52.1403 84.1158" fill="#31708A"/>
<path id="Vector_47" d="M60.2354 85.2782C60.0393 85.1661 59.8853 85.1241 59.7032 85.1241C59.2831 85.1241 58.9329 85.3762 58.7509 85.7683C58.6669 86.0064 58.6388 86.3005 58.6388 87.0848C58.6388 87.757 58.6668 88.5833 58.7089 89.1155C58.3587 89.0875 58.2187 89.0735 58.0786 89.0735C57.9106 89.0735 57.7845 89.0735 57.4204 89.1155C57.4904 88.5133 57.5044 87.8131 57.5044 86.6086C57.5044 85.6283 57.4904 85.1101 57.4204 84.1018C57.7425 84.1298 57.8826 84.1438 58.0506 84.1438C58.2187 84.1438 58.3447 84.1438 58.6108 84.1018C58.6108 84.3538 58.5828 84.802 58.5828 85.3202C58.9329 84.4939 59.4791 84.0037 60.0673 84.0037C60.1514 84.0037 60.2214 84.0037 60.3474 84.0457C60.2914 84.2978 60.2774 84.4519 60.2774 84.704C60.2774 84.872 60.2774 84.9841 60.3054 85.2222L60.2074 85.2922L60.2354 85.2782Z" fill="#31708A"/>
<path id="Vector_48" d="M65.2774 89.2696C65.2774 90.39 65.3194 91.1463 65.3474 91.8746C65.0393 91.8325 64.8712 91.8185 64.6891 91.8185C64.5071 91.8185 64.353 91.8185 64.0449 91.8746C64.1009 91.1323 64.143 89.3957 64.143 88.3453C64.143 86.3986 64.1149 84.8301 64.0449 84.0878C64.367 84.1018 64.5071 84.1158 64.6891 84.1158C64.8432 84.1158 64.9973 84.1158 65.2914 84.0878C65.2774 84.2979 65.2493 84.7741 65.2493 84.9281C65.5154 84.2979 66.0476 83.9758 66.7899 83.9758C68.1064 83.9758 68.9466 84.9841 68.9466 86.5947C68.9466 88.2053 68.1064 89.1996 66.8039 89.1996C66.0756 89.1996 65.5575 88.8775 65.2633 88.2613V89.2556L65.2774 89.2696ZM65.3194 86.6507C65.3194 87.9392 65.7395 88.6674 66.5098 88.6674C67.2801 88.6674 67.7002 87.9252 67.7002 86.5807C67.7002 85.2362 67.3081 84.578 66.5518 84.578C65.7255 84.578 65.3194 85.2642 65.3194 86.6507Z" fill="#31708A"/>
<path id="Vector_49" d="M70.3749 85.3763C70.3749 85.3763 70.3749 85.2642 70.3749 85.2362C70.3749 85.0682 70.3469 84.9421 70.2629 84.648C70.8931 84.1718 71.4393 83.9758 72.1816 83.9758C72.8538 83.9758 73.4 84.1998 73.6941 84.592C73.9182 84.9001 73.9882 85.2082 73.9882 85.9085C73.9882 85.9085 73.9789 86.2026 73.9602 86.7908V87.1549C73.9602 87.9532 73.9602 88.2053 74.0022 88.3593C74.0582 88.5694 74.2123 88.7094 74.4364 88.7094C74.4924 88.7094 74.5344 88.7094 74.6324 88.6814V88.8775C74.3383 89.0596 74.0722 89.1296 73.7501 89.1296C73.26 89.1296 72.9939 88.9335 72.8258 88.4293C72.3776 88.9755 71.9295 89.2136 71.3413 89.2136C70.459 89.2136 69.8848 88.6954 69.8848 87.8831C69.8848 87.3089 70.1649 86.8748 70.669 86.6227C70.7811 86.576 71.2526 86.45 72.0835 86.2446C72.6017 86.1185 72.7838 85.9505 72.7838 85.5723C72.7838 84.9561 72.3496 84.522 71.7194 84.522C71.1872 84.522 70.7391 84.8161 70.487 85.3483H70.3609L70.3749 85.3763ZM71.7474 86.7628C71.3273 86.9308 71.1452 87.2389 71.1452 87.7431C71.1452 88.2893 71.4253 88.6114 71.8735 88.6114C72.3216 88.6114 72.6998 88.3173 72.7838 87.9112C72.8258 87.7011 72.8398 87.463 72.8398 86.7768C72.8398 86.6087 72.8398 86.5527 72.8398 86.4126C72.3356 86.5527 71.9715 86.6787 71.7474 86.7628Z" fill="#31708A"/>
<path id="Vector_50" d="M76.9712 82.4913V82.6453C76.9432 82.8974 76.9292 83.1215 76.9011 83.3736C76.9011 83.3736 76.9011 83.7377 76.8731 84.1859L77.9655 84.1578C77.9375 84.3399 77.9375 84.3679 77.9375 84.4239C77.9375 84.48 77.9375 84.508 77.9655 84.676H77.8535H77.4613H77.0412H76.8871V84.8301C76.8871 85.0261 76.8871 85.0402 76.8591 86.4687V87.407C76.8591 88.0372 76.8871 88.2333 76.9712 88.4434C77.0692 88.6674 77.2653 88.7795 77.5594 88.7795C77.7414 88.7795 77.8815 88.7515 78.1196 88.6814L78.0636 89.0316C77.6294 89.1856 77.3213 89.2416 76.9852 89.2416C76.1309 89.2416 75.6687 88.7375 75.6687 87.7991C75.6687 87.6871 75.6687 87.463 75.6687 87.2389C75.6967 86.1886 75.7107 85.3623 75.7107 84.648H75.5847C75.2486 84.648 75.0198 84.6574 74.8984 84.676C74.9264 84.564 74.9264 84.494 74.9264 84.3959C74.9264 84.3119 74.9264 84.2699 74.8984 84.1578L75.7247 84.1859V84.0318C75.7247 83.8917 75.7247 83.7937 75.6967 83.5836C75.6827 83.2055 75.6827 83.1495 75.6687 82.9254C76.0048 82.8414 76.439 82.6593 76.9011 82.4072L76.9712 82.4773V82.4913Z" fill="#31708A"/>
<path id="Vector_51" d="M80.3603 82.3372C80.3603 82.7154 80.0382 83.0375 79.646 83.0375C79.2539 83.0375 78.9458 82.7154 78.9458 82.3372C78.9458 81.9311 79.2679 81.623 79.6601 81.623C80.0522 81.623 80.3603 81.9451 80.3603 82.3372ZM79.6881 84.1439C79.8841 84.1439 80.0382 84.1439 80.2903 84.1019C80.2483 84.592 80.2062 85.9085 80.2062 86.6508C80.2062 87.5051 80.2343 88.5414 80.2903 89.1156C80.0242 89.0876 79.8841 89.0736 79.6601 89.0736C79.422 89.0736 79.2679 89.0736 78.9738 89.1156C79.0438 88.3454 79.0718 87.5331 79.0718 86.5107C79.0718 85.4884 79.0438 84.7881 78.9738 84.1019C79.3099 84.1299 79.478 84.1439 79.6881 84.1439Z" fill="#31708A"/>
<path id="Vector_52" d="M85.8502 88.1493L85.8222 88.2333C85.7381 88.4434 85.7101 88.5274 85.6821 88.7095C85.0799 89.0876 84.6178 89.2276 83.9735 89.2276C82.433 89.2276 81.4526 88.2193 81.4526 86.6227C81.4526 85.0262 82.363 83.9898 83.8755 83.9898C85.262 83.9898 86.0463 84.8161 86.0463 86.2726C86.0463 86.3286 86.0463 86.4687 86.0323 86.6087C85.5561 86.5807 85.0939 86.5807 84.3657 86.5807C83.8615 86.5807 83.3293 86.5807 82.7551 86.5947C82.7551 86.6647 82.7551 86.7348 82.7551 86.7488C82.7551 87.9392 83.3573 88.6675 84.3377 88.6675C84.8698 88.6675 85.318 88.4714 85.7522 88.0792L85.8642 88.1493H85.8502ZM84.0856 86.1466C84.5057 86.1466 84.5897 86.1466 84.8418 86.1326C84.8138 85.6144 84.7998 85.3903 84.7298 85.1662C84.5897 84.662 84.2956 84.3959 83.8615 84.3959C83.2173 84.3959 82.8111 85.0402 82.7691 86.1466C83.0352 86.1466 83.0912 86.1466 83.8195 86.1466H84.0996H84.0856Z" fill="#31708A"/>
<path id="Vector_53" d="M87.8392 84.1439C88.0633 84.1439 88.1893 84.1439 88.4274 84.1018C88.3994 84.3819 88.3994 84.424 88.3854 84.9421C88.8336 84.2979 89.3517 83.9898 90.066 83.9898C91.1024 83.9898 91.7326 84.634 91.7326 85.7124C91.7326 85.8945 91.7326 86.1886 91.7186 86.5247C91.7186 86.8748 91.6906 87.2109 91.6906 87.519C91.6906 88.1073 91.7186 88.6955 91.7466 89.1156C91.4525 89.0876 91.2844 89.0736 91.0743 89.0736C90.8643 89.0736 90.7382 89.0736 90.4721 89.1156C90.5001 88.6675 90.5422 87.393 90.5422 86.7908C90.5422 85.9925 90.5141 85.6284 90.4161 85.3903C90.2621 84.9702 89.9399 84.7461 89.5198 84.7461C89.0576 84.7461 88.6935 85.0262 88.5535 85.4603C88.4554 85.7964 88.4414 86.0625 88.4414 87.351C88.4414 88.0372 88.4414 88.4294 88.4834 89.1156C88.1893 89.0876 88.0633 89.0736 87.8532 89.0736C87.6571 89.0736 87.5171 89.0736 87.209 89.1156C87.279 88.5414 87.307 87.5891 87.307 86.5107C87.307 85.6704 87.279 85.0402 87.209 84.1018C87.5031 84.1299 87.6571 84.1439 87.8672 84.1439" fill="#31708A"/>
<path id="Vector_54" d="M94.6733 82.4913V82.6453C94.6453 82.8974 94.6313 83.1215 94.6033 83.3736C94.6033 83.3736 94.6033 83.7377 94.5753 84.1859L95.6677 84.1578C95.6396 84.3399 95.6397 84.3679 95.6397 84.4239C95.6397 84.48 95.6396 84.508 95.6677 84.676H95.5556H95.1635H94.7433H94.5893V84.8301C94.5893 85.0261 94.5893 85.0402 94.5613 86.4687V87.407C94.5613 88.0372 94.5893 88.2333 94.6733 88.4434C94.7713 88.6674 94.9674 88.7795 95.2615 88.7795C95.4436 88.7795 95.5836 88.7515 95.8217 88.6814L95.7657 89.0316C95.3315 89.1856 95.0234 89.2416 94.6873 89.2416C93.833 89.2416 93.3709 88.7375 93.3709 87.7991C93.3709 87.6871 93.3709 87.463 93.3709 87.2389C93.3989 86.1886 93.4129 85.3623 93.4129 84.648H93.2868C92.9507 84.648 92.722 84.6574 92.6006 84.676C92.6286 84.564 92.6286 84.494 92.6286 84.3959C92.6286 84.3119 92.6286 84.2699 92.6006 84.1578L93.4269 84.1859V84.0318C93.4269 83.8917 93.4269 83.7937 93.3989 83.5836C93.3849 83.2055 93.3849 83.1495 93.3709 82.9254C93.707 82.8414 94.1411 82.6593 94.6033 82.4072L94.6733 82.4773V82.4913Z" fill="#31708A"/>
<path id="Vector_55" d="M96.8859 87.8552C97.124 88.4574 97.6142 88.8075 98.1604 88.8075C98.7066 88.8075 99.1127 88.4714 99.1127 88.0232C99.1127 87.6311 98.9166 87.449 98.1604 87.1829C97.5161 86.9448 97.25 86.8048 97.026 86.6227C96.7459 86.3846 96.5778 85.9925 96.5778 85.5724C96.5778 84.606 97.3201 83.9898 98.4965 83.9898C99.0987 83.9898 99.5609 84.1018 99.981 84.3399L99.939 84.466C99.897 84.592 99.855 84.7181 99.8129 84.8301C99.7849 84.8861 99.7429 85.0262 99.6729 85.2923H99.5469C99.3928 84.7041 98.9867 84.3679 98.4125 84.3679C97.9223 84.3679 97.5722 84.662 97.5722 85.0962C97.5722 85.3623 97.6982 85.5724 97.9783 85.7264C98.2024 85.8525 98.3284 85.9085 98.9306 86.1045C99.841 86.3987 100.191 86.7768 100.191 87.463C100.191 88.4994 99.2808 89.2276 98.0063 89.2276C97.4881 89.2276 97.068 89.1436 96.5498 88.9195C96.6058 88.7655 96.7039 88.2753 96.7459 87.8552H96.8579H96.8859Z" fill="#31708A"/>
<path id="Vector_56" d="M102.825 88.444C102.825 88.8645 102.489 89.2009 102.054 89.2009C101.62 89.2009 101.312 88.8645 101.312 88.444C101.312 88.0235 101.648 87.6871 102.068 87.6871C102.489 87.6871 102.825 88.0235 102.825 88.444Z" fill="#31708A"/>
<path id="Vector_57" d="M113.524 82.8135C114.196 83.4297 114.532 84.326 114.532 85.5584C114.532 86.6508 114.196 87.4911 113.496 88.1634C112.768 88.8636 111.787 89.2137 110.597 89.2137C109.407 89.2137 108.384 88.8636 107.67 88.2054C106.984 87.5752 106.662 86.7489 106.662 85.6145C106.662 84.4801 106.998 83.5417 107.712 82.8835C108.454 82.1833 109.435 81.8331 110.597 81.8331C111.759 81.8331 112.838 82.1832 113.538 82.8415M108.566 85.5444C108.566 87.4491 109.295 88.5135 110.611 88.5135C111.927 88.5135 112.628 87.4631 112.628 85.5724C112.628 84.5081 112.474 83.8078 112.096 83.3036C111.759 82.8415 111.227 82.5754 110.597 82.5754C109.309 82.5754 108.566 83.6678 108.566 85.5444Z" fill="#31708A"/>
<path id="Vector_58" d="M115.611 86.2586C115.611 85.6984 115.583 84.578 115.541 84.0458C115.919 84.0738 116.115 84.0879 116.367 84.0879C116.577 84.0879 116.717 84.0879 117.319 84.0458C117.235 85.1242 117.193 86.0766 117.193 86.7768C117.193 87.5891 117.207 87.8132 117.305 87.9672C117.417 88.1633 117.599 88.2613 117.851 88.2613C118.159 88.2613 118.384 88.1073 118.482 87.7852C118.538 87.6311 118.552 87.295 118.552 86.7488C118.552 86.6648 118.542 86.3286 118.524 85.7404C118.496 84.6901 118.496 84.6761 118.426 84.0458C118.762 84.0738 118.958 84.0879 119.308 84.0879C119.658 84.0879 119.854 84.0879 120.204 84.0458C120.176 84.508 120.134 85.6144 120.134 86.7208C120.134 87.463 120.162 88.5274 120.204 89.1156C119.896 89.0736 119.742 89.0596 119.42 89.0596C119.084 89.0596 118.874 89.0596 118.496 89.1156C118.51 88.9616 118.51 88.9196 118.524 88.5554C118.229 88.9896 117.795 89.1997 117.193 89.1997C116.703 89.1997 116.297 89.0596 116.017 88.7795C115.723 88.4994 115.583 88.0512 115.583 87.421C115.583 87.253 115.583 87.0849 115.583 86.8468V86.2446L115.611 86.2586Z" fill="#31708A"/>
<path id="Vector_59" d="M124.63 85.6563C124.434 85.4883 124.238 85.4043 123.986 85.4043C123.65 85.4043 123.384 85.6143 123.244 85.9925C123.174 86.1885 123.146 86.4686 123.146 86.9588C123.146 87.491 123.188 88.4713 123.258 89.1016C122.851 89.0595 122.641 89.0455 122.375 89.0455C122.137 89.0455 121.913 89.0455 121.479 89.1016C121.521 88.3593 121.563 87.1129 121.563 86.5667C121.563 85.9645 121.521 84.5219 121.479 84.0318C121.829 84.0598 122.039 84.0738 122.305 84.0738C122.571 84.0738 122.795 84.0738 123.174 84.0318C123.146 84.3399 123.146 84.5359 123.146 84.816V85.0541H123.216C123.51 84.3119 123.86 84.0178 124.434 84.0178C124.574 84.0178 124.672 84.0178 124.882 84.0738C124.798 84.3259 124.742 84.788 124.742 85.2222C124.742 85.3342 124.742 85.3902 124.77 85.5443L124.644 85.6423L124.63 85.6563Z" fill="#31708A"/>
<path id="Vector_60" d="M130.009 91.3767C129.555 91.3099 129.296 91.2931 128.955 91.2931C128.615 91.2931 128.388 91.3099 127.951 91.3767C127.983 90.7751 128.064 88.1852 128.064 87.2327C128.064 86.9877 128.059 86.1578 128.048 84.743C127.999 82.4037 127.999 82.3703 127.967 81.9191C128.372 81.9692 128.599 81.9859 128.907 81.9859C129.215 81.9859 129.441 81.9859 129.944 81.9191C129.879 82.3703 129.879 82.4371 129.863 82.5875C130.203 82.0695 130.738 81.8188 131.435 81.8188C133.006 81.8188 134.044 83.1055 134.044 85.0438C134.044 86.8818 133.039 88.0849 131.516 88.0849C130.819 88.0849 130.349 87.8677 129.928 87.3497V88.3356C129.928 89.5052 129.928 89.689 130.009 91.1762V91.3934V91.3767ZM129.83 84.8934C129.83 86.1967 130.268 87.0489 130.965 87.0489C131.662 87.0489 132.083 86.2636 132.083 84.9435C132.083 83.5566 131.678 82.7546 130.981 82.7546C130.252 82.7546 129.814 83.5566 129.814 84.8934" fill="#31708A"/>
<path id="Vector_61" d="M134.531 86.2586C134.531 85.6984 134.503 84.578 134.461 84.0458C134.84 84.0738 135.036 84.0879 135.288 84.0879C135.498 84.0879 135.638 84.0879 136.24 84.0458C136.156 85.1242 136.114 86.0766 136.114 86.7768C136.114 87.5891 136.128 87.8132 136.226 87.9672C136.338 88.1633 136.52 88.2613 136.772 88.2613C137.08 88.2613 137.304 88.1073 137.402 87.7852C137.458 87.6311 137.472 87.295 137.472 86.7488C137.472 86.6648 137.463 86.3286 137.444 85.7404C137.416 84.6901 137.416 84.6761 137.346 84.0458C137.683 84.0738 137.879 84.0879 138.229 84.0879C138.579 84.0879 138.775 84.0879 139.125 84.0458C139.097 84.508 139.055 85.6144 139.055 86.7208C139.055 87.463 139.083 88.5274 139.125 89.1156C138.817 89.0736 138.649 89.0596 138.341 89.0596C138.005 89.0596 137.795 89.0596 137.416 89.1156C137.444 88.9616 137.444 88.9196 137.444 88.5554C137.15 88.9896 136.716 89.1997 136.114 89.1997C135.624 89.1997 135.218 89.0596 134.924 88.7795C134.629 88.4994 134.489 88.0512 134.489 87.421C134.489 87.253 134.489 87.0849 134.489 86.8468V86.2446L134.531 86.2586Z" fill="#31708A"/>
<path id="Vector_62" d="M143.551 85.6563C143.355 85.4883 143.159 85.4043 142.907 85.4043C142.571 85.4043 142.305 85.6143 142.165 85.9925C142.095 86.1885 142.066 86.4686 142.066 86.9588C142.066 87.491 142.108 88.4713 142.179 89.1016C141.772 89.0595 141.562 89.0455 141.296 89.0455C141.058 89.0455 140.834 89.0455 140.4 89.1016C140.442 88.3593 140.484 87.1129 140.484 86.5667C140.484 85.9645 140.442 84.5219 140.4 84.0318C140.75 84.0598 140.96 84.0738 141.226 84.0738C141.492 84.0738 141.716 84.0738 142.094 84.0318C142.066 84.3399 142.066 84.5359 142.066 84.816V85.0541H142.137C142.431 84.3119 142.781 84.0178 143.355 84.0178C143.495 84.0178 143.593 84.0178 143.803 84.0738C143.719 84.3259 143.663 84.788 143.663 85.2222C143.663 85.3342 143.663 85.3902 143.691 85.5443L143.565 85.6423L143.551 85.6563Z" fill="#31708A"/>
<path id="Vector_63" d="M146.24 91.9726C145.847 91.9166 145.623 91.9026 145.329 91.9026C145.035 91.9026 144.839 91.9166 144.461 91.9726C144.489 91.4684 144.559 89.2977 144.559 88.4994C144.559 88.294 144.554 87.5984 144.545 86.4127C144.503 84.452 144.503 84.424 144.475 84.0458C144.825 84.0878 145.021 84.1018 145.287 84.1018C145.553 84.1018 145.749 84.1018 146.184 84.0458C146.128 84.424 146.128 84.48 146.114 84.606C146.408 84.1719 146.87 83.9618 147.472 83.9618C148.83 83.9618 149.727 85.0402 149.727 86.6647C149.727 88.2053 148.858 89.2136 147.542 89.2136C146.94 89.2136 146.534 89.0316 146.17 88.5974V89.4237C146.17 90.4041 146.17 90.5581 146.24 91.8046V91.9866V91.9726ZM146.086 86.5387C146.086 87.6311 146.464 88.3453 147.066 88.3453C147.668 88.3453 148.032 87.6871 148.032 86.5807C148.032 85.4183 147.682 84.7461 147.08 84.7461C146.45 84.7461 146.072 85.4183 146.072 86.5387" fill="#31708A"/>
<path id="Vector_64" d="M155.007 84.55C155.539 85.0262 155.833 85.7404 155.833 86.5807C155.833 87.421 155.581 88.0373 155.063 88.5134C154.573 88.9896 153.97 89.1997 153.116 89.1997C151.421 89.1997 150.413 88.2053 150.413 86.5527C150.413 85.7264 150.735 84.9842 151.281 84.522C151.772 84.1299 152.346 83.9478 153.13 83.9478C153.914 83.9478 154.517 84.1439 155.007 84.55ZM152.094 86.5527C152.094 87.9532 152.43 88.6255 153.13 88.6255C153.83 88.6255 154.152 87.9392 154.152 86.5947C154.152 85.2503 153.816 84.522 153.13 84.522C152.444 84.522 152.094 85.2083 152.094 86.5527Z" fill="#31708A"/>
<path id="Vector_65" d="M156.926 87.491C157.122 88.0932 157.57 88.4434 158.172 88.4434C158.649 88.4434 159.013 88.2053 159.013 87.8832C159.013 87.6171 158.859 87.505 158.172 87.2529C157.514 87.0009 157.346 86.9168 157.08 86.7348C156.716 86.4547 156.548 86.1045 156.548 85.6284C156.548 84.578 157.332 83.9338 158.607 83.9338C159.251 83.9338 159.839 84.0598 160.259 84.3119C160.119 84.7461 160.063 84.9982 159.979 85.4603L159.783 85.4883C159.629 84.9701 159.139 84.606 158.579 84.606C158.214 84.606 157.976 84.7881 157.976 85.0682C157.976 85.3903 158.172 85.5303 158.971 85.8104C159.573 86.0205 159.895 86.1746 160.119 86.3706C160.399 86.6227 160.567 87.0429 160.567 87.449C160.567 88.4854 159.615 89.1996 158.242 89.1996C157.556 89.1996 157.038 89.0736 156.562 88.7935C156.66 88.4854 156.73 87.9812 156.73 87.6311V87.491H156.926Z" fill="#31708A"/>
<path id="Vector_66" d="M165.888 87.7712C165.734 88.2193 165.72 88.2753 165.608 88.7375C165.048 89.0596 164.516 89.1997 163.872 89.1997C162.261 89.1997 161.225 88.1493 161.225 86.5527C161.225 85.7545 161.463 85.0822 161.939 84.606C162.373 84.1579 162.961 83.9478 163.745 83.9478C165.146 83.9478 166 84.7741 166 86.1046C166 86.3006 166 86.4127 165.972 86.7628C165.188 86.7488 164.754 86.7348 164.278 86.7348C163.802 86.7348 163.605 86.7348 162.919 86.7628C162.919 86.8048 162.919 86.8608 162.919 86.8748C162.919 87.7852 163.479 88.3734 164.348 88.3734C164.894 88.3734 165.286 88.1773 165.748 87.6871L165.916 87.7852L165.888 87.7712ZM163.507 86.1326C163.745 86.1326 163.9 86.1326 164.474 86.1186C164.46 85.6004 164.432 85.4323 164.376 85.2223C164.25 84.8161 163.998 84.592 163.675 84.592C163.143 84.592 162.891 85.0822 162.877 86.1186C163.129 86.1326 163.255 86.1326 163.507 86.1326Z" fill="#31708A"/>
<path id="Vector_67" d="M168.648 88.2473C168.648 88.7515 168.256 89.1436 167.737 89.1436C167.275 89.1436 166.869 88.7375 166.869 88.2473C166.869 87.7571 167.275 87.365 167.765 87.365C168.256 87.365 168.648 87.7571 168.648 88.2473Z" fill="#31708A"/>
<path id="Vector_68" d="M176 54.0333C176 55.2517 175.005 56.2601 173.787 56.2601C172.569 56.2601 171.574 55.2657 171.574 54.0333C171.574 52.8009 172.569 51.8065 173.815 51.8065C175.005 51.8065 175.986 52.8149 175.986 54.0333M171.924 54.0333C171.924 55.0837 172.765 55.938 173.787 55.938C174.809 55.938 175.636 55.0837 175.636 54.0333C175.636 52.9829 174.809 52.1146 173.815 52.1146C172.751 52.1146 171.924 52.9549 171.924 54.0333ZM175.005 55.3218H174.921C174.809 55.3218 174.697 55.3078 174.613 55.3078C174.487 55.3078 174.375 55.3078 174.235 55.3218L174.207 55.2797V55.2517C173.941 54.7616 173.857 54.6075 173.563 54.2014C173.563 54.5095 173.563 54.5655 173.591 54.8876C173.591 55.0697 173.591 55.1677 173.591 55.3218C173.465 55.3078 173.367 55.2938 173.255 55.2938C173.185 55.2938 173.101 55.2937 172.905 55.3078H172.863V55.2657C172.863 55.0697 172.891 54.4114 172.891 54.1453C172.891 53.7112 172.891 53.6692 172.877 53.193V52.8149V52.7308C173.073 52.7448 173.101 52.7449 173.227 52.7449C173.269 52.7449 173.381 52.7449 173.549 52.7449C173.675 52.7449 173.787 52.7449 173.885 52.7449C174.473 52.7449 174.767 52.9549 174.767 53.4171C174.767 53.7532 174.571 53.9913 174.221 54.0893C174.417 54.4254 174.753 54.9156 175.047 55.2797L175.005 55.3358V55.3218ZM173.563 53.9213C173.563 53.9213 173.647 53.9213 173.689 53.9213C173.969 53.9213 174.095 53.7812 174.095 53.4731C174.095 53.179 173.983 53.053 173.731 53.053C173.675 53.053 173.647 53.053 173.577 53.053V53.249V53.4451V53.8933L173.563 53.9213Z" fill="#1A2549"/>
</g>
</g>
</svg>
