<svg width="90" height="90" viewBox="0 0 90 90" fill="none" xmlns="http://www.w3.org/2000/svg">
<g id="menu 1" clip-path="url(#clip0_192_652)">
<path id="Vector" d="M45 90C69.8528 90 90 69.8528 90 45C90 20.1472 69.8528 0 45 0C20.1472 0 0 20.1472 0 45C0 69.8528 20.1472 90 45 90Z" fill="#31708A"/>
<path id="Vector_2" fill-rule="evenodd" clip-rule="evenodd" d="M22.9812 22.9814H67.0188C68.449 22.9814 69.6093 24.1417 69.6093 25.5719C69.6093 27.0022 68.449 28.1625 67.0188 28.1625H22.9812C21.5509 28.1625 20.3906 27.0022 20.3906 25.5719C20.3906 24.1417 21.5509 22.9814 22.9812 22.9814ZM22.9812 61.8384H67.0188C68.449 61.8384 69.6093 62.9986 69.6093 64.4289C69.6093 65.8591 68.449 67.0194 67.0188 67.0194H22.9812C21.5509 67.0194 20.3906 65.8591 20.3906 64.4289C20.3906 62.9986 21.5509 61.8384 22.9812 61.8384ZM22.9812 42.4099H67.0188C68.449 42.4099 69.6093 43.5702 69.6093 45.0004C69.6093 46.4306 68.449 47.5909 67.0188 47.5909H22.9812C21.5509 47.5909 20.3906 46.4306 20.3906 45.0004C20.3906 43.5702 21.5509 42.4099 22.9812 42.4099Z" fill="#FFFFFE"/>
</g>
<defs>
<clipPath id="clip0_192_652">
<rect width="90" height="90" fill="white"/>
</clipPath>
</defs>
</svg>
