<?xml version="1.0" encoding="utf-8"?>
<!-- Generator: Adobe Illustrator 27.7.0, SVG Export Plug-In . SVG Version: 6.00 Build 0)  -->
<svg version="1.1" id="Layer_1" xmlns="http://www.w3.org/2000/svg" xmlns:xlink="http://www.w3.org/1999/xlink" x="0px" y="0px"
	 viewBox="0 0 1366 768" style="enable-background:new 0 0 1366 768;" xml:space="preserve">
<style type="text/css">
	.st0{opacity:0.2;fill:#759490;enable-background:new    ;}
	.st1{fill:#FFFFFF;}
	.st2{opacity:0.4;}
	.st3{fill:#37637E;}
	.st4{opacity:0.35;fill:#92BFF8;enable-background:new    ;}
	.st5{fill:#759490;}
	.st6{opacity:0.35;fill:#132959;enable-background:new    ;}
	.st7{fill:#1B2141;}
	.st8{fill:#383D54;}
	.st9{fill:#1A1943;}
	.st10{fill:#2A458A;}
	.st11{fill:none;stroke:#004C59;stroke-width:0.26;stroke-miterlimit:10;}
	.st12{fill:#B7C4C2;}
	.st13{fill:#003B59;}
	.st14{fill:#F6B1C3;}
	.st15{fill:#404654;}
	.st16{fill:#929497;}
	.st17{fill:#F69226;}
	.st18{fill:#FFC51E;}
	.st19{fill:#FBCBA5;}
	.st20{fill:#E75E6E;}
	.st21{fill:#FF4035;}
	.st22{fill:#EF7070;}
	.st23{fill:#D62727;}
	.st24{fill:#F2F2F2;}
	.st25{fill:#DBDBDB;}
	.st26{fill:#2A2A2A;}
	.st27{fill:#FCD51C;}
	.st28{fill:#8E7E7E;}
	.st29{fill:#FFE67B;}
	.st30{fill:#BFBBB6;}
	.st31{fill:#D6D3D0;}
	.st32{fill:#A5A19D;}
	.st33{fill:#FBBA28;}
	.st34{fill:#FFE2A9;}
	.st35{fill:none;stroke:#2A458A;stroke-width:1.02;stroke-miterlimit:10;}
	.st36{fill:none;stroke:#37647E;stroke-width:5;stroke-miterlimit:10;}
</style>
<path class="st0" d="M1121.46,430.11h-9.13c-30.01,0-54.34-25.04-54.34-55.92c0-25.77-20.3-46.67-45.35-46.67H952.6
	c15.04-9.21,25.23-27.01,25.23-47.46c0-29.91-21.8-54.15-48.7-54.15H749.94c-22.96,0-44.9-9.98-59.56-27.61
	c-24.95-30.03-62.64-49.15-104.79-49.15c-42.16,0-79.84,19.13-104.79,49.15c-14.65,17.63-36.59,27.61-59.56,27.61h-55.92
	c-24.16,0-43.75,21.78-43.75,48.65c0,32.2-23.48,58.3-52.43,58.3h-8.8c-29.68,0-53.74,26.76-53.74,59.77
	c0,33.01,24.06,59.77,53.74,59.77c29.68,0,52.43,26.11,52.43,58.3v11.11c0,15.12,6.21,28.64,15.94,37.56h-90.97
	c-27.38,0-49.57,22.13-49.57,49.44s22.19,49.44,49.57,49.44h346.23c1.63,0,3.24-0.08,4.84-0.24h432.96
	c25.04,0,45.35-20.89,45.35-46.67v-10.66c0-30.89,24.33-55.92,54.34-55.92c30.77,0,55.7-25.66,55.7-57.33
	S1152.23,430.1,1121.46,430.11L1121.46,430.11z"/>
<path class="st1" d="M617.77,252.48l9.39-5.67l-2.66-7l-2.66-7l-10.81,1.96c-2.55-3.78-5.66-7.05-9.18-9.74l2.62-10.63l-6.85-3.07
	l-6.85-3.08l-6.24,9.01c-4.35-0.85-8.87-1.01-13.39-0.4l-5.69-9.37l-7.02,2.66l-7.02,2.65l1.97,10.78
	c-3.79,2.54-7.07,5.64-9.76,9.15l-10.66-2.61l-6.16,13.66l9.03,6.23c-0.85,4.34-1.01,8.84-0.41,13.35l-9.39,5.67l2.66,7l2.66,7
	l10.8-1.96c2.55,3.77,5.66,7.05,9.18,9.73l-2.62,10.63l6.85,3.07l6.84,3.07l6.25-9c4.35,0.85,8.86,1.01,13.39,0.4l5.69,9.37
	l7.02-2.65l7.02-2.66l-1.97-10.77c3.78-2.54,7.07-5.64,9.76-9.16l10.66,2.61l3.08-6.83l3.09-6.82l-9.03-6.23
	C618.22,261.49,618.38,256.99,617.77,252.48z M586.58,284.18c-14.54,5.5-30.81-1.81-36.32-16.32c-5.52-14.51,1.81-30.73,16.35-36.22
	c14.55-5.5,30.81,1.8,36.33,16.31C608.45,262.46,601.13,278.68,586.58,284.18z"/>
<g class="st2">
	<g>
		<path class="st3" d="M1089.66,542.36c-2.55-3.78-5.66-7.05-9.18-9.74l2.62-10.63l-6.85-3.07l-6.85-3.07l-6.25,9.01
			c-4.35-0.85-8.86-1.01-13.39-0.4l-5.69-9.37l-7.02,2.65l-7.02,2.65l1.97,10.78c-3.79,2.54-7.07,5.64-9.76,9.16l-10.66-2.61
			l-3.08,6.83l-3.08,6.83l9.03,6.23c-0.85,4.34-1.01,8.85-0.4,13.35l-9.4,5.67l2.66,7l2.66,7l10.81-1.96
			c2.55,3.77,5.66,7.05,9.18,9.73l-2.62,10.63l6.85,3.07l6.85,3.07l6.25-9.01c4.35,0.85,8.86,1.01,13.39,0.4l5.69,9.37l7.02-2.65
			l7.02-2.65l-1.97-10.78c3.79-2.54,7.07-5.64,9.76-9.16l10.66,2.61l3.08-6.83l3.08-6.83l-9.03-6.23c0.85-4.34,1.01-8.85,0.4-13.35
			l9.39-5.67l-2.66-7l-2.66-7L1089.66,542.36L1089.66,542.36z M1063.78,592.31c-13.76,5.2-29.26-2.01-34.61-16.11
			c-5.36-14.1,1.46-29.74,15.22-34.94c13.76-5.2,29.26,2.01,34.61,16.11C1084.35,571.47,1077.53,587.11,1063.78,592.31z"/>
	</g>
</g>
<path class="st4" d="M805.63,141.02c-0.67-0.4-1.4-0.74-2.18-1.01c-0.93-0.32-1.86-0.63-2.77-0.94c-0.34-0.12-0.68-0.23-1.03-0.34
	c-0.55-0.19-1.11-0.37-1.66-0.56c-0.57-0.19-1.13-0.37-1.69-0.56c-0.32-0.11-0.64-0.21-0.95-0.32c-0.7-0.23-1.39-0.45-2.08-0.68
	c-0.16-0.06-0.33-0.11-0.5-0.16c-0.81-0.26-1.61-0.52-2.4-0.77c-0.04-0.01-0.07-0.02-0.11-0.04c-51.05-16.22-75.69-15.2-127.82,4.25
	c-4,1.49-6.58,4.94-6.58,8.74V233c0,17.27,8.22,33.43,21.99,43.27l49.7,31.77c1.66,1.06,3.6,1.58,5.55,1.58
	c1.07,0,2.14-0.17,3.16-0.48c0.84-0.26,1.65-0.63,2.4-1.1l49.7-31.77c13.77-9.84,21.99-26.01,21.99-43.27v-84.14
	C810.36,145.68,808.55,142.76,805.63,141.02L805.63,141.02z"/>
<path class="st5" d="M800.29,129.5c-0.67-0.4-1.4-0.74-2.19-1.01c-0.93-0.32-1.85-0.63-2.77-0.94c-0.34-0.12-0.69-0.23-1.03-0.34
	c-0.55-0.19-1.11-0.37-1.66-0.56c-0.55-0.19-1.1-0.37-1.66-0.55c-0.33-0.11-0.66-0.22-0.98-0.32c-0.72-0.24-1.44-0.47-2.15-0.7
	c-0.14-0.04-0.28-0.09-0.42-0.14c-0.82-0.26-1.62-0.52-2.42-0.78c-0.03-0.01-0.07-0.02-0.1-0.03
	c-51.06-16.22-75.69-15.2-127.83,4.25c-4,1.49-6.58,4.94-6.58,8.74v84.38c0,17.26,8.22,33.43,21.99,43.27l49.7,31.77
	c1.66,1.06,3.6,1.58,5.55,1.58c1.09,0,2.18-0.17,3.22-0.5c0.82-0.26,1.61-0.61,2.34-1.08l49.7-31.77
	c13.77-9.84,21.99-26.01,21.99-43.27v-84.15C805.02,134.17,803.21,131.24,800.29,129.5L800.29,129.5z"/>
<path class="st1" d="M795.88,136.81c-0.16-0.1-0.35-0.19-0.55-0.25c-0.92-0.32-1.84-0.63-2.74-0.93l-2.66-0.89l-1.63-0.54
	c0,0-2.39-0.78-3.08-1.01l-2.9-0.93c-24.43-7.75-40.85-10.92-56.7-10.92c-18.17,0-36.55,4.22-65.54,15.03
	c-0.75,0.28-1,0.69-1.03,0.76v84.38c0,14.44,6.82,27.96,18.25,36.21l49.51,31.64c0.23,0.15,0.58,0.23,0.93,0.23
	c0.2,0,0.41-0.03,0.62-0.1c0.19-0.06,0.29-0.12,0.32-0.14l49.51-31.64c11.43-8.25,18.25-21.77,18.25-36.21v-84.13
	c-0.01-0.06-0.16-0.32-0.58-0.57H795.88z M791.47,221.5c0,12.79-6.01,24.78-16.07,32.1l-47.63,30.44l-47.64-30.44
	c-10.07-7.33-16.07-19.31-16.07-32.1v-81.3c27.11-9.98,44.51-13.89,61.58-13.89c15.29,0,31.28,3.1,55.18,10.68l2.89,0.93
	c0.67,0.22,3.05,1,3.05,1l1.62,0.53c0,0,2.95,0.99,3.11,1.04L791.47,221.5L791.47,221.5z"/>
<path class="st1" d="M757.36,184.16h-6.43c0.19-1.05,0.28-2.12,0.28-3.21v-2.19c0-10.11-8.25-18.33-18.38-18.33h-11.3
	c-10.14,0-18.38,8.23-18.38,18.33v2.19c0,1.1,0.09,2.17,0.28,3.21h-7.14c-3.74,0-6.77,3.02-6.77,6.75v29.43
	c0,16.66,13.54,30.16,30.25,30.16h17.85c15.69,0,28.41-12.68,28.41-28.34v-29.36C766.03,188.04,762.15,184.17,757.36,184.16
	L757.36,184.16z M729.92,213.78v13.67c0,1.19-0.97,2.16-2.16,2.16c-0.59,0-1.13-0.24-1.52-0.63c-0.39-0.39-0.64-0.93-0.64-1.53
	v-13.67c-4.47-0.98-7.82-4.95-7.82-9.71c0-1.8,0.48-3.5,1.32-4.95c1.72-2.99,4.96-5,8.66-5c3.7,0,6.81,1.93,8.56,4.82
	c0.9,1.49,1.42,3.25,1.42,5.12C737.74,208.82,734.39,212.8,729.92,213.78L729.92,213.78z M710.97,184.16
	c-0.32-1.01-0.48-2.09-0.48-3.21v-2.19c0-6.07,4.95-11,11.03-11h11.3c6.09,0,11.04,4.94,11.04,11v2.19c0,1.12-0.17,2.2-0.48,3.21
	H710.97z"/>
<path class="st6" d="M969.51,326.11c25.89,0,46.88-20.93,46.88-46.75s-20.99-46.76-46.88-46.76s-46.88,20.93-46.88,46.76
	S943.62,326.11,969.51,326.11z"/>
<path class="st5" d="M965.61,320.07c25.89,0,46.88-20.93,46.88-46.76s-20.99-46.75-46.88-46.75s-46.88,20.93-46.88,46.75
	S939.72,320.07,965.61,320.07z"/>
<path class="st1" d="M978.43,269.72h-0.21v-8.31c0-3.55-1.44-6.77-3.78-9.1c-2.33-2.33-5.56-3.77-9.12-3.77
	c-7.12,0-12.9,5.76-12.9,12.86v8.33c-2.45,0.2-4.38,2.25-4.38,4.74v18.84c0,2.63,2.14,4.76,4.77,4.76h25.62
	c2.64,0,4.78-2.14,4.78-4.76v-18.84C983.2,271.85,981.06,269.72,978.43,269.72z M966.62,286.72v3.26c0,0.72-0.59,1.3-1.31,1.3
	c-0.73,0-1.31-0.58-1.31-1.3v-3.26c-2.19-0.58-3.79-2.56-3.79-4.92c0-2.81,2.28-5.08,5.1-5.08c2.81,0,5.1,2.28,5.1,5.08
	C970.41,284.17,968.8,286.15,966.62,286.72z M975.57,269.72h-20.51v-8.31c0-5.64,4.6-10.23,10.25-10.23s10.25,4.59,10.25,10.23
	V269.72z M965.31,279.36c-1.36,0-2.46,1.1-2.46,2.45s1.1,2.45,2.46,2.45s2.46-1.1,2.46-2.45S966.67,279.36,965.31,279.36z"/>
<path class="st6" d="M1048.35,381.72h113.02c5.02,0,9.08,4.05,9.08,9.06v58.51c0,5-4.07,9.06-9.08,9.06h-83.02
	c0,0-0.06,0.03-0.06,0.06c-1.62,13.94-13.5,24.77-27.92,24.77c-1.03,0-2.04-0.06-3.05-0.16c2.14-1.52,4.79-3.99,6.53-7.75
	c0.56-1.21,1.85-4.33,1.75-8.45c-0.04-1.76-0.33-3.4-0.76-4.87c-0.62-2.13-2.59-3.58-4.81-3.58h-1.69c-5.02,0-9.08-4.05-9.08-9.06
	v-58.5C1039.26,385.78,1043.33,381.73,1048.35,381.72L1048.35,381.72z"/>
<path class="st7" d="M1043.38,376.04h113.02c5.02,0,9.08,4.05,9.08,9.06v58.51c0,5-4.07,9.06-9.08,9.06h-83.02
	c0,0-0.06,0.02-0.06,0.06c-1.62,13.94-13.5,24.76-27.92,24.76c-1.03,0-2.04-0.06-3.05-0.16c2.14-1.52,4.79-3.99,6.53-7.75
	c0.56-1.21,1.85-4.33,1.75-8.46c-0.04-1.76-0.33-3.4-0.76-4.87c-0.62-2.13-2.59-3.58-4.81-3.58h-1.69c-5.02,0-9.08-4.05-9.08-9.06
	v-58.5C1034.29,380.1,1038.36,376.04,1043.38,376.04L1043.38,376.04z"/>
<path class="st1" d="M1152.91,390.45h-106.04v4.54h106.04V390.45z"/>
<path class="st1" d="M1152.91,401.41h-106.04v4.54h106.04V401.41z"/>
<path class="st1" d="M1126.66,412.38h-79.79v4.54h79.79V412.38z"/>
<path class="st1" d="M1115.04,423.34h-68.16v4.54h68.16V423.34z"/>
<path class="st6" d="M415.63,226.69H305.07c-4.91,0-8.88,3.97-8.88,8.86v57.23c0,4.89,3.98,8.86,8.88,8.86h81.21
	c0,0,0.06,0.02,0.06,0.05c1.58,13.64,13.2,24.23,27.3,24.23c1.01,0,2-0.06,2.98-0.15c-2.1-1.48-4.69-3.9-6.39-7.58
	c-0.55-1.19-1.81-4.23-1.71-8.27c0.04-1.73,0.32-3.32,0.75-4.77c0.61-2.08,2.53-3.51,4.71-3.51h1.66c4.9,0,8.88-3.97,8.88-8.86
	v-57.23C424.52,230.66,420.54,226.69,415.63,226.69z"/>
<path class="st5" d="M410.86,220.43H300.3c-4.91,0-8.88,3.97-8.88,8.86v57.23c0,4.89,3.98,8.86,8.88,8.86h81.21
	c0,0,0.06,0.02,0.06,0.05c1.58,13.64,13.2,24.23,27.3,24.23c1.01,0,2-0.06,2.98-0.15c-2.1-1.48-4.69-3.9-6.39-7.58
	c-0.55-1.19-1.81-4.23-1.71-8.27c0.04-1.73,0.32-3.32,0.75-4.77c0.61-2.08,2.53-3.51,4.71-3.51h1.66c4.91,0,8.88-3.97,8.88-8.86
	V229.3C419.75,224.41,415.78,220.43,410.86,220.43z"/>
<path class="st1" d="M315.96,257.91c0,8.39,6.82,15.18,15.22,15.18c7.32,0,13.43-5.15,14.89-12.01h29.38v7.24h6.33v-4.48h2.93v4.48
	h6.33v-7.24h4.15v-6.35h-49.13c-1.46-6.86-7.58-12.01-14.89-12.01c-8.4,0-15.22,6.8-15.22,15.18L315.96,257.91z M320.91,257.91
	c0-5.65,4.61-10.24,10.27-10.24c5.67,0,10.27,4.6,10.27,10.24c0,5.65-4.61,10.24-10.27,10.24
	C325.52,268.15,320.91,263.56,320.91,257.91z"/>
<path class="st8" d="M877.42,533.24l-3.52,31.82c-1.28,11.52-11.03,20.23-22.65,20.23h-396.6c-13.58,0-24.14-11.76-22.65-25.22
	l2.96-26.83H877.42z"/>
<path class="st8" d="M880.47,275.64h-396.6c-11.62,0-21.38,8.72-22.65,20.23l-26.25,237.37h442.46l25.69-232.4
	C904.6,287.4,894.04,275.63,880.47,275.64L880.47,275.64z M890.5,299.46l-24.45,221.12H449.14l24.7-223.33
	c0.57-5.1,4.88-8.96,10.03-8.96h396.6c2.91,0,5.57,1.19,7.51,3.35C889.92,293.8,890.81,296.58,890.5,299.46L890.5,299.46z"/>
<path class="st7" d="M918.04,309.57l-29.21,264.21c-1.72,15.53-14.82,27.24-30.49,27.24H461.74c-8.71,0-17.03-3.71-22.85-10.18
	c-5.81-6.47-8.59-15.13-7.64-23.76l0.66-5.99c-0.87,13.03,9.5,24.21,22.74,24.21h396.6c11.62,0,21.38-8.72,22.65-20.23l3.52-31.82
	l25.69-232.4c1.49-13.45-9.08-25.22-22.65-25.22h7.08c8.71,0,17.03,3.71,22.85,10.17C916.21,292.27,918.99,300.94,918.04,309.57
	L918.04,309.57z"/>
<path class="st3" d="M890.5,299.46l-24.45,221.11H449.14l24.7-223.32c0.57-5.1,4.88-8.96,10.03-8.96h396.6
	c2.91,0,5.57,1.18,7.51,3.35C889.92,293.8,890.81,296.57,890.5,299.46L890.5,299.46z"/>
<path class="st8" d="M720.72,645.43h-76.99l-17.08-44.42h76.99L720.72,645.43z"/>
<path class="st7" d="M734.34,649.98c0,4.57-3.72,8.28-8.29,8.28H610.58c0-7.08,5.76-12.82,12.86-12.82h97.29l-17.08-44.42h13.62
	l15.45,40.17c0.54,1.4,0.95,2.85,1.22,4.32C734.21,646.98,734.34,648.48,734.34,649.98z"/>
<path class="st8" d="M623.44,645.43c-7.1,0-12.86,5.74-12.86,12.82H533.6c0-7.08,5.75-12.82,12.85-12.82H623.44L623.44,645.43z"/>
<g class="st2">
	<g>
		<path class="st3" d="M301.52,556.16c-2.55-3.77-5.66-7.05-9.18-9.73l2.62-10.64l-6.85-3.07l-6.85-3.07l-6.25,9.01
			c-4.35-0.85-8.86-1.01-13.39-0.4l-5.69-9.37l-7.02,2.65l-7.02,2.65l1.97,10.78c-3.79,2.54-7.07,5.64-9.76,9.16l-10.66-2.61
			l-3.08,6.83l-3.08,6.83l9.03,6.23c-0.85,4.34-1.01,8.85-0.4,13.35l-9.39,5.67l2.66,7l2.66,7l10.81-1.96
			c2.55,3.78,5.66,7.05,9.18,9.73l-2.62,10.63l6.85,3.07l6.85,3.07l6.25-9.01c4.35,0.85,8.86,1.01,13.39,0.4l5.69,9.37l7.02-2.65
			l7.02-2.65l-1.97-10.78c3.79-2.54,7.07-5.64,9.76-9.16l10.67,2.61l3.08-6.83l3.08-6.83l-9.03-6.23c0.85-4.34,1.01-8.85,0.4-13.35
			l9.39-5.67l-2.66-7l-2.66-7L301.52,556.16L301.52,556.16z M277.06,605.58c-14.55,5.5-30.81-1.81-36.32-16.32
			c-5.52-14.51,1.81-30.72,16.35-36.22c14.55-5.5,30.81,1.81,36.32,16.32C298.93,583.86,291.6,600.08,277.06,605.58z"/>
	</g>
</g>
<path class="st9" d="M1008.53,656.25c-0.19,1.01-0.94,1.72-1.97,1.81c-0.1,0.01-0.21,0.02-0.32,0.02c-1.76,0.11-3.54-0.06-5.31-0.09
	c-1.87-0.02-3.74-0.03-5.6-0.02c-2.23,0.01-4.45,0.03-6.68,0.06c-1.07,0.01-2.15,0-3.22,0.01c-1.36,0.03-2.74,0.17-3.95-0.59
	c-0.47-0.29-0.86-0.7-1.12-1.16c-1.46-2.6,1.42-4.51,3.51-5.35c1.92-0.77,3.96-1.04,5.85-1.99c1.8-0.91,3.45-2.16,4.81-3.62
	c0.78-0.84,1.79-2.1,2.72-3.82c2.97,0.1,5.95,0.2,8.93,0.29c0.42,2.78,1,4.99,1.49,6.61c0.29,0.95,0.49,1.93,0.65,2.91
	C1008.53,652.9,1008.83,654.65,1008.53,656.25z"/>
<path class="st9" d="M938.74,657.23c-0.63,0.74-1.67,0.96-2.63,0.96c-2.6,0.01-5.21-0.06-7.81-0.06c-4.04,0.01-8.07,0.01-12.11,0.02
	c-3.37,0-7.74,0.74-10.54-1.61c-0.47-0.38-0.97-1-1.03-1.63c-0.03-0.24,0.01-0.47,0.12-0.71c1.01-1.98,4.3-2.57,6.26-2.97
	c2.37-0.48,4.81-0.75,7.1-1.6c1.98-0.74,3.35-1.6,4.7-2.45c2.21-1.39,3.32-2.09,4.21-3.43c0.27-0.41,0.5-0.83,0.67-1.24
	c3.06-0.11,6.12-0.23,9.18-0.35c0.78,4.14,1.57,8.28,2.35,12.43c0.17,0.89,0.15,1.89-0.47,2.61L938.74,657.23z"/>
<path class="st1" d="M989.6,505.31c-0.09,0.03-0.17,0.04-0.24,0.07c0.04-0.04,0.09-0.08,0.12-0.12L989.6,505.31L989.6,505.31z"/>
<path class="st10" d="M972.41,513.11l-0.49-0.18c0.22-0.08,0.38-0.17,0.49-0.24C972.41,512.71,972.38,512.88,972.41,513.11z"/>
<path class="st10" d="M975.93,514.43l-1.2-0.45c0.4-0.34,0.53-0.83,0.54-0.86C975.26,513.67,975.51,514.17,975.93,514.43z"/>
<path class="st10" d="M976.35,514.58c-0.12-0.02-0.25-0.06-0.37-0.13c-0.02-0.01-0.03-0.02-0.04-0.02L976.35,514.58z"/>
<path class="st11" d="M1005,452.13c1.74-2.35,3.45-4.07,4.66-5.17"/>
<path class="st11" d="M986.21,415.14c-0.57,2.88-0.37,5.12-0.13,6.51c0.57,3.35,2.07,6.02,4.1,9.08"/>
<path class="st12" d="M1013.5,425.53l-16.02,15.22c-0.83-1.07-1.58-2.03-3.18-4.19c-0.98-1.32-1.61-2.18-2.07-2.81
	c-0.19-0.26-0.35-0.49-0.49-0.7c-0.55-0.8-1.07-1.56-1.57-2.3c-1.05,4.55-1.84,9.78-2.05,15.6c-0.17,4.79,0.11,8.85,0.65,13.27
	c0.32,2.58,0.72,5.29,1.17,8.33c0.35,2.34,0.76,4.86,1.26,7.54c-1.61,2.74-3.52,5.97-5.76,9.72c-0.3,0.51-0.61,1.03-0.93,1.56
	c-0.01,0.02-0.03,0.05-0.04,0.07c0.15,0.02,0.3,0.05,0.46,0.08c0.29,0.05,0.6,0.11,0.92,0.19c-0.03,0.04-0.06,0.08-0.09,0.12
	c-0.14,0.17-0.28,0.35-0.42,0.52L932.36,468c0-0.16,0-0.33,0-0.49c-0.03-4.63-0.08-10.08-0.15-17.38c-0.02-2.01-0.04-4.15-0.06-6.45
	c-0.04-3.91-0.08-7.82-0.13-11.72c-2.7,3.46-5.2,6.17-7.24,8.21c-2.2,2.2-4.1,3.85-7.89,7.15c-0.55,0.48-1.06,0.92-1.53,1.32
	c-2.69,2.3-4.03,3.29-5.35,4.18c-2.09,1.41-3.24,1.96-6.04,3.54c-1.89,1.07-4.45,2.55-7.49,4.46l-14.32-5.34
	c6.01-4.92,10.25-8.24,13.39-10.63c0.81-0.62,1.59-1.23,2.32-1.83c2.84-2.32,5.05-4.44,7.19-6.25c0.47-0.4,1.38-1.17,2.35-2.38
	c0.43-0.53,0.8-1.06,1.11-1.58c1.13-1.82,1.63-3.45,2-4.52c0.43-1.22,2.36-4.33,6.21-10.55c2.42-3.9,3.64-5.86,5.31-8.24
	c1.05-1.5,3.25-4.55,6.38-8.21c0.08-0.09,0.16-0.18,0.23-0.27c1.03-1.21,1.98-2.49,2.79-3.86c1-1.67,2.49-3.52,4.65-4.81
	c2.33-1.38,3.47-0.92,8.71-2.44c2.02-0.58,3.77-1.21,5.2-1.77c0.52,0.16,1.1,0.28,1.73,0.32c0.11,0.01,0.22,0.01,0.32,0.01
	c1.89,1.12,4.98,2.56,8.69,2.89c1.97,0.17,4.13,0.03,6.37-0.64c4.08-1.23,6.79-3.71,8.26-5.38c0.64,0.21,1.26,0.42,1.9,0.63
	c1.39,0.46,2.65,0.85,3.8,1.19c11.34,3.95,16.54,12.23,16.54,12.23c0.39,0.43,0.81,0.92,1.28,1.5c1.79,2.14,2.78,3.33,4.41,5.71
	c0.76,1.11,2.85,4.19,5.37,8.9c2.08,3.86,3.39,6.83,4.8,10.03L1013.5,425.53z"/>
<path class="st11" d="M935.45,427.26c-1.16,1.69-2.32,3.25-3.43,4.68"/>
<path class="st13" d="M989.48,505.27l0.12,0.04c-0.09,0.03-0.17,0.04-0.24,0.07C989.4,505.34,989.44,505.3,989.48,505.27
	L989.48,505.27z"/>
<path class="st13" d="M972.41,513.11l-0.49-0.18c0.22-0.08,0.38-0.17,0.49-0.24C972.41,512.71,972.38,512.88,972.41,513.11z"/>
<path class="st13" d="M975.93,514.43l-1.2-0.45c0.4-0.34,0.53-0.83,0.54-0.86C975.26,513.67,975.51,514.17,975.93,514.43z"/>
<path class="st13" d="M996.58,491.93c-0.18,0.32-0.33,0.6-0.45,0.81c-0.4-0.4-0.88-0.84-1.44-1.31c-0.16-0.13-0.32-0.26-0.49-0.39
	L996.58,491.93L996.58,491.93z"/>
<path class="st14" d="M976.35,514.58c-0.12-0.02-0.25-0.06-0.37-0.13c-0.02-0.01-0.03-0.02-0.04-0.02L976.35,514.58z"/>
<path class="st15" d="M1007.78,641.85c-0.54-0.03-1.08-0.04-1.62-0.06c-2.98-0.09-5.95-0.19-8.93-0.29
	c-0.66-0.02-1.33-0.04-1.99-0.06c-3.2-15.06-5.42-27.45-6.87-36.09c-3.06-18.23-2.81-20.47-5.26-29.64
	c-3.11-11.63-5.48-15.37-10.51-31.65c-2.76-8.91-4.67-16.31-5.86-21.16c-5.35,11.42-8.25,21.3-9.91,28.42
	c-2.42,10.34-3.41,19.89-3.84,24.19c-0.96,9.54-0.47,11.09-1.61,18.95c-1,6.84-2.1,10.7-4.65,20.77c-1.6,6.33-3.86,15.48-6.48,26.82
	c-1.13,0.04-2.26,0.08-3.39,0.12c-3.06,0.12-6.11,0.24-9.18,0.35c-1.06,0.04-2.13,0.09-3.19,0.12c3.09-26.04,4.21-46.93,4.65-61.29
	c0.39-12.62,0.32-22.3,1.61-37.7c0.99-11.73,2.37-21.95,3.69-30.15c0.76-4.71,1.03-9.49,0.83-14.26l0.12,0.04l26.4,9.84l7,2.61
	c0.04,0.25,0.13,0.5,0.29,0.7c0.47,0.62,1.28,0.65,1.69,0.66c0.46,0.02,0.86-0.08,1.16-0.19l0.48,0.18c0.03,0.26,0.14,0.6,0.44,0.88
	c0.56,0.5,1.28,0.3,1.38,0.27c0.21-0.06,0.38-0.16,0.52-0.28l1.2,0.45c0,0,0.03,0.02,0.04,0.03c0.12,0.07,0.25,0.1,0.37,0.13
	l20.71,7.72c0.85,6.69,1.87,13.36,2.84,19.95c3.12,21.38,5.04,29.74,7.27,49.6c1.36,12,1.8,19.25,1.82,27.01
	c0.03,9.4-0.59,17.28-1.21,22.98L1007.78,641.85z"/>
<path class="st16" d="M917.57,471.82l-3.58,9.55l-27.4-10.26l-14.28-5.34L827.46,449l-11.61,5.48c-1.94,0.92-4.25,0.63-5.91-0.72
	l-15.05-12.26c-1.62-1.32-2.22-3.53-1.48-5.48l1.69-4.52l1.69-4.53c0.73-1.96,2.63-3.23,4.72-3.16l19.43,0.59
	c2.15,0.07,4.07,1.36,4.94,3.33l5.16,11.73l48.08,17.99l4.33,1.62l4.28,1.6l5.64,2.11l24.21,9.06V471.82z"/>
<path class="st17" d="M926.17,459.47c0.35,0.05,0.71,0.13,1.06,0.26c2.49,0.93,3.75,3.69,2.82,6.17l-0.24,0.64l-10.09,26.92
	l-0.21,0.53c-0.8,2.14-2.96,3.36-5.13,3.08c-0.35-0.05-0.71-0.13-1.06-0.26c-2.49-0.92-3.75-3.69-2.82-6.17l3.48-9.27l3.58-9.55
	l3.47-9.27C921.84,460.41,924,459.18,926.17,459.47L926.17,459.47z"/>
<path class="st18" d="M929.82,466.55l76.22,28.15c6.41,2.39,10.1,8.84,9.24,15.32c-0.14,1.06-0.4,2.12-0.79,3.17
	c-2.79,7.43-11.09,11.21-18.55,8.43l-76.22-28.15L929.82,466.55L929.82,466.55z"/>
<path class="st19" d="M888.24,465.11c-0.09,1.57-0.22,3.91-1.66,6.01c-0.19,0.29-0.42,0.57-0.67,0.84
	c-0.07,0.07-0.14,0.15-0.21,0.22c-0.5,0.51-1.11,0.89-1.76,1.11c-0.82,0.28-1.72,0.32-2.59,0.11c-1.8-0.44-3.29-0.96-4.42-1.4
	c-3.73-1.46-4.62-2.58-4.89-3.15c-0.04-0.09-0.07-0.17-0.09-0.24c-0.32-1.04,0.01-2.04,0.36-2.84c0.06-0.13,0.11-0.25,0.16-0.37
	c0.93-2.1,2.64-3.18,4.12-4.12c1.2-0.75,2.75-1.73,5.02-2.05c0.48-0.07,1.13-0.16,1.83-0.19c1.39-0.06,3,0.14,4.01,1.26
	c0.1,0.11,0.19,0.22,0.26,0.34c0.7,1.04,0.62,2.39,0.51,4.46L888.24,465.11z"/>
<path class="st9" d="M943.34,352.43c0.44,0.88,1.03,1.52,1.56,1.97c0.12-0.14,0.27-0.28,0.4-0.42c1.05-1.01,2.05-1.48,2.92-1.91
	c1.21-0.58,5.8-2.78,9.19-0.83c1.51,0.87,2.13,2.19,3.23,4.52c1.47,3.15,2.07,6.17,2.27,8.62c0.18-0.5,1.05-2.78,3.4-3.75
	c0.42-0.17,2.52-1.03,4,0c1.08,0.76,1.27,2.13,1.5,3.93c0.28,2.25,0.01,3.98-0.06,4.52c-0.22,1.66-0.21,3.98,0.75,7.03
	c0.09-1.72,0.4-3.05,0.8-6.2c0.52-3.99,0.69-6.82,0.9-10.29c0.32-5.41,0.47-8.16-0.24-9.82c-1.87-4.38-6.3-6.26-7.4-6.72
	c-2.86-1.21-5.26-1.16-9.24-1.07c-4.76,0.11-7.6,1.09-8.23,1.31c-2.72,0.97-5.08,1.81-6.03,4.1c-0.98,2.38,0.19,4.79,0.3,5H943.34z"
	/>
<path class="st19" d="M975.39,385.34c-1.47,1.67-4.17,4.15-8.26,5.38c-2.24,0.68-4.4,0.82-6.37,0.65c0.75-1.28,1.49-2.79,2.11-4.53
	c0.31-0.88,0.59-1.82,0.82-2.81c0.26-0.77,0.47-1.58,0.64-2.45c0.26-1.37,0.36-2.64,0.36-3.76c-0.13,0.26-0.26,0.51-0.39,0.75
	c-0.15,0.28-0.3,0.55-0.46,0.81c-1.41,2.38-2.96,3.99-4.03,4.98c-1.76,1.61-3.69,3.39-6.11,3.94c-0.07,0.02-0.14,0.03-0.22,0.04
	c-0.45,0.09-0.91,0.13-1.41,0.12c-0.11,0-0.21,0-0.32-0.01c-0.63-0.04-1.21-0.16-1.73-0.32c-1.43-0.44-2.41-1.2-2.74-1.46
	c-2.34-1.87-2.94-4.47-3.93-9.1c-0.57-2.66-0.74-4.67-1.08-8.69c-0.29-3.43-0.42-5.17-0.24-6.66c0.29-2.3,0.64-5.41,2.88-7.85
	c0.12-0.14,0.27-0.29,0.4-0.42c1.05-1.01,2.05-1.48,2.92-1.91c1.21-0.58,5.8-2.79,9.19-0.83c1.51,0.87,2.13,2.19,3.22,4.52
	c1.47,3.15,2.07,6.17,2.27,8.62c0.18-0.5,1.05-2.78,3.4-3.74c0.42-0.17,2.52-1.04,4,0c1.08,0.75,1.27,2.12,1.49,3.92
	c0.28,2.25,0.01,3.98-0.06,4.52c-0.22,1.66-0.21,3.98,0.74,7.03c-0.03,0.5-0.04,1.03-0.03,1.65c0.01,1.1,0.09,2.09,0.18,2.96
	c0.21,1.86,0.54,3.15,0.71,3.77c0.02,0.06,0.03,0.12,0.05,0.18C974.05,384.9,974.72,385.12,975.39,385.34L975.39,385.34z"/>
<path class="st12" d="M1021.59,453.34c-0.18,0.79-0.47,1.76-1.44,3.76c-2.02,4.18-4.18,7.11-4.51,7.56
	c-4.35,5.91-3.47,5.64-7.32,10.86c-0.15,0.21-0.32,0.43-0.49,0.66c-4.41,5.9-6.91,8.26-10.56,14.51c-0.27,0.45-0.5,0.87-0.7,1.23
	c-0.18,0.32-0.33,0.6-0.45,0.81c-0.41-0.4-0.88-0.84-1.44-1.31c-0.16-0.13-0.32-0.26-0.49-0.39c-0.15-0.12-0.3-0.24-0.47-0.35
	c-0.07-0.05-0.13-0.1-0.2-0.15c-0.35-0.25-0.72-0.5-1.11-0.75c-0.11-0.07-0.23-0.14-0.35-0.21c-0.17-0.1-0.35-0.21-0.54-0.31
	c-0.05-0.02-0.1-0.06-0.15-0.08c-0.07-0.04-0.14-0.08-0.22-0.12c-0.68-0.36-1.34-0.67-1.98-0.92c-1.21-0.5-2.34-0.83-3.33-1.04
	c-0.5-0.12-0.97-0.2-1.39-0.27c0.33-0.55,0.65-1.1,0.97-1.63c2.23-3.76,4.15-6.98,5.76-9.72c1.51-2.56,2.77-4.7,3.79-6.45
	c2.03-3.47,4.23-6.85,6.11-10.4c1.06-2,1.97-3.86,3.68-6.22c0.07-0.09,0.14-0.19,0.2-0.28c-0.35-0.72-0.75-1.52-1.23-2.36
	c-1.2-2.14-2.34-3.7-4.58-6.73c-0.73-0.99-1.24-1.66-1.72-2.29l16.02-15.22c0.02,0.05,0.04,0.1,0.06,0.14c0.71,1.61,0.47,1.11,4,9.8
	c2.11,5.18,2.98,7.3,3.74,10.62c0.57,2.51,0.85,4.73,0.29,7.24L1021.59,453.34z"/>
<path class="st20" d="M964.69,377.82c0,1.12-0.09,2.38-0.36,3.76c-0.17,0.87-0.39,1.68-0.64,2.45c-0.22,0.99-0.5,1.93-0.82,2.81
	c-0.62,1.73-1.36,3.25-2.11,4.53c-3.71-0.33-6.8-1.77-8.69-2.89c0.49,0.01,0.95-0.04,1.41-0.12c0.07-0.01,0.15-0.03,0.22-0.04
	c2.42-0.55,4.35-2.33,6.11-3.94c1.08-0.99,2.61-2.61,4.03-4.98c0.16-0.26,0.31-0.53,0.46-0.81
	C964.43,378.33,964.56,378.07,964.69,377.82z"/>
<path class="st19" d="M994.69,491.43c-1.3,3.28-2.47,6.1-3.44,8.39c-1.42,3.33-2.05,4.66-3.22,6.3c-0.1,0.14-0.2,0.27-0.3,0.41
	c-1.32,1.76-2.73,3.14-3.74,4.13c-1.43,1.4-2.73,2.48-3.69,3.25c-0.35,0.3-0.84,0.37-1.26,0.19c-0.6-0.26-0.7-0.91-0.7-0.94
	c-0.03,0.12-0.23,0.85-0.94,1.21c-0.13,0.07-0.56,0.28-1.05,0.2l-0.42-0.15c-0.43-0.25-0.68-0.76-0.66-1.3
	c-0.01,0.03-0.14,0.51-0.54,0.86c-0.14,0.12-0.31,0.22-0.52,0.28c-0.09,0.02-0.82,0.23-1.38-0.27c-0.3-0.27-0.4-0.61-0.44-0.88
	c-0.03-0.23,0-0.4,0.01-0.42c-0.11,0.06-0.27,0.16-0.49,0.24c-0.3,0.11-0.7,0.21-1.16,0.19c-0.41-0.02-1.22-0.04-1.69-0.66
	c-0.15-0.2-0.24-0.44-0.29-0.7c-0.07-0.43,0.02-0.9,0.24-1.34c0.41-0.56,0.82-1.15,1.23-1.76c0.59-0.85,1.17-1.74,1.75-2.67
	c1.21-1.94,2.27-3.82,3.19-5.61c0.29-0.56,0.59-1.11,0.95-1.63c0.1-0.15,0.18-0.33,0.14-0.51c-0.11-0.58-1.28-0.69-1.41-0.7
	c-0.9-0.08-1.12,0.32-2.28,0.59c-1.37,0.31-2.55,0.08-3.18-0.04c-0.32-0.06-0.62-0.14-0.88-0.22c-0.71-0.22-1.1-1-0.81-1.68
	c0-0.01,0-0.01,0.01-0.02c0.29-0.66,1-0.91,1.45-1.1c0.7-0.29,1.13-0.52,1.48-0.75c0.6-0.4,0.96-0.76,2.09-1.25
	c3.52-1.52,8.05-1.5,8.67-1.48c0.83-0.68,1.69-1.45,2.55-2.35c0.48-0.5,0.93-1.01,1.36-1.51l8.85,3.3c0.17,0.13,0.33,0.26,0.49,0.39
	L994.69,491.43z"/>
<path class="st14" d="M994.2,491.04l-8.85-3.3c0.18-0.21,0.35-0.43,0.52-0.64c0.98,0.22,2.11,0.55,3.32,1.04
	c0.64,0.26,1.3,0.57,1.98,0.93c0.08,0.04,0.14,0.08,0.22,0.12c0.05,0.02,0.1,0.06,0.15,0.08c0.18,0.1,0.36,0.2,0.54,0.31
	c0.12,0.07,0.24,0.14,0.35,0.21c0.39,0.25,0.77,0.5,1.12,0.75c0.07,0.05,0.14,0.1,0.2,0.15C993.9,490.8,994.06,490.92,994.2,491.04
	L994.2,491.04z"/>
<path class="st21" d="M896.48,460.8l-3.11,1.96l-5.64-2.11c-0.08-0.12-0.17-0.23-0.26-0.34c-1.01-1.12-2.62-1.32-4.01-1.26
	l-4.33-1.62l3.04-1.97L896.48,460.8L896.48,460.8z"/>
<path class="st1" d="M780.03,424.03H574.02c-1.29,0-2.53,1.04-2.78,2.33l-3.87,20.07c-0.25,1.29,0.6,2.33,1.89,2.33h206.01
	c1.29,0,2.53-1.04,2.78-2.33l3.87-20.07C782.17,425.07,781.32,424.03,780.03,424.03z M775.21,445.8H570.45l3.62-18.82h204.77
	L775.21,445.8z"/>
<path class="st1" d="M585.47,428.61l-2.99,15.55h-10.07l2.99-15.55H585.47z"/>
<path class="st1" d="M598.91,428.61l-2.99,15.55h-10.07l2.99-15.55H598.91z"/>
<path class="st1" d="M612.34,428.61l-2.99,15.55h-10.07l2.99-15.55H612.34z"/>
<path class="st1" d="M625.77,428.61l-2.99,15.55H612.7l2.99-15.55H625.77z"/>
<path class="st1" d="M639.21,428.61l-2.99,15.55h-10.08l2.99-15.55H639.21z"/>
<path class="st22" d="M508.13,597.64l2.85,31.27h23.56l-6.93-31.27H508.13z"/>
<path class="st22" d="M455.85,628.91h55.13l-2.85-31.27h-45.35L455.85,628.91z"/>
<path class="st22" d="M500.93,518.55l3.11,34.17h13.62l-6.36-28.74c-0.7-3.17-3.52-5.43-6.78-5.43H500.93L500.93,518.55z"/>
<path class="st22" d="M472.73,552.72h31.31l-3.11-34.17h-15.06c-3.26,0-6.08,2.26-6.78,5.43L472.73,552.72L472.73,552.72z"/>
<path class="st23" d="M455.16,632.03h80.07l-0.69-3.12h-78.69L455.16,632.03z"/>
<path class="st22" d="M517.21,632.03c0.41,0,0.82,0.02,1.21,0.06c6.79,0.61,12.11,6.3,12.11,13.24v12.94h21.57v-12.94
	c0-7.34-5.96-13.29-13.32-13.29L517.21,632.03L517.21,632.03z"/>
<path class="st22" d="M438.28,645.32v12.94h92.26v-12.94c0-6.93-5.32-12.62-12.11-13.24c-0.4-0.04-0.8-0.06-1.21-0.06h-65.61
	C444.25,632.02,438.29,637.97,438.28,645.32L438.28,645.32z"/>
<path class="st24" d="M462.78,597.64h45.35l-4.09-44.92h-31.31L462.78,597.64z"/>
<path class="st25" d="M504.04,552.72l4.09,44.92h19.48l-9.95-44.92H504.04z"/>
<path class="st26" d="M685.98,470.86H358.25v37.93h327.73V470.86z"/>
<path class="st26" d="M416.75,470.86l-48.18,37.93h22.18l48.18-37.93H416.75z"/>
<path class="st26" d="M474.37,470.86l-48.18,37.93h22.18l48.18-37.93H474.37z"/>
<path class="st26" d="M589.6,470.86l-48.18,37.93h22.18l48.18-37.93H589.6z"/>
<path class="st26" d="M647.22,470.86l-48.18,37.93h22.18l48.18-37.93H647.22z"/>
<path class="st26" d="M685.98,486.27l-29.32,22.52h29.32V486.27z"/>
<path class="st26" d="M531.99,470.86l-48.18,37.93h22.17l48.18-37.93H531.99z"/>
<path class="st26" d="M358.25,470.86v17.75l23.07-17.75H358.25z"/>
<path class="st27" d="M381.31,470.86l-23.07,17.75v20.18h10.32l48.18-37.93H381.31z"/>
<path class="st27" d="M438.93,470.86l-48.18,37.93h35.43l48.18-37.93H438.93z"/>
<path class="st27" d="M496.54,470.86l-48.18,37.93h35.44l48.18-37.93H496.54z"/>
<path class="st27" d="M554.16,470.86l-48.18,37.93h35.44l48.18-37.93H554.16z"/>
<path class="st27" d="M611.78,470.86l-48.18,37.93h35.44l48.18-37.93H611.78z"/>
<path class="st27" d="M685.98,470.86H669.4l-48.18,37.93h35.44l29.32-22.52V470.86z"/>
<path class="st26" d="M685.18,470.64h-326.5v5.48h326.5V470.64z"/>
<path class="st26" d="M431.82,476.11l6.89-5.47h-22.18l-6.88,5.47H431.82z"/>
<path class="st26" d="M489.43,476.11l6.89-5.47h-22.17l-6.89,5.47H489.43z"/>
<path class="st26" d="M604.67,476.11l6.89-5.47h-22.18l-6.88,5.47H604.67z"/>
<path class="st26" d="M662.28,476.11l6.89-5.47h-22.17l-6.89,5.47H662.28z"/>
<path class="st26" d="M547.05,476.11l6.88-5.47h-22.17l-6.89,5.47H547.05z"/>
<path class="st26" d="M374.26,476.11l6.82-5.47h-22.41v5.47H374.26z"/>
<path class="st27" d="M409.64,476.11l6.88-5.47h-35.44l-6.82,5.47H409.64z"/>
<path class="st27" d="M467.26,476.11l6.89-5.47H438.7l-6.89,5.47H467.26z"/>
<path class="st27" d="M524.88,476.11l6.89-5.47h-35.44l-6.89,5.47H524.88z"/>
<path class="st27" d="M582.49,476.11l6.88-5.47h-35.43l-6.88,5.47H582.49z"/>
<path class="st27" d="M640.11,476.11l6.89-5.47h-35.44l-6.89,5.47H640.11z"/>
<path class="st27" d="M685.18,476.11v-5.47h-16.01l-6.89,5.47H685.18z"/>
<path class="st28" d="M685.18,470.64h-326.5v5.48h326.5V470.64z"/>
<path class="st28" d="M431.82,476.11l6.89-5.47h-22.18l-6.88,5.47H431.82z"/>
<path class="st28" d="M489.43,476.11l6.89-5.47h-22.17l-6.89,5.47H489.43z"/>
<path class="st28" d="M604.67,476.11l6.89-5.47h-22.18l-6.88,5.47H604.67z"/>
<path class="st28" d="M662.28,476.11l6.89-5.47h-22.17l-6.89,5.47H662.28z"/>
<path class="st28" d="M547.05,476.11l6.88-5.47h-22.17l-6.89,5.47H547.05z"/>
<path class="st28" d="M374.26,476.11l6.82-5.47h-22.41v5.47H374.26z"/>
<path class="st29" d="M409.64,476.11l6.88-5.47h-35.44l-6.82,5.47H409.64z"/>
<path class="st29" d="M467.26,476.11l6.89-5.47H438.7l-6.89,5.47H467.26z"/>
<path class="st29" d="M524.88,476.11l6.89-5.47h-35.44l-6.89,5.47H524.88z"/>
<path class="st29" d="M582.49,476.11l6.88-5.47h-35.43l-6.88,5.47H582.49z"/>
<path class="st29" d="M640.11,476.11l6.89-5.47h-35.44l-6.89,5.47H640.11z"/>
<path class="st29" d="M685.18,476.11v-5.47h-16.01l-6.89,5.47H685.18z"/>
<path class="st30" d="M416.41,508.78H391.8v146.13h24.61V508.78z"/>
<path class="st31" d="M419.77,652.68h-31.32v5.58h31.32V652.68z"/>
<path class="st32" d="M416.76,508.94h-23.78v13.68h23.78V508.94z"/>
<path class="st30" d="M651.3,508.78h-23.49v146.13h23.49V508.78z"/>
<path class="st31" d="M655.78,652.68h-32.44v5.58h32.44V652.68z"/>
<path class="st32" d="M651.8,508.94h-23.78v13.68h23.78V508.94z"/>
<path class="st33" d="M287.66,472.59l-2.46,1.54c0.02-0.5,0.04-0.99,0.07-1.48c0.05-1.08,0.1-2.14,0.15-3.16
	C286.39,470.85,287.12,471.87,287.66,472.59z"/>
<path class="st15" d="M379.79,630.3c-0.42,0.14-0.85,0.28-1.31,0.42c-2.83,0.87-6.21,1.66-10.08,2.1c-1.3,0.15-2.54,0.24-3.74,0.3
	c-1.72,0.08-3.32,0.07-4.8,0.02c-7.9-21.75-15.58-45-22.76-69.67c-5.53-19-10.35-37.43-14.54-55.17
	c-0.75,4.67-1.77,11.28-2.85,19.23c-2.25,16.66-4.94,36.93-5.69,61.8c-0.32,10.49-0.37,24.44,0.64,40.99
	c-0.83,0.4-1.91,0.86-3.21,1.27c-1.42,0.43-3.1,0.8-5.01,0.94c-1.78,0.13-3.41,0.04-4.86-0.17c-2.28-0.32-4.09-0.94-5.26-1.41
	c-1.05-8.06-2.66-20.33-4.74-35.31c-4.2-30.27-4.13-27.22-5.05-35.31c-1.88-16.38-2.5-31.69-2.49-46.22l26.42-16.56
	c0.23,0.15,0.45,0.27,0.71,0.38c0.66,0.27,1.19,0.31,1.31,0.32c1.04,0.07,1.81-0.32,2.56-0.68c2.46-1.16,2.03-0.66,4.75-1.99
	c0.65-0.32,1.54-0.77,2.6-1.35c1.25-0.1,2.5-0.21,3.75-0.32c0.5-0.32,1.39-1.01,2.08-2.19c0.59-1.02,0.78-1.99,0.84-2.55
	c0.08-1.1-0.19-1.27-0.28-1.32c-0.24-0.1-0.52,0.18-1.24,0.68c-0.59,0.4-1.17,0.75-1.44,0.88c-1.04,0.52-2.12,0.38-2.83,0.28
	c-0.07-0.01-0.14-0.02-0.21-0.04l26.56-16.65c5.87,16.09,9.23,29.51,11.21,38.78c6.56,30.63,4.79,46.94,11.7,85.13
	c2.65,14.6,5.45,26.29,7.27,33.42L379.79,630.3z"/>
<path class="st20" d="M321.68,387.26c-1.18,0.13-2.17,0.14-2.94,0.13c-3.68-0.08-5.34-1.02-6.03-1.46
	c-0.81-0.52-1.45-1.12-1.95-1.71c0.42,0.21,0.87,0.39,1.33,0.53c3.35,1.04,6.76,0.02,9.47-2.01c-0.02,0.98-0.02,2,0.02,3.06
	C321.62,386.29,321.65,386.78,321.68,387.26L321.68,387.26z"/>
<path class="st19" d="M327.73,366.97c-0.16,3.77-0.32,7.61-2.1,11.01c-0.01,0.02-0.02,0.04-0.03,0.06
	c-0.95,1.79-2.36,3.44-4.03,4.69c-2.71,2.04-6.12,3.05-9.47,2.01c-0.46-0.14-0.9-0.32-1.33-0.53c-1.01-0.49-1.9-1.15-2.7-1.92
	c-2.17-2.11-3.6-5.08-4.53-7.88c-1.05-3.2-1.27-6.59-0.8-9.9c0.25,0.65,0.52,1.19,0.75,1.63c0.6,1.11,1.03,1.57,1.54,1.61
	c0.26,0.03,0.98-0.04,2.23-2.15c1.33-2.23,1.62-4.01,2.38-6.67c0.3-1.05,0.77-2.59,1.46-4.45c1.81,1.94,4.17,4.42,7,7.29
	c2.62,2.65,4.16,4.13,6.69,4.83C325.89,366.91,326.9,366.99,327.73,366.97L327.73,366.97z"/>
<path class="st9" d="M337.85,365.07c-0.01,2.44-0.04,5.92-2.53,8.89c-2.29,2.72-5.42,3.54-6.38,3.76c-1.25,0.27-2.37,0.32-3.31,0.27
	c1.79-3.4,1.94-7.23,2.1-11.01c-0.84,0.01-1.85-0.07-2.95-0.37c-2.52-0.7-4.07-2.18-6.69-4.83c-2.83-2.87-5.19-5.35-7-7.29
	c-0.69,1.86-1.16,3.4-1.46,4.45c-0.76,2.66-1.06,4.45-2.38,6.67c-1.25,2.11-1.97,2.17-2.23,2.15c-0.5-0.04-0.94-0.5-1.54-1.61
	c-0.24-0.45-0.5-0.99-0.75-1.63c-0.47,3.31-0.25,6.7,0.8,9.9c0.92,2.81,2.35,5.77,4.53,7.88c0.19,1.2,0.34,2.45,0.45,3.74
	c0.06,0.6,0.1,1.19,0.13,1.76c-1.15,0.12-2.42,0.3-3.77,0.59c-1.43,0.3-2.95,0.73-4.53,1.31c-2.59,0.95-9.82,3.59-14.61,10.4
	c-1.88,2.68-3.14,8.19-5.66,19.22c-0.14,0.61-0.27,1.19-0.4,1.76c-3.02-0.29-7.57-1.43-10.57-5.49c-2.82-3.8-2.68-8.01-2.61-9.04
	c0.04-0.64,0.37-5,3.69-8.66c1.21-1.33,3.13-2.39,6.92-4.45c6.34-3.44,7.1-3.2,9.46-5.13c2.94-2.42,4.66-5.18,5.53-6.9
	c1.81-3.52,2.15-6.61,2.54-10.27c0.54-5.21-0.32-5.43,0.23-9.43c0.34-2.49,0.96-7.03,4.23-11.35c3.75-4.97,8.85-6.81,10.99-7.44
	c1.75-0.51,7.71-2.15,14.14,0.69c5.26,2.32,7.88,6.32,9.46,8.74C335.02,354.36,337.89,358.88,337.85,365.07L337.85,365.07z"/>
<path class="st19" d="M322.48,392.84c-1.4,0.96-3.03,1.64-4.87,1.76c-2.4,0.15-4.52-0.72-5.79-1.24c-1.15-0.46-2.16-1.02-3.06-1.61
	c-1.7-1.11-2.98-2.35-3.87-3.35c1.35-0.29,2.61-0.47,3.77-0.59c-0.03-0.58-0.07-1.17-0.13-1.76c-0.11-1.3-0.27-2.55-0.45-3.74
	c0.8,0.78,1.69,1.43,2.7,1.92c0.5,0.58,1.13,1.19,1.95,1.71c0.68,0.45,2.35,1.38,6.03,1.46c0.77,0.02,1.77,0,2.94-0.13
	c0.04,0.53,0.09,1.06,0.15,1.57C322,390.25,322.23,391.59,322.48,392.84L322.48,392.84z"/>
<path class="st19" d="M314.99,647.56c0.01,0.68-0.18,1.37-0.61,1.9c-0.17,0.22-0.38,0.4-0.61,0.55c-0.78,0.49-1.81,0.48-2.58,0.47
	c-1.55-0.03-1.75-0.5-3.57-0.74c-1.63-0.22-3.12-0.07-3.77,0c-0.77,0.08-1.4,0.13-2.65,0.22c-1.03,0.08-1.38,0.09-1.71-0.12
	c-0.83-0.53-0.75-1.98-0.72-2.39c0.13-0.98,0.32-2.4,0.59-4.13c0.01-0.08,0.02-0.15,0.04-0.24c0.39-2.53,0.65-4.25,1.11-6.38
	c0.34-1.53,0.7-2.99,1.08-4.36c1.44,0.2,3.08,0.3,4.86,0.17c1.9-0.14,3.59-0.5,5.01-0.94c0.28,1.08,0.63,2.41,1.04,3.92
	c1.32,4.87,1.71,5.89,2.04,7.63c0.07,0.34,0.13,0.72,0.19,1.12c0.14,0.96,0.24,2.07,0.26,3.32L314.99,647.56z"/>
<path class="st9" d="M315.94,657.2c-0.88,0.57-1.97,0.57-2.97,0.7c-4.71,0.65-9.54,0.43-14.1-1.01c-2.17-0.68-3.17-2.73-2.91-4.89
	c0.27-2.25,1.29-4.39,2.25-6.42c0.32-0.7,0.72-1.53,1.19-2.5c-0.01,0.08-0.02,0.16-0.04,0.24c-0.27,1.72-0.46,3.15-0.59,4.13
	c-0.04,0.41-0.12,1.86,0.72,2.39c0.33,0.21,0.68,0.2,1.71,0.12c1.24-0.09,1.87-0.14,2.64-0.22c0.65-0.07,2.14-0.22,3.77,0
	c1.83,0.25,2.02,0.72,3.57,0.74c0.77,0.01,1.81,0.03,2.58-0.46c0.23-0.14,0.43-0.33,0.61-0.55c0.43-0.53,0.62-1.22,0.61-1.9
	c-0.02-1.26-0.12-2.37-0.26-3.32c1.2,3.18,2.29,6.52,2.43,9.88c0.05,1.17-0.15,2.4-1.21,3.09L315.94,657.2z"/>
<path class="st19" d="M394.58,647.79c-0.29,0.14-0.61,0.29-0.96,0.42c-1.58,0.59-2.89,0.58-3.98,0.7c-3.42,0.39-6.07,0.14-7.84-0.03
	c-3.18-0.31-4.77-0.47-6.63-1.17c-3.57-1.36-5.36-2.04-6.47-3.02c-0.23-0.21-0.77-0.71-1.42-0.87c-0.09-1.58-0.27-2.92-0.46-4
	c-0.4-2.31-0.9-3.74-1.05-4.17c-0.35-0.98-0.73-1.82-1.08-2.53c1.2-0.06,2.44-0.15,3.74-0.3c3.87-0.44,7.25-1.24,10.08-2.1
	c0.45,1.71,0.77,2.99,0.98,3.79c0.36,1.38,0.51,1.97,0.89,2.8c0.15,0.32,0.72,1.5,1.97,2.89c0.86,0.96,1.9,1.85,3.89,3.09
	c2.37,1.47,3.52,1.84,5.55,2.89C392.57,646.59,393.52,647.12,394.58,647.79L394.58,647.79z"/>
<path class="st9" d="M406.1,654.25c0.05,0.64-0.76,0.78-1.22,0.94c-4.8,1.64-10.07,1.78-15.1,1.63c-1.01-0.03-2.03-0.08-3.04-0.14
	c-1.54-0.09-3.1-0.23-4.51-0.84c-1.05-0.46-1.97-1.16-3.03-1.59c-1.1-0.45-2.41-0.55-3.56-0.25c-0.75,0.19-1.35,0.48-1.79,0.74
	c-0.27,0.16-0.59,0.22-0.89,0.18c-1-0.14-2.1-0.36-3.28-0.7c-1.42-0.4-2.67-0.9-3.73-1.4c-0.65-0.3-1.04-0.97-0.99-1.69
	c0.09-1.35,0.07-2.47,0.03-3.34c-0.06-1.23-0.18-2.36,0.54-3.27c0.14-0.17,0.51-0.62,1.08-0.73c0.22-0.04,0.44-0.03,0.65,0.02
	c0.65,0.16,1.19,0.66,1.42,0.87c1.11,0.98,2.9,1.66,6.47,3.02c1.86,0.71,3.45,0.86,6.63,1.17c1.77,0.17,4.42,0.42,7.84,0.03
	c1.09-0.12,2.41-0.1,3.98-0.7c0.35-0.13,0.67-0.27,0.96-0.42c0.08-0.04,0.16-0.08,0.22-0.12c0.63-0.33,1.39-0.3,1.99,0.11
	c0.29,0.2,0.62,0.42,0.97,0.65c1.25,0.83,2.61,1.74,4.36,2.8c0.6,0.36,1.2,0.71,1.81,1.06c0.65,0.37,1.33,0.69,1.82,1.27
	C405.93,653.76,406.08,653.99,406.1,654.25L406.1,654.25z"/>
<path class="st16" d="M232.64,545.86l189.5-118.09c10.81,6.1,24.53,6.26,35.8-0.76c11.05-6.89,16.91-18.91,16.42-31.02l-24.6,15.33
	l-17.41-9.5l-0.93-19.77l24.6-15.33c-10.7-5.75-24.11-5.77-35.16,1.12c-11.27,7.02-17.14,19.39-16.39,31.76l-189.5,118.09
	c-7.81,4.87-10.18,15.12-5.3,22.9C214.55,548.36,224.83,550.73,232.64,545.86L232.64,545.86z M219.64,525.32
	c3.6-2.25,8.35-1.15,10.6,2.44c2.25,3.59,1.16,8.33-2.45,10.57c-3.6,2.24-8.35,1.16-10.6-2.44
	C214.93,532.29,216.03,527.56,219.64,525.32L219.64,525.32z"/>
<path class="st34" d="M344.26,437.1l-43.9,27.53c1.69,2.3,3.01,4.23,4.05,5.8c0.92,1.4,2.67,4.15,5.61,7.38
	c0.85,0.94,1.71,1.81,2.55,2.62c-0.27,0.29-0.55,0.6-0.86,0.9c-1.23,1.25-2.72,2.58-4.49,3.85c-1.59,1.14-3.12,2.05-4.52,2.78
	c-0.83-0.67-1.74-1.42-2.71-2.25c-5.51-4.77-9.06-9.08-11.53-12.09c-0.18-0.22-0.44-0.56-0.78-1.03c-0.54-0.72-1.27-1.74-2.24-3.1
	c-1.26-1.76-2.91-4.08-5.02-7.07c-1.82-2.58-2.9-4.12-3.68-6.54c-0.83-2.58-0.87-4.74-0.7-8.42c0.38-8.18,1.34-14.35,1.39-14.66
	c0.29-1.8,0.92-5.56,2.28-11.72c0.12-0.57,0.26-1.15,0.4-1.76c2.52-11.03,3.79-16.54,5.66-19.22c4.78-6.81,12.02-9.46,14.61-10.4
	c1.58-0.58,3.1-1,4.53-1.3c0.89,1.01,2.17,2.24,3.87,3.35c0.9,0.59,1.92,1.14,3.06,1.61c1.27,0.52,3.39,1.39,5.79,1.24
	c1.84-0.11,3.47-0.8,4.87-1.76c-0.26-1.25-0.49-2.59-0.65-4.01c1.37,0.24,2.75,0.48,4.13,0.69c1.41,0.21,2.83,0.39,4.23,0.49
	c2.88,0.22,5.78,0.33,8.37,1.77c2.81,1.56,4.69,4.28,6.23,7.01c1.76,3.13,3.33,6.32,4.84,9.58c3.05,6.59,5.83,13.31,8.34,20.13
	L344.26,437.1L344.26,437.1z"/>
<path class="st19" d="M391.26,450.27c-0.17,0.52-0.54,0.99-1.04,1.25c-0.24,0.12-0.51,0.19-0.78,0.19c-0.32,0-0.63-0.05-0.9,0.15
	c-0.14,0.1-0.23,0.24-0.3,0.4c-0.21,0.47-0.15,1-0.3,1.49c-0.14,0.45-0.41,0.87-0.66,1.26c-0.61,0.94-1.39,1.67-2.2,2.42
	c-1.08,1-2.4,2.22-4.4,2.38c-1.11,0.09-2.03-0.19-2.59-0.42c-0.61,0.44-1.5,1.04-2.64,1.65c-0.65,0.35-3.75,1.96-8.34,2.58
	c-0.82,0.11-1.81,0.21-2.97,0.24l14.87-9.32c0.16-0.56,0.29-1.12,0.37-1.69c0.27-2.04,0.52-4.09,0.77-6.14
	c0.04-0.36,0.09-0.73,0.27-1.04c0.37-0.67,1.11-0.61,1.7-0.29c0.67,0.37,1.36,1.65,2.25,1.45c0.1-0.02,0.19-0.07,0.25-0.15
	c0.24-0.34,0.11-0.93,0.06-1.31c-0.17-1.33-0.81-2.57-0.78-3.92c0-0.23,0.03-0.47,0.12-0.68c0.68-1.55,2.59,0.65,3.09,1.29
	c1.29,1.66,2.38,3.45,3.39,5.28c0.09,0.17,0.19,0.34,0.28,0.52C391.19,448.6,391.55,449.39,391.26,450.27L391.26,450.27z"/>
<path class="st19" d="M329.05,489.15c-0.06,0.57-0.25,1.52-0.84,2.55c-0.68,1.18-1.58,1.86-2.08,2.19c-1.25,0.11-2.5,0.21-3.75,0.32
	c-1.06,0.59-1.95,1.04-2.6,1.35c-2.72,1.33-2.3,0.83-4.75,1.99c-0.75,0.35-1.52,0.74-2.56,0.68c-0.12-0.01-0.65-0.05-1.31-0.32
	c-0.26-0.1-0.48-0.22-0.71-0.38c-0.48-0.32-0.96-0.79-1.64-1.57c-1.35-1.52-2.02-2.28-2.68-3.5c-0.57-1.05-0.9-1.99-1.1-2.68
	c-0.68-0.5-1.47-1.11-2.35-1.81c1.4-0.73,2.94-1.63,4.53-2.77c1.77-1.28,3.26-2.6,4.49-3.86c0.44,0.5,0.91,0.96,1.63,1.37
	c0.98,0.55,1.42,0.27,4.15,0.99c1.55,0.41,2.12,0.6,3.16,0.64c1.58,0.05,2.6-0.12,2.6-0.12c0.82-0.14,1.5-0.36,2.32-0.08
	c0.36,0.12,0.63,0.3,0.8,0.43c0.04,0.32,0.06,0.86-0.24,1.35c-0.43,0.72-1.25,0.93-2,1.12c-1.79,0.45-3.07,0.44-3.07,0.44
	c-0.18,0-0.57-0.01-0.76,0.24c-0.16,0.2-0.09,0.5-0.04,0.68c0.5,0.38,1.47,1.01,2.83,1.24c0.07,0.01,0.14,0.02,0.21,0.04
	c0.71,0.1,1.79,0.25,2.83-0.28c0.27-0.14,0.84-0.47,1.44-0.88c0.72-0.5,1-0.78,1.24-0.68c0.09,0.04,0.36,0.22,0.28,1.32V489.15z"/>
<path class="st35" d="M296.62,413.72c0.04,9.1-0.72,16.54-1.53,22c-1.01,6.88-2.23,11.48-2.68,13.1c-0.39,1.42-0.78,2.74-1.18,3.97"
	/>
<path class="st35" d="M338.6,404.68c1.01,1.54,2.46,3.81,4.1,6.65c1.96,3.41,2.95,5.15,3.49,6.96c1.27,4.23,0.21,7.87-0.45,10.58
	c-0.54,2.22-1.08,4.94-1.48,8.22"/>
<path class="st36" d="M205.92,658.25h953.5"/>
<path class="st1" d="M576.8,399.02v7.54c0,0.75,0.19,1.33,0.56,1.74c0.37,0.41,0.92,0.61,1.64,0.61s1.27-0.2,1.66-0.61
	c0.39-0.41,0.58-0.99,0.58-1.74v-7.54h3.08v7.52c0,1.12-0.24,2.08-0.72,2.86s-1.13,1.37-1.94,1.76c-0.81,0.39-1.71,0.59-2.71,0.59
	c-1,0-1.89-0.19-2.68-0.58c-0.79-0.39-1.41-0.98-1.86-1.76c-0.45-0.78-0.68-1.74-0.68-2.86v-7.52H576.8L576.8,399.02z"/>
<path class="st1" d="M597.77,411.63h-3.08l-5.15-7.77v7.77h-3.08v-12.61h3.08l5.15,7.81v-7.81h3.08V411.63z"/>
<path class="st1" d="M608.24,399.81c1,0.53,1.77,1.27,2.32,2.22c0.55,0.95,0.82,2.05,0.82,3.3c0,1.25-0.27,2.33-0.82,3.28
	c-0.55,0.96-1.32,1.7-2.32,2.23c-1,0.53-2.17,0.79-3.49,0.79h-4.74v-12.61h4.74C606.07,399.01,607.24,399.27,608.24,399.81
	L608.24,399.81z M607.26,408.02c0.65-0.63,0.97-1.53,0.97-2.69c0-1.16-0.32-2.07-0.97-2.71c-0.65-0.65-1.56-0.97-2.72-0.97h-1.46
	v7.33h1.46C605.71,408.97,606.62,408.65,607.26,408.02z"/>
<path class="st1" d="M616.17,401.48v2.55h4.12v2.37h-4.12v2.76h4.66v2.46h-7.74v-12.61h7.74v2.46L616.17,401.48L616.17,401.48z"/>
<path class="st1" d="M629.28,411.63l-2.63-4.76h-0.74v4.76h-3.08v-12.61H628c1,0,1.84,0.17,2.55,0.52c0.7,0.35,1.23,0.83,1.58,1.43
	c0.35,0.6,0.52,1.28,0.52,2.02c0,0.84-0.24,1.59-0.71,2.25c-0.47,0.66-1.17,1.12-2.1,1.4l2.92,4.99H629.28z M625.92,404.69h1.91
	c0.57,0,0.99-0.14,1.27-0.42c0.28-0.27,0.42-0.66,0.42-1.17s-0.14-0.86-0.42-1.13c-0.28-0.27-0.7-0.42-1.27-0.42h-1.91V404.69
	L625.92,404.69z"/>
<path class="st1" d="M638.68,401.98c0.54-0.98,1.3-1.74,2.26-2.28c0.97-0.55,2.06-0.82,3.29-0.82c1.5,0,2.78,0.4,3.85,1.19
	c1.07,0.79,1.78,1.87,2.14,3.23h-3.39c-0.25-0.53-0.61-0.93-1.07-1.2c-0.46-0.27-0.99-0.42-1.58-0.42c-0.95,0-1.72,0.33-2.3,0.99
	c-0.59,0.66-0.88,1.54-0.88,2.64c0,1.1,0.29,1.98,0.88,2.64c0.59,0.66,1.36,0.99,2.3,0.99c0.59,0,1.11-0.14,1.58-0.42
	s0.82-0.68,1.07-1.2h3.39c-0.36,1.37-1.08,2.44-2.14,3.22c-1.07,0.78-2.35,1.17-3.85,1.17c-1.23,0-2.32-0.27-3.29-0.82
	c-0.96-0.55-1.72-1.3-2.26-2.27c-0.54-0.97-0.81-2.07-0.81-3.32c0-1.25,0.27-2.35,0.81-3.33V401.98z"/>
<path class="st1" d="M654.83,410.93c-0.99-0.55-1.77-1.32-2.36-2.31c-0.59-0.99-0.87-2.1-0.87-3.33c0-1.24,0.29-2.34,0.87-3.32
	c0.58-0.98,1.37-1.74,2.36-2.3c0.99-0.55,2.08-0.82,3.27-0.82c1.19,0,2.28,0.27,3.27,0.82c0.99,0.55,1.77,1.32,2.34,2.3
	c0.57,0.98,0.85,2.09,0.85,3.32c0,1.23-0.29,2.34-0.87,3.33c-0.57,0.99-1.36,1.76-2.34,2.31c-0.98,0.55-2.07,0.83-3.26,0.83
	S655.82,411.48,654.83,410.93z M660.52,407.95c0.6-0.67,0.91-1.56,0.91-2.66c0-1.1-0.3-2-0.91-2.67c-0.6-0.66-1.41-0.99-2.42-0.99
	c-1.01,0-1.84,0.33-2.44,0.99c-0.6,0.66-0.91,1.55-0.91,2.68c0,1.12,0.3,2.01,0.91,2.67c0.6,0.66,1.42,1,2.44,1
	S659.91,408.62,660.52,407.95L660.52,407.95z"/>
<path class="st1" d="M677.58,411.63h-3.08l-5.15-7.77v7.77h-3.08v-12.61h3.08l5.15,7.81v-7.81h3.08V411.63z"/>
<path class="st1" d="M681.9,411.31c-0.73-0.3-1.32-0.74-1.76-1.33c-0.44-0.58-0.67-1.29-0.69-2.12h3.27
	c0.05,0.47,0.21,0.83,0.49,1.07c0.27,0.25,0.64,0.37,1.08,0.37c0.44,0,0.82-0.11,1.08-0.32c0.26-0.21,0.39-0.5,0.39-0.87
	c0-0.31-0.11-0.57-0.32-0.77c-0.21-0.2-0.47-0.37-0.77-0.5c-0.3-0.13-0.74-0.28-1.31-0.45c-0.82-0.26-1.48-0.5-2-0.75
	c-0.52-0.26-0.96-0.62-1.33-1.11c-0.37-0.49-0.56-1.13-0.56-1.92c0-1.17,0.42-2.09,1.28-2.76c0.85-0.66,1.96-1,3.33-1
	c1.37,0,2.51,0.33,3.37,1c0.85,0.67,1.31,1.59,1.37,2.78h-3.33c-0.03-0.41-0.17-0.73-0.45-0.96c-0.27-0.24-0.63-0.35-1.06-0.35
	c-0.37,0-0.67,0.1-0.9,0.3c-0.23,0.2-0.34,0.48-0.34,0.85c0,0.41,0.19,0.73,0.57,0.95c0.39,0.23,0.98,0.47,1.8,0.74
	c0.82,0.27,1.48,0.54,1.99,0.79c0.51,0.26,0.95,0.62,1.32,1.09c0.37,0.48,0.56,1.09,0.56,1.85c0,0.76-0.18,1.37-0.55,1.96
	c-0.37,0.59-0.9,1.05-1.59,1.4c-0.7,0.35-1.52,0.52-2.46,0.52c-0.95,0-1.75-0.15-2.48-0.45L681.9,411.31z"/>
<path class="st1" d="M699.98,399.02v2.46h-3.35v10.14h-3.08v-10.14h-3.35v-2.46H699.98z"/>
<path class="st1" d="M707.97,411.63l-2.63-4.76h-0.74v4.76h-3.08v-12.61h5.17c1,0,1.84,0.17,2.55,0.52c0.7,0.35,1.23,0.83,1.58,1.43
	c0.35,0.6,0.52,1.28,0.52,2.02c0,0.84-0.24,1.59-0.71,2.25c-0.47,0.66-1.18,1.12-2.1,1.4l2.92,4.99H707.97z M704.61,404.69h1.91
	c0.57,0,0.99-0.14,1.27-0.42c0.28-0.27,0.42-0.66,0.42-1.17s-0.14-0.86-0.42-1.13c-0.28-0.27-0.7-0.42-1.27-0.42h-1.91V404.69
	L704.61,404.69z"/>
<path class="st1" d="M716.29,399.02v7.54c0,0.75,0.19,1.33,0.56,1.74c0.37,0.41,0.91,0.61,1.64,0.61c0.72,0,1.27-0.2,1.66-0.61
	c0.39-0.41,0.58-0.99,0.58-1.74v-7.54h3.08v7.52c0,1.12-0.24,2.08-0.72,2.86c-0.48,0.78-1.13,1.37-1.94,1.76
	c-0.81,0.39-1.71,0.59-2.71,0.59c-1,0-1.89-0.19-2.67-0.58c-0.79-0.39-1.41-0.98-1.86-1.76c-0.45-0.78-0.68-1.74-0.68-2.86v-7.52
	h3.08H716.29z"/>
<path class="st1" d="M726.25,401.98c0.54-0.98,1.3-1.74,2.26-2.28c0.97-0.54,2.06-0.82,3.29-0.82c1.5,0,2.78,0.4,3.85,1.19
	c1.06,0.79,1.78,1.87,2.14,3.23h-3.39c-0.25-0.53-0.61-0.93-1.07-1.2c-0.46-0.27-0.99-0.42-1.58-0.42c-0.95,0-1.72,0.33-2.3,0.99
	c-0.59,0.66-0.88,1.54-0.88,2.64c0,1.1,0.29,1.98,0.88,2.64c0.59,0.66,1.36,0.99,2.3,0.99c0.59,0,1.11-0.14,1.58-0.42
	s0.82-0.68,1.07-1.2h3.39c-0.36,1.37-1.08,2.44-2.14,3.22c-1.07,0.78-2.35,1.17-3.85,1.17c-1.23,0-2.32-0.27-3.29-0.82
	c-0.96-0.55-1.72-1.3-2.26-2.27c-0.54-0.97-0.81-2.07-0.81-3.32c0-1.25,0.27-2.35,0.81-3.33V401.98z"/>
<path class="st1" d="M748.77,399.02v2.46h-3.35v10.14h-3.08v-10.14h-3.35v-2.46H748.77z"/>
<path class="st1" d="M753.4,399.02v12.61h-3.08v-12.61H753.4z"/>
<path class="st1" d="M758.35,410.93c-0.99-0.55-1.78-1.32-2.36-2.31c-0.59-0.99-0.87-2.1-0.87-3.33c0-1.24,0.29-2.34,0.87-3.32
	c0.58-0.98,1.37-1.74,2.36-2.3c0.99-0.55,2.08-0.82,3.27-0.82c1.19,0,2.28,0.27,3.27,0.82c0.99,0.55,1.77,1.32,2.34,2.3
	c0.57,0.98,0.85,2.09,0.85,3.32c0,1.23-0.29,2.34-0.87,3.33c-0.58,0.99-1.36,1.76-2.34,2.31c-0.98,0.55-2.07,0.83-3.26,0.83
	S759.34,411.48,758.35,410.93z M764.04,407.95c0.6-0.67,0.91-1.56,0.91-2.66c0-1.1-0.3-2-0.91-2.67c-0.6-0.66-1.41-0.99-2.42-0.99
	c-1.01,0-1.84,0.33-2.44,0.99c-0.6,0.66-0.91,1.55-0.91,2.68c0,1.12,0.3,2.01,0.91,2.67c0.6,0.66,1.42,1,2.44,1
	S763.44,408.62,764.04,407.95L764.04,407.95z"/>
<path class="st1" d="M781.1,411.63h-3.08l-5.15-7.77v7.77h-3.08v-12.61h3.08l5.15,7.81v-7.81h3.08V411.63z"/>
</svg>
