<svg width="136" height="72" viewBox="0 0 136 72" fill="none" xmlns="http://www.w3.org/2000/svg">
<g id="Group">
<g id="Group 1153">
<path id="Vector" d="M49.8787 20.0441C51.7076 15.6395 53.5473 11.2458 55.3763 6.84124C56.1013 5.0989 56.8264 3.36738 57.5515 1.63586C48.5043 5.07726 42.8444 12.934 41.6323 14.6547C42.3899 15.7261 44.8789 19.2 48.8506 22.4898C49.1861 21.6782 49.5324 20.8557 49.8679 20.0441" fill="white"/>
<path id="Vector_2" d="M66.5445 0.012536C65.5814 -0.01993 64.6399 0.012536 63.7308 0.08829C62.3456 3.42146 60.9388 6.75464 59.5535 10.0878C59.3371 10.5964 59.1315 11.1051 58.915 11.6137C62.0318 9.64411 66.09 8.86493 69.6505 10.0121C73.5031 11.2566 76.1761 14.3192 78.07 17.7173C79.2171 19.7735 80.137 21.9595 80.9703 24.1672C86.0891 20.5527 89.3248 16.1048 90.3313 14.6439C88.5673 12.1115 80.0504 0.456238 66.5445 0.012536Z" fill="white"/>
<path id="Vector_3" d="M74.2283 23.0742C73.4491 21.2994 72.5725 19.5571 71.4579 17.9771C71.3172 17.7714 71.1657 17.5875 71.025 17.3819C71.5769 18.161 71.0791 17.4684 70.9276 17.2736C70.6354 16.9382 70.3324 16.6135 70.0077 16.3105C69.8454 16.159 69.6722 16.0075 69.4991 15.856C69.4233 15.791 69.3368 15.7369 69.261 15.6612C69.3151 15.7044 69.3584 15.7477 69.3909 15.7802C69.5424 15.8992 69.6831 16.0399 69.3909 15.7802C69.3584 15.7477 69.3151 15.7261 69.2826 15.7044C69.2177 15.6612 69.142 15.6179 69.077 15.5746C69.2177 16.0291 69.3043 16.5161 69.3043 17.0247C69.3043 19.6653 67.1832 21.8081 64.5643 21.8081C61.9453 21.8081 59.8242 19.6653 59.8242 17.0247C59.4671 17.3602 59.1208 17.7065 58.7961 18.0745C58.623 18.2693 58.4606 18.4641 58.2983 18.6589C58.2442 18.7346 58.1901 18.8104 58.136 18.8861C57.8222 19.319 57.5191 19.7735 57.2486 20.2389C56.7941 20.9856 56.4045 21.7648 56.0473 22.5656C55.5279 23.8209 55.1167 25.1196 54.792 26.4399C58.0711 27.9766 61.8588 28.9722 66.0902 28.8315C69.6181 28.7125 72.7998 27.8359 75.6135 26.5481C75.1915 25.3793 74.7369 24.2214 74.2608 23.0742" fill="white"/>
</g>
<path id="Vector_4" d="M3.8851 48.8739V56.4168H0V40.5842H3.8851V47.5211H10.2484V40.5842H14.1011V56.4168H10.2484V48.8739H3.8851Z" fill="white"/>
<path id="Vector_5" d="M30.4208 40.2595L37.8447 56.4168H33.8731L31.8926 52.0988H25.7457L23.6679 56.4168H21.0273L28.7434 40.2595H30.4208ZM26.4816 50.627H31.2433L28.8949 45.519L26.4816 50.627Z" fill="white"/>
<path id="Vector_6" d="M44.8462 40.5842H50.7983C51.8264 40.5842 52.7246 40.6924 53.493 40.9089C54.2613 41.1253 54.8998 41.4175 55.4085 41.8071C55.9171 42.1967 56.2959 42.6512 56.5556 43.1815C56.8153 43.7118 56.9452 44.2854 56.9452 44.913C56.9452 45.3676 56.8586 45.7896 56.6855 46.19C56.5123 46.5904 56.2634 46.9584 55.9496 47.2939C55.6357 47.6293 55.257 47.9324 54.8024 48.1921C54.3587 48.4518 53.8609 48.6683 53.3306 48.8414L58.9689 56.4168H54.7483L49.4347 49.2635H48.7421V56.4168H44.857V40.5842H44.8462ZM48.7313 47.8674H49.5754C50.0516 47.8674 50.4953 47.8025 50.8957 47.6726C51.2961 47.5428 51.6532 47.348 51.9454 47.1099C52.2376 46.861 52.4757 46.558 52.638 46.2008C52.8004 45.8437 52.8869 45.4325 52.8869 44.9888C52.8869 44.5667 52.822 44.188 52.6921 43.8308C52.5623 43.4845 52.3891 43.1815 52.1619 42.9218C51.9346 42.6729 51.664 42.4673 51.3394 42.3374C51.0256 42.1967 50.6792 42.1318 50.3005 42.1318H48.7205V47.8783L48.7313 47.8674Z" fill="white"/>
<path id="Vector_7" d="M65.2134 40.5842H71.1655C72.1936 40.5842 73.0918 40.6924 73.8602 40.9089C74.6285 41.1253 75.267 41.4175 75.7756 41.8071C76.2843 42.1967 76.6631 42.6512 76.9228 43.1815C77.1825 43.7118 77.3124 44.2854 77.3124 44.913C77.3124 45.3676 77.2258 45.7896 77.0526 46.19C76.8795 46.5904 76.6306 46.9584 76.3167 47.2939C76.0029 47.6293 75.6241 47.9324 75.1696 48.1921C74.7259 48.4518 74.2281 48.6683 73.6978 48.8414L79.3361 56.4168H75.1155L69.8019 49.2635H69.1093V56.4168H65.2242V40.5842H65.2134ZM69.0985 47.8674H69.9426C70.4188 47.8674 70.8625 47.8025 71.2629 47.6726C71.6633 47.5428 72.0204 47.348 72.3126 47.1099C72.6048 46.861 72.8429 46.558 73.0052 46.2008C73.1675 45.8437 73.2541 45.4325 73.2541 44.9888C73.2541 44.5667 73.1892 44.188 73.0593 43.8308C72.9295 43.4845 72.7563 43.1815 72.529 42.9218C72.3018 42.6729 72.0312 42.4673 71.7066 42.3374C71.3927 42.1967 71.0464 42.1318 70.6677 42.1318H69.0877V47.8783L69.0985 47.8674Z" fill="white"/>
<path id="Vector_8" d="M93.5237 56.7631C92.2467 56.7631 91.0563 56.5574 89.9524 56.1462C88.8486 55.735 87.8962 55.1506 87.0846 54.4147C86.2729 53.668 85.6453 52.7914 85.1799 51.7633C84.7146 50.7352 84.4873 49.6205 84.4873 48.3977C84.4873 47.1748 84.7146 46.1034 85.1799 45.097C85.6453 44.0905 86.2838 43.2356 87.0846 42.5213C87.8962 41.8071 88.8486 41.2443 89.9524 40.8547C91.0563 40.4543 92.2467 40.2595 93.5237 40.2595C94.8007 40.2595 95.9911 40.4543 97.0949 40.8547C98.1988 41.2551 99.1511 41.8179 99.9628 42.5321C100.774 43.2464 101.413 44.1013 101.878 45.097C102.344 46.0926 102.582 47.1748 102.582 48.3544C102.582 49.1985 102.473 49.9885 102.268 50.7352C102.062 51.4819 101.759 52.1637 101.37 52.7806C100.98 53.4082 100.515 53.9602 99.9736 54.4472C99.4325 54.9341 98.8156 55.3562 98.1447 55.6917C97.4737 56.038 96.7486 56.2977 95.9694 56.4817C95.1903 56.6657 94.3786 56.7522 93.5345 56.7522M93.5345 55.4211C94.3029 55.4211 94.9846 55.248 95.5798 54.8909C96.1751 54.5337 96.6621 54.0467 97.0625 53.4299C97.4629 52.8022 97.7659 52.0663 97.9715 51.2114C98.1771 50.3564 98.2853 49.4149 98.2853 48.3977C98.2853 47.3804 98.1771 46.4713 97.9715 45.6381C97.7659 44.8048 97.4629 44.0905 97.0625 43.4953C96.6621 42.9001 96.1751 42.4347 95.5798 42.0993C94.9846 41.7638 94.3137 41.6014 93.5345 41.6014C92.7553 41.6014 92.0735 41.7638 91.4783 42.0993C90.8831 42.4347 90.3961 42.9001 89.9957 43.4953C89.5953 44.0905 89.3031 44.8156 89.0975 45.6381C88.8919 46.4713 88.7945 47.3912 88.7945 48.3977C88.7945 49.4041 88.8919 50.3564 89.0975 51.2114C89.3031 52.0663 89.5953 52.813 89.9957 53.4299C90.3961 54.0576 90.8831 54.5446 91.4783 54.8909C92.0735 55.248 92.7553 55.4211 93.5345 55.4211Z" fill="white"/>
<path id="Vector_9" d="M112.43 40.5842L116.445 50.8109L120.471 40.411L124.529 50.7677L128.446 40.5842H131.044L124.821 56.644H123.057L119.81 48.3976L116.629 56.644H114.865L108.512 40.5842H112.43Z" fill="white"/>
<path id="Vector_10" d="M30.7996 64.1545C30.4857 63.5918 30.4424 63.516 30.3018 63.2996C30.594 63.3212 30.7455 63.332 30.9294 63.332C31.1134 63.332 31.2649 63.332 31.5679 63.2996C31.7086 63.6783 32.4445 65.1826 32.8557 65.9077C33.4293 64.8904 33.9488 63.8623 34.1869 63.2996C34.3384 63.3212 34.4249 63.332 34.5548 63.332C34.6847 63.332 34.7712 63.332 34.9336 63.2996C34.4682 63.9705 33.4726 65.702 33.1155 66.4271C33.1155 66.6327 33.1155 66.7301 33.1155 66.8708C33.1155 67.7366 33.1371 68.4725 33.1912 68.8512C32.899 68.8296 32.7584 68.8188 32.596 68.8188C32.4337 68.8188 32.3038 68.8188 32.0333 68.8512C32.0874 68.3967 32.1199 67.5526 32.1199 66.8059V66.4596C32.0116 66.2864 31.8601 65.9942 31.6329 65.6155C31.5138 65.3882 31.3731 65.1501 31.2433 64.9337L30.8104 64.1545H30.7996Z" fill="white"/>
<path id="Vector_11" d="M38.8184 66.9574C38.8184 68.202 38.0716 68.9487 36.8379 68.9487C35.6042 68.9487 34.8467 68.202 34.8467 66.925C34.8467 65.648 35.5826 64.9012 36.8487 64.9012C38.1149 64.9012 38.8292 65.6371 38.8292 66.9574M35.8639 66.925C35.8639 68.0829 36.1886 68.6565 36.8379 68.6565C37.4872 68.6565 37.8227 68.0721 37.8227 66.9466C37.8227 65.7562 37.5089 65.1934 36.8379 65.1934C36.167 65.1934 35.8639 65.767 35.8639 66.925Z" fill="white"/>
<path id="Vector_12" d="M40.2905 65.0202C40.4529 65.0202 40.5503 65.0202 40.7559 64.9877C40.7234 65.6262 40.7018 66.5353 40.7018 67.0006C40.7018 67.5958 40.7342 67.8447 40.8316 68.0179C40.9507 68.2451 41.1996 68.375 41.4918 68.375C41.8597 68.375 42.1519 68.1477 42.2601 67.7581C42.3251 67.4984 42.3359 67.4227 42.3359 66.3296C42.3359 65.8968 42.3142 65.2799 42.2926 64.9769C42.5415 64.9985 42.6497 65.0094 42.8121 65.0094C42.9636 65.0094 43.0718 65.0094 43.2774 64.9769C43.2341 65.6803 43.2233 66.1781 43.2233 66.979C43.2233 67.7798 43.2449 68.3642 43.2774 68.8512C43.0826 68.8295 42.9852 68.8187 42.8337 68.8187C42.7038 68.8187 42.574 68.8187 42.3359 68.8512C42.3467 68.6347 42.3575 68.559 42.3684 68.1802C42.0762 68.678 41.6325 68.9486 41.0697 68.9486C40.7018 68.9486 40.3879 68.8295 40.1498 68.6131C39.8901 68.3642 39.7927 68.072 39.7927 67.5309C39.7927 67.4118 39.7927 67.1954 39.7927 66.979C39.7927 66.6218 39.7927 66.4162 39.7927 66.1348C39.7927 65.6911 39.7927 65.4422 39.7603 64.9661C39.9983 64.9877 40.1174 64.9985 40.2905 64.9985" fill="white"/>
<path id="Vector_13" d="M46.5453 65.8968C46.3938 65.8102 46.2748 65.7777 46.1341 65.7777C45.8094 65.7777 45.5389 65.9725 45.3982 66.2756C45.3333 66.4595 45.3116 66.6868 45.3116 67.2928C45.3116 67.8123 45.3333 68.4508 45.3657 68.862C45.0952 68.8404 44.987 68.8295 44.8788 68.8295C44.7489 68.8295 44.6515 68.8296 44.3701 68.862C44.4242 68.3967 44.4351 67.8556 44.4351 66.9249C44.4351 66.1673 44.4242 65.7669 44.3701 64.9877C44.619 65.0094 44.7272 65.0202 44.8571 65.0202C44.987 65.0202 45.0844 65.0202 45.29 64.9877C45.29 65.1825 45.2683 65.5288 45.2683 65.9293C45.5389 65.2908 45.9609 64.912 46.4155 64.912C46.4804 64.912 46.5345 64.912 46.6319 64.9445C46.5886 65.1392 46.5778 65.2583 46.5778 65.4531C46.5778 65.583 46.5778 65.6695 46.5994 65.8535L46.5237 65.9076L46.5453 65.8968Z" fill="white"/>
<path id="Vector_14" d="M50.4411 68.9811C50.4411 69.8469 50.4736 70.4312 50.4952 70.994C50.2571 70.9615 50.1273 70.9507 49.9866 70.9507C49.8459 70.9507 49.7269 70.9507 49.4888 70.994C49.5321 70.4204 49.5645 69.0785 49.5645 68.2668C49.5645 66.7626 49.5429 65.5505 49.4888 64.977C49.7377 64.9878 49.8459 64.9986 49.9866 64.9986C50.1056 64.9986 50.2247 64.9986 50.4519 64.977C50.4411 65.1393 50.4195 65.5072 50.4195 65.6263C50.6251 65.1393 51.0363 64.8904 51.6099 64.8904C52.6271 64.8904 53.2765 65.6696 53.2765 66.9141C53.2765 68.1586 52.6271 68.927 51.6207 68.927C51.058 68.927 50.6575 68.6781 50.4303 68.2019V68.9703L50.4411 68.9811ZM50.4736 66.9574C50.4736 67.953 50.7982 68.5158 51.3934 68.5158C51.9887 68.5158 52.3133 67.9422 52.3133 66.9033C52.3133 65.8644 52.0103 65.3557 51.4259 65.3557C50.7874 65.3557 50.4736 65.886 50.4736 66.9574Z" fill="white"/>
<path id="Vector_15" d="M54.3802 65.9726C54.3802 65.9726 54.3802 65.886 54.3802 65.8644C54.3802 65.7345 54.3586 65.6371 54.2937 65.4098C54.7806 65.0419 55.2027 64.8904 55.7763 64.8904C56.2957 64.8904 56.7178 65.0635 56.945 65.3665C57.1182 65.6046 57.1723 65.8427 57.1723 66.3838C57.1723 66.3838 57.1651 66.6111 57.1507 67.0656V67.347C57.1507 67.9638 57.1507 68.1586 57.1831 68.2777C57.2264 68.44 57.3455 68.5482 57.5186 68.5482C57.5619 68.5482 57.5944 68.5482 57.6701 68.5266V68.6781C57.4429 68.8188 57.2372 68.8729 56.9883 68.8729C56.6096 68.8729 56.4039 68.7214 56.2741 68.3318C55.9278 68.7538 55.5815 68.9378 55.1269 68.9378C54.4452 68.9378 54.0015 68.5374 54.0015 67.9097C54.0015 67.466 54.2179 67.1305 54.6075 66.9357C54.6941 66.8997 55.0584 66.8023 55.7005 66.6435C56.1009 66.5461 56.2416 66.4163 56.2416 66.1241C56.2416 65.6479 55.9061 65.3124 55.4191 65.3124C55.0079 65.3124 54.6616 65.5397 54.4668 65.9509H54.3694L54.3802 65.9726ZM55.4408 67.044C55.1161 67.1738 54.9754 67.4119 54.9754 67.8015C54.9754 68.2236 55.1919 68.4725 55.5382 68.4725C55.8845 68.4725 56.1767 68.2452 56.2416 67.9314C56.2741 67.769 56.2849 67.5851 56.2849 67.0548C56.2849 66.9249 56.2849 66.8816 56.2849 66.7734C55.8953 66.8816 55.6139 66.979 55.4408 67.044Z" fill="white"/>
<path id="Vector_16" d="M59.4776 63.7433V63.8623C59.456 64.0571 59.4452 64.2303 59.4235 64.4251C59.4235 64.4251 59.4235 64.7064 59.4019 65.0527L60.246 65.0311C60.2243 65.1718 60.2244 65.1934 60.2244 65.2367C60.2244 65.28 60.2243 65.3016 60.246 65.4315H60.1594H59.8564H59.5317H59.4127V65.5505C59.4127 65.7021 59.4127 65.7129 59.3911 66.8167V67.5418C59.3911 68.0288 59.4127 68.1803 59.4776 68.3426C59.5534 68.5158 59.7049 68.6024 59.9322 68.6024C60.0728 68.6024 60.1811 68.5807 60.365 68.5266L60.3217 68.7971C59.9863 68.9162 59.7482 68.9595 59.4885 68.9595C58.8283 68.9595 58.4712 68.5699 58.4712 67.8448C58.4712 67.7582 58.4712 67.5851 58.4712 67.4119C58.4928 66.6003 58.5037 65.9618 58.5037 65.4099H58.4063C58.1465 65.4099 57.9698 65.4171 57.876 65.4315C57.8976 65.3449 57.8976 65.2908 57.8976 65.2151C57.8976 65.1501 57.8976 65.1177 57.876 65.0311L58.5145 65.0527V64.9337C58.5145 64.8255 58.5145 64.7497 58.4928 64.5874C58.482 64.2952 58.482 64.2519 58.4712 64.0788C58.7309 64.0138 59.0664 63.8731 59.4235 63.6783L59.4776 63.7325V63.7433Z" fill="white"/>
<path id="Vector_17" d="M62.0964 63.6242C62.0964 63.9164 61.8475 64.1653 61.5445 64.1653C61.2415 64.1653 61.0034 63.9164 61.0034 63.6242C61.0034 63.3104 61.2523 63.0723 61.5553 63.0723C61.8584 63.0723 62.0964 63.3212 62.0964 63.6242ZM61.577 65.0202C61.7285 65.0202 61.8475 65.0202 62.0423 64.9878C62.0099 65.3665 61.9774 66.3838 61.9774 66.9574C61.9774 67.6175 61.999 68.4183 62.0423 68.862C61.8367 68.8404 61.7285 68.8296 61.5553 68.8296C61.3714 68.8296 61.2523 68.8296 61.0251 68.862C61.0792 68.2668 61.1008 67.6391 61.1008 66.8491C61.1008 66.0591 61.0792 65.518 61.0251 64.9878C61.2848 65.0094 61.4147 65.0202 61.577 65.0202Z" fill="white"/>
<path id="Vector_18" d="M66.339 68.1154L66.3174 68.1803C66.2524 68.3426 66.2308 68.4076 66.2092 68.5483C65.7438 68.8405 65.3867 68.9487 64.8889 68.9487C63.6985 68.9487 62.9409 68.1695 62.9409 66.9358C62.9409 65.7021 63.6443 64.9012 64.8131 64.9012C65.8845 64.9012 66.4905 65.5397 66.4905 66.6652C66.4905 66.7085 66.4905 66.8167 66.4797 66.925C66.1118 66.9033 65.7546 66.9033 65.1919 66.9033C64.8023 66.9033 64.3911 66.9033 63.9474 66.9141C63.9474 66.9682 63.9474 67.0224 63.9474 67.0332C63.9474 67.953 64.4127 68.5158 65.1703 68.5158C65.5815 68.5158 65.9278 68.3643 66.2633 68.0613L66.3498 68.1154H66.339ZM64.9755 66.5678C65.3001 66.5678 65.365 66.5678 65.5598 66.557C65.5382 66.1566 65.5274 65.9834 65.4733 65.8103C65.365 65.4207 65.1378 65.2151 64.8023 65.2151C64.3045 65.2151 63.9907 65.7129 63.9582 66.5678C64.1638 66.5678 64.2071 66.5678 64.7698 66.5678H64.9863H64.9755Z" fill="white"/>
<path id="Vector_19" d="M67.8757 65.0203C68.0488 65.0203 68.1462 65.0203 68.3302 64.9878C68.3085 65.2043 68.3085 65.2367 68.2977 65.6371C68.644 65.1393 69.0444 64.9012 69.5964 64.9012C70.3972 64.9012 70.8842 65.3991 70.8842 66.2323C70.8842 66.373 70.8842 66.6003 70.8734 66.86C70.8734 67.1306 70.8517 67.3903 70.8517 67.6284C70.8517 68.0829 70.8734 68.5374 70.895 68.8621C70.6677 68.8405 70.5379 68.8296 70.3755 68.8296C70.2132 68.8296 70.1158 68.8296 69.9102 68.8621C69.9318 68.5158 69.9643 67.531 69.9643 67.0656C69.9643 66.4488 69.9427 66.1674 69.8669 65.9834C69.7479 65.6588 69.499 65.4856 69.1743 65.4856C68.8172 65.4856 68.5358 65.7021 68.4276 66.0376C68.3518 66.2973 68.341 66.5029 68.341 67.4985C68.341 68.0288 68.341 68.3318 68.3735 68.8621C68.1462 68.8405 68.0488 68.8296 67.8865 68.8296C67.735 68.8296 67.6268 68.8296 67.3887 68.8621C67.4428 68.4184 67.4644 67.6825 67.4644 66.8492C67.4644 66.1999 67.4428 65.7129 67.3887 64.9878C67.6159 65.0095 67.735 65.0203 67.8973 65.0203" fill="white"/>
<path id="Vector_20" d="M73.1568 63.7433V63.8623C73.1352 64.0571 73.1244 64.2303 73.1027 64.4251C73.1027 64.4251 73.1027 64.7064 73.0811 65.0527L73.9252 65.0311C73.9035 65.1718 73.9035 65.1934 73.9035 65.2367C73.9035 65.28 73.9035 65.3016 73.9252 65.4315H73.8386H73.5356H73.2109H73.0919V65.5505C73.0919 65.7021 73.0919 65.7129 73.0702 66.8167V67.5418C73.0702 68.0288 73.0919 68.1803 73.1568 68.3426C73.2326 68.5158 73.3841 68.6024 73.6113 68.6024C73.752 68.6024 73.8603 68.5807 74.0442 68.5266L74.0009 68.7971C73.6655 68.9162 73.4274 68.9595 73.1677 68.9595C72.5075 68.9595 72.1504 68.5699 72.1504 67.8448C72.1504 67.7582 72.1504 67.5851 72.1504 67.4119C72.172 66.6003 72.1828 65.9618 72.1828 65.4099H72.0855C71.8257 65.4099 71.649 65.4171 71.5552 65.4315C71.5768 65.3449 71.5768 65.2908 71.5768 65.2151C71.5768 65.1501 71.5768 65.1177 71.5552 65.0311L72.1937 65.0527V64.9337C72.1937 64.8255 72.1937 64.7497 72.172 64.5874C72.1612 64.2952 72.1612 64.2519 72.1504 64.0788C72.4101 64.0138 72.7456 63.8731 73.1027 63.6783L73.1568 63.7325V63.7433Z" fill="white"/>
<path id="Vector_21" d="M74.8667 67.8881C75.0506 68.3535 75.4294 68.624 75.8515 68.624C76.2735 68.624 76.5874 68.3643 76.5874 68.018C76.5874 67.715 76.4358 67.5743 75.8515 67.3687C75.3536 67.1847 75.148 67.0765 74.9749 66.9358C74.7584 66.7518 74.6286 66.4488 74.6286 66.1241C74.6286 65.3774 75.2021 64.9012 76.1112 64.9012C76.5765 64.9012 76.9337 64.9878 77.2583 65.1718L77.2259 65.2692C77.1934 65.3666 77.1609 65.464 77.1285 65.5506C77.1068 65.5939 77.0743 65.7021 77.0202 65.9077H76.9228C76.8038 65.4532 76.49 65.1934 76.0463 65.1934C75.6675 65.1934 75.3969 65.4207 75.3969 65.7562C75.3969 65.9618 75.4943 66.1241 75.7108 66.2432C75.8839 66.3406 75.9813 66.3839 76.4467 66.5354C77.1501 66.7626 77.4207 67.0548 77.4207 67.5851C77.4207 68.3859 76.7172 68.9487 75.7324 68.9487C75.332 68.9487 75.0073 68.8837 74.6069 68.7106C74.6502 68.5915 74.726 68.2128 74.7584 67.8881H74.845H74.8667Z" fill="white"/>
<path id="Vector_22" d="M79.4558 68.343C79.4558 68.6679 79.1959 68.9279 78.8602 68.9279C78.5244 68.9279 78.2861 68.6679 78.2861 68.343C78.2861 68.0181 78.5461 67.7582 78.871 67.7582C79.1959 67.7582 79.4558 68.0181 79.4558 68.343Z" fill="white"/>
<path id="Vector_23" d="M87.7232 63.9923C88.2426 64.4684 88.5024 65.1611 88.5024 66.1134C88.5024 66.9575 88.2426 67.6068 87.7015 68.1263C87.1388 68.6674 86.3813 68.9379 85.4614 68.9379C84.5415 68.9379 83.7515 68.6674 83.1996 68.1587C82.6693 67.6718 82.4204 67.0333 82.4204 66.1567C82.4204 65.2801 82.6801 64.555 83.2321 64.0464C83.8056 63.5053 84.5632 63.2347 85.4614 63.2347C86.3596 63.2347 87.1929 63.5053 87.734 64.0139M83.8922 66.1026C83.8922 67.5744 84.4549 68.3968 85.4722 68.3968C86.4895 68.3968 87.0306 67.5852 87.0306 66.1242C87.0306 65.3017 86.9115 64.7606 86.6193 64.371C86.3596 64.0139 85.9484 63.8083 85.4614 63.8083C84.4658 63.8083 83.8922 64.6524 83.8922 66.1026Z" fill="white"/>
<path id="Vector_24" d="M89.3354 66.6543C89.3354 66.2215 89.3137 65.3557 89.2812 64.9445C89.5734 64.9661 89.7249 64.9769 89.9197 64.9769C90.0821 64.9769 90.1903 64.9769 90.6556 64.9445C90.5907 65.7778 90.5582 66.5136 90.5582 67.0547C90.5582 67.6824 90.5691 67.8556 90.6448 67.9746C90.7314 68.1261 90.8721 68.2019 91.0669 68.2019C91.305 68.2019 91.4781 68.0828 91.5539 67.8339C91.5972 67.7149 91.608 67.4552 91.608 67.0331C91.608 66.9682 91.6008 66.7084 91.5863 66.2539C91.5647 65.4423 91.5647 65.4314 91.5106 64.9445C91.7703 64.9661 91.9218 64.9769 92.1924 64.9769C92.4629 64.9769 92.6144 64.9769 92.885 64.9445C92.8633 65.3016 92.8309 66.1565 92.8309 67.0115C92.8309 67.585 92.8525 68.4075 92.885 68.862C92.6469 68.8296 92.5278 68.8187 92.2789 68.8187C92.0192 68.8187 91.8569 68.8187 91.5647 68.862C91.5755 68.743 91.5755 68.7105 91.5863 68.4291C91.3591 68.7646 91.0236 68.927 90.5582 68.927C90.1795 68.927 89.8656 68.8187 89.6492 68.6023C89.4219 68.3859 89.3137 68.0395 89.3137 67.5526C89.3137 67.4227 89.3137 67.2928 89.3137 67.1089V66.6435L89.3354 66.6543Z" fill="white"/>
<path id="Vector_25" d="M96.3051 66.189C96.1536 66.0592 96.0021 65.9942 95.8073 65.9942C95.5475 65.9942 95.3419 66.1566 95.2337 66.4488C95.1796 66.6003 95.1579 66.8167 95.1579 67.1955C95.1579 67.6067 95.1904 68.3642 95.2445 68.8512C94.9307 68.8188 94.7683 68.8079 94.5627 68.8079C94.3788 68.8079 94.2056 68.8079 93.8701 68.8512C93.9026 68.2777 93.9351 67.3145 93.9351 66.8925C93.9351 66.4271 93.9026 65.3124 93.8701 64.9337C94.1407 64.9553 94.303 64.9661 94.5086 64.9661C94.7142 64.9661 94.8874 64.9661 95.1796 64.9337C95.1579 65.1718 95.1579 65.3233 95.1579 65.5397V65.7237H95.2121C95.4393 65.1501 95.7099 64.9229 96.1536 64.9229C96.2618 64.9229 96.3375 64.9229 96.4999 64.9661C96.4349 65.1609 96.3916 65.5181 96.3916 65.8535C96.3916 65.9401 96.3916 65.9834 96.4133 66.1024L96.3159 66.1782L96.3051 66.189Z" fill="white"/>
<path id="Vector_26" d="M100.461 70.6092C100.111 70.5576 99.9104 70.5447 99.6474 70.5447C99.3845 70.5447 99.2092 70.5576 98.8711 70.6092C98.8961 70.1444 98.9587 68.1431 98.9587 67.4071C98.9587 67.2177 98.9546 66.5764 98.9462 65.4832C98.9087 63.6755 98.9087 63.6497 98.8836 63.3011C99.1967 63.3398 99.372 63.3527 99.6099 63.3527C99.8478 63.3527 100.023 63.3527 100.411 63.3011C100.361 63.6497 100.361 63.7014 100.349 63.8176C100.612 63.4173 101.025 63.2236 101.563 63.2236C102.778 63.2236 103.579 64.2178 103.579 65.7156C103.579 67.1359 102.803 68.0656 101.626 68.0656C101.087 68.0656 100.724 67.8977 100.399 67.4975V68.2593C100.399 69.1631 100.399 69.3051 100.461 70.4543V70.6221V70.6092ZM100.324 65.5994C100.324 66.6065 100.662 67.2651 101.2 67.2651C101.739 67.2651 102.064 66.6582 102.064 65.6382C102.064 64.5665 101.751 63.9467 101.213 63.9467C100.649 63.9467 100.311 64.5665 100.311 65.5994" fill="white"/>
<path id="Vector_27" d="M103.956 66.6543C103.956 66.2215 103.934 65.3557 103.902 64.9445C104.194 64.9661 104.346 64.9769 104.54 64.9769C104.703 64.9769 104.811 64.9769 105.276 64.9445C105.211 65.7778 105.179 66.5136 105.179 67.0547C105.179 67.6824 105.19 67.8556 105.265 67.9746C105.352 68.1261 105.493 68.2019 105.687 68.2019C105.926 68.2019 106.099 68.0828 106.174 67.8339C106.218 67.7149 106.229 67.4552 106.229 67.0331C106.229 66.9682 106.221 66.7084 106.207 66.2539C106.185 65.4423 106.185 65.4314 106.131 64.9445C106.391 64.9661 106.542 64.9769 106.813 64.9769C107.084 64.9769 107.235 64.9769 107.506 64.9445C107.484 65.3016 107.451 66.1565 107.451 67.0115C107.451 67.585 107.473 68.4075 107.506 68.862C107.267 68.8296 107.138 68.8187 106.9 68.8187C106.64 68.8187 106.477 68.8187 106.185 68.862C106.207 68.743 106.207 68.7105 106.207 68.4291C105.98 68.7646 105.644 68.927 105.179 68.927C104.8 68.927 104.486 68.8187 104.259 68.6023C104.032 68.3859 103.923 68.0395 103.923 67.5526C103.923 67.4227 103.923 67.2928 103.923 67.1089V66.6435L103.956 66.6543Z" fill="white"/>
<path id="Vector_28" d="M110.925 66.189C110.774 66.0592 110.622 65.9942 110.427 65.9942C110.168 65.9942 109.962 66.1566 109.854 66.4488C109.8 66.6003 109.778 66.8167 109.778 67.1955C109.778 67.6067 109.811 68.3642 109.865 68.8512C109.551 68.8188 109.388 68.8079 109.183 68.8079C108.999 68.8079 108.826 68.8079 108.49 68.8512C108.523 68.2777 108.555 67.3145 108.555 66.8925C108.555 66.4271 108.523 65.3124 108.49 64.9337C108.761 64.9553 108.923 64.9661 109.129 64.9661C109.334 64.9661 109.508 64.9661 109.8 64.9337C109.778 65.1718 109.778 65.3233 109.778 65.5397V65.7237H109.832C110.059 65.1501 110.33 64.9229 110.774 64.9229C110.882 64.9229 110.958 64.9229 111.12 64.9661C111.055 65.1609 111.012 65.5181 111.012 65.8535C111.012 65.9401 111.012 65.9834 111.033 66.1024L110.936 66.1782L110.925 66.189Z" fill="white"/>
<path id="Vector_29" d="M113.003 71.0697C112.7 71.0264 112.527 71.0156 112.3 71.0156C112.073 71.0156 111.921 71.0264 111.629 71.0697C111.651 70.6801 111.705 69.0027 111.705 68.3858C111.705 68.2271 111.701 67.6896 111.694 66.7734C111.661 65.2583 111.661 65.2366 111.64 64.9444C111.91 64.9769 112.062 64.9877 112.267 64.9877C112.473 64.9877 112.625 64.9877 112.96 64.9444C112.917 65.2366 112.917 65.2799 112.906 65.3773C113.133 65.0418 113.49 64.8795 113.956 64.8795C115.005 64.8795 115.698 65.7128 115.698 66.9682C115.698 68.1586 115.027 68.9378 114.01 68.9378C113.544 68.9378 113.231 68.7971 112.949 68.4616V69.1001C112.949 69.8576 112.949 69.9767 113.003 70.9398V71.0805V71.0697ZM112.884 66.8708C112.884 67.7149 113.176 68.2668 113.642 68.2668C114.107 68.2668 114.389 67.7582 114.389 66.9032C114.389 66.005 114.118 65.4855 113.653 65.4855C113.166 65.4855 112.873 66.005 112.873 66.8708" fill="white"/>
<path id="Vector_30" d="M119.778 65.3341C120.189 65.7021 120.417 66.254 120.417 66.9033C120.417 67.5526 120.222 68.0288 119.821 68.3967C119.443 68.7647 118.977 68.927 118.317 68.927C117.008 68.927 116.229 68.1587 116.229 66.8817C116.229 66.2432 116.477 65.6696 116.899 65.3125C117.278 65.0095 117.722 64.8688 118.328 64.8688C118.934 64.8688 119.399 65.0203 119.778 65.3341ZM117.527 66.8817C117.527 67.9639 117.787 68.4833 118.328 68.4833C118.869 68.4833 119.118 67.953 119.118 66.9141C119.118 65.8752 118.858 65.3125 118.328 65.3125C117.798 65.3125 117.527 65.8428 117.527 66.8817Z" fill="white"/>
<path id="Vector_31" d="M121.26 67.6067C121.412 68.072 121.758 68.3426 122.224 68.3426C122.592 68.3426 122.873 68.1586 122.873 67.9097C122.873 67.7041 122.754 67.6175 122.224 67.4227C121.715 67.2279 121.585 67.163 121.38 67.0223C121.098 66.8059 120.968 66.5353 120.968 66.1674C120.968 65.3557 121.574 64.8579 122.559 64.8579C123.057 64.8579 123.511 64.9553 123.836 65.1501C123.728 65.4856 123.685 65.6804 123.62 66.0375L123.468 66.0592C123.349 65.6587 122.97 65.3774 122.537 65.3774C122.256 65.3774 122.072 65.518 122.072 65.7345C122.072 65.9834 122.224 66.0916 122.84 66.3081C123.306 66.4704 123.555 66.5894 123.728 66.7409C123.944 66.9357 124.074 67.2604 124.074 67.5742C124.074 68.3751 123.338 68.927 122.278 68.927C121.747 68.927 121.347 68.8296 120.979 68.6131C121.055 68.3751 121.109 67.9855 121.109 67.7149V67.6067H121.26Z" fill="white"/>
<path id="Vector_32" d="M128.186 67.8232C128.067 68.1695 128.056 68.2128 127.97 68.5699C127.537 68.8188 127.126 68.927 126.628 68.927C125.383 68.927 124.583 68.1154 124.583 66.8817C124.583 66.2648 124.766 65.7454 125.134 65.3774C125.47 65.0311 125.924 64.8688 126.53 64.8688C127.613 64.8688 128.273 65.5073 128.273 66.5354C128.273 66.6869 128.273 66.7734 128.251 67.044C127.645 67.0332 127.31 67.0224 126.942 67.0224C126.574 67.0224 126.422 67.0224 125.892 67.044C125.892 67.0765 125.892 67.1197 125.892 67.1306C125.892 67.834 126.325 68.2885 126.996 68.2885C127.418 68.2885 127.721 68.137 128.078 67.7582L128.208 67.834L128.186 67.8232ZM126.347 66.557C126.53 66.557 126.65 66.557 127.093 66.5462C127.082 66.1458 127.061 66.0159 127.017 65.8536C126.92 65.5397 126.725 65.3666 126.476 65.3666C126.065 65.3666 125.87 65.7454 125.86 66.5462C126.054 66.557 126.152 66.557 126.347 66.557Z" fill="white"/>
<path id="Vector_33" d="M130.319 68.1911C130.319 68.5807 130.016 68.8837 129.615 68.8837C129.258 68.8837 128.944 68.5698 128.944 68.1911C128.944 67.8123 129.258 67.5093 129.637 67.5093C130.016 67.5093 130.319 67.8123 130.319 68.1911Z" fill="white"/>
<path id="Vector_34" d="M136 41.7529C136 42.6944 135.231 43.4736 134.29 43.4736C133.348 43.4736 132.58 42.7053 132.58 41.7529C132.58 40.8006 133.348 40.0322 134.312 40.0322C135.231 40.0322 135.989 40.8114 135.989 41.7529M132.851 41.7529C132.851 42.5646 133.5 43.2247 134.29 43.2247C135.08 43.2247 135.718 42.5646 135.718 41.7529C135.718 40.9413 135.08 40.2703 134.312 40.2703C133.489 40.2703 132.851 40.9196 132.851 41.7529ZM135.231 42.7486H135.167C135.08 42.7486 134.993 42.7377 134.928 42.7377C134.831 42.7377 134.744 42.7377 134.636 42.7486L134.615 42.7161V42.6944C134.409 42.3157 134.344 42.1966 134.117 41.8828C134.117 42.1209 134.117 42.1642 134.138 42.4131C134.138 42.5538 134.138 42.6295 134.138 42.7486C134.041 42.7377 133.965 42.7269 133.879 42.7269C133.825 42.7269 133.76 42.7269 133.608 42.7377H133.576V42.7053C133.576 42.5538 133.597 42.0451 133.597 41.8395C133.597 41.504 133.597 41.4716 133.587 41.1036V40.8114V40.7465C133.738 40.7573 133.76 40.7573 133.857 40.7573C133.89 40.7573 133.976 40.7573 134.106 40.7573C134.203 40.7573 134.29 40.7573 134.366 40.7573C134.82 40.7573 135.047 40.9196 135.047 41.2768C135.047 41.5365 134.896 41.7205 134.625 41.7962C134.777 42.0559 135.037 42.4347 135.264 42.7161L135.231 42.7594V42.7486ZM134.117 41.6664C134.117 41.6664 134.182 41.6664 134.214 41.6664C134.431 41.6664 134.528 41.5581 134.528 41.32C134.528 41.0928 134.441 40.9954 134.247 40.9954C134.203 40.9954 134.182 40.9954 134.128 40.9954V41.1469V41.2984V41.6447L134.117 41.6664Z" fill="white"/>
</g>
</svg>
